<?xml version="1.0" encoding="utf-8" standalone="no"?>
<!DOCTYPE svg PUBLIC "-//W3C//DTD SVG 1.1//EN"
  "http://www.w3.org/Graphics/SVG/1.1/DTD/svg11.dtd">
<svg xmlns:xlink="http://www.w3.org/1999/xlink" width="864pt" height="864pt" viewBox="0 0 864 864" xmlns="http://www.w3.org/2000/svg" version="1.1">
 <metadata>
  <rdf:RDF xmlns:dc="http://purl.org/dc/elements/1.1/" xmlns:cc="http://creativecommons.org/ns#" xmlns:rdf="http://www.w3.org/1999/02/22-rdf-syntax-ns#">
   <cc:Work>
    <dc:type rdf:resource="http://purl.org/dc/dcmitype/StillImage"/>
    <dc:date>2024-02-25T06:55:48.130473</dc:date>
    <dc:format>image/svg+xml</dc:format>
    <dc:creator>
     <cc:Agent>
      <dc:title>Matplotlib v3.5.2, https://matplotlib.org/</dc:title>
     </cc:Agent>
    </dc:creator>
   </cc:Work>
  </rdf:RDF>
 </metadata>
 <defs>
  <style type="text/css">*{stroke-linejoin: round; stroke-linecap: butt}</style>
 </defs>
 <g id="figure_1">
  <g id="patch_1">
   <path d="M 0 864 
L 864 864 
L 864 0 
L 0 0 
z
" style="fill: #ffffff"/>
  </g>
  <g id="axes_1">
   <g id="line2d_1">
    <path d="M 90.4 363.68 
L 227.04 158.72 
" clip-path="url(#p650c9320c5)" style="fill: none; stroke: #000000; stroke-width: 1.5; stroke-linecap: square"/>
   </g>
   <g id="line2d_2">
    <path d="M 90.4 363.68 
L 227.04 295.36 
" clip-path="url(#p650c9320c5)" style="fill: none; stroke: #000000; stroke-opacity: 0.2; stroke-width: 1.5; stroke-linecap: square"/>
   </g>
   <g id="line2d_3">
    <path d="M 90.4 363.68 
L 227.04 432 
" clip-path="url(#p650c9320c5)" style="fill: none; stroke: #000000; stroke-opacity: 0.2; stroke-width: 1.5; stroke-linecap: square"/>
   </g>
   <g id="line2d_4">
    <path d="M 90.4 363.68 
L 227.04 568.64 
" clip-path="url(#p650c9320c5)" style="fill: none; stroke: #000000; stroke-width: 1.5; stroke-linecap: square"/>
   </g>
   <g id="line2d_5">
    <path d="M 90.4 363.68 
L 227.04 705.28 
" clip-path="url(#p650c9320c5)" style="fill: none; stroke: #000000; stroke-width: 1.5; stroke-linecap: square"/>
   </g>
   <g id="line2d_6">
    <path d="M 90.4 500.32 
L 227.04 158.72 
" clip-path="url(#p650c9320c5)" style="fill: none; stroke: #000000; stroke-width: 1.5; stroke-linecap: square"/>
   </g>
   <g id="line2d_7">
    <path d="M 90.4 500.32 
L 227.04 295.36 
" clip-path="url(#p650c9320c5)" style="fill: none; stroke: #000000; stroke-opacity: 0.2; stroke-width: 1.5; stroke-linecap: square"/>
   </g>
   <g id="line2d_8">
    <path d="M 90.4 500.32 
L 227.04 432 
" clip-path="url(#p650c9320c5)" style="fill: none; stroke: #000000; stroke-opacity: 0.2; stroke-width: 1.5; stroke-linecap: square"/>
   </g>
   <g id="line2d_9">
    <path d="M 90.4 500.32 
L 227.04 568.64 
" clip-path="url(#p650c9320c5)" style="fill: none; stroke: #000000; stroke-width: 1.5; stroke-linecap: square"/>
   </g>
   <g id="line2d_10">
    <path d="M 90.4 500.32 
L 227.04 705.28 
" clip-path="url(#p650c9320c5)" style="fill: none; stroke: #000000; stroke-width: 1.5; stroke-linecap: square"/>
   </g>
   <g id="line2d_11">
    <path d="M 227.04 158.72 
L 363.68 158.72 
" clip-path="url(#p650c9320c5)" style="fill: none; stroke: #000000; stroke-width: 1.5; stroke-linecap: square"/>
   </g>
   <g id="line2d_12">
    <path d="M 227.04 158.72 
L 363.68 295.36 
" clip-path="url(#p650c9320c5)" style="fill: none; stroke: #000000; stroke-opacity: 0.2; stroke-width: 1.5; stroke-linecap: square"/>
   </g>
   <g id="line2d_13">
    <path d="M 227.04 158.72 
L 363.68 432 
" clip-path="url(#p650c9320c5)" style="fill: none; stroke: #000000; stroke-width: 1.5; stroke-linecap: square"/>
   </g>
   <g id="line2d_14">
    <path d="M 227.04 158.72 
L 363.68 568.64 
" clip-path="url(#p650c9320c5)" style="fill: none; stroke: #000000; stroke-opacity: 0.2; stroke-width: 1.5; stroke-linecap: square"/>
   </g>
   <g id="line2d_15">
    <path d="M 227.04 158.72 
L 363.68 705.28 
" clip-path="url(#p650c9320c5)" style="fill: none; stroke: #000000; stroke-opacity: 0.2; stroke-width: 1.5; stroke-linecap: square"/>
   </g>
   <g id="line2d_16">
    <path d="M 227.04 295.36 
L 363.68 158.72 
" clip-path="url(#p650c9320c5)" style="fill: none; stroke: #000000; stroke-opacity: 0.2; stroke-width: 1.5; stroke-linecap: square"/>
   </g>
   <g id="line2d_17">
    <path d="M 227.04 295.36 
L 363.68 295.36 
" clip-path="url(#p650c9320c5)" style="fill: none; stroke: #000000; stroke-opacity: 0.2; stroke-width: 1.5; stroke-linecap: square"/>
   </g>
   <g id="line2d_18">
    <path d="M 227.04 295.36 
L 363.68 432 
" clip-path="url(#p650c9320c5)" style="fill: none; stroke: #000000; stroke-opacity: 0.2; stroke-width: 1.5; stroke-linecap: square"/>
   </g>
   <g id="line2d_19">
    <path d="M 227.04 295.36 
L 363.68 568.64 
" clip-path="url(#p650c9320c5)" style="fill: none; stroke: #000000; stroke-opacity: 0.2; stroke-width: 1.5; stroke-linecap: square"/>
   </g>
   <g id="line2d_20">
    <path d="M 227.04 295.36 
L 363.68 705.28 
" clip-path="url(#p650c9320c5)" style="fill: none; stroke: #000000; stroke-opacity: 0.2; stroke-width: 1.5; stroke-linecap: square"/>
   </g>
   <g id="line2d_21">
    <path d="M 227.04 432 
L 363.68 158.72 
" clip-path="url(#p650c9320c5)" style="fill: none; stroke: #000000; stroke-opacity: 0.2; stroke-width: 1.5; stroke-linecap: square"/>
   </g>
   <g id="line2d_22">
    <path d="M 227.04 432 
L 363.68 295.36 
" clip-path="url(#p650c9320c5)" style="fill: none; stroke: #000000; stroke-opacity: 0.2; stroke-width: 1.5; stroke-linecap: square"/>
   </g>
   <g id="line2d_23">
    <path d="M 227.04 432 
L 363.68 432 
" clip-path="url(#p650c9320c5)" style="fill: none; stroke: #000000; stroke-opacity: 0.2; stroke-width: 1.5; stroke-linecap: square"/>
   </g>
   <g id="line2d_24">
    <path d="M 227.04 432 
L 363.68 568.64 
" clip-path="url(#p650c9320c5)" style="fill: none; stroke: #000000; stroke-opacity: 0.2; stroke-width: 1.5; stroke-linecap: square"/>
   </g>
   <g id="line2d_25">
    <path d="M 227.04 432 
L 363.68 705.28 
" clip-path="url(#p650c9320c5)" style="fill: none; stroke: #000000; stroke-opacity: 0.2; stroke-width: 1.5; stroke-linecap: square"/>
   </g>
   <g id="line2d_26">
    <path d="M 227.04 568.64 
L 363.68 158.72 
" clip-path="url(#p650c9320c5)" style="fill: none; stroke: #000000; stroke-width: 1.5; stroke-linecap: square"/>
   </g>
   <g id="line2d_27">
    <path d="M 227.04 568.64 
L 363.68 295.36 
" clip-path="url(#p650c9320c5)" style="fill: none; stroke: #000000; stroke-opacity: 0.2; stroke-width: 1.5; stroke-linecap: square"/>
   </g>
   <g id="line2d_28">
    <path d="M 227.04 568.64 
L 363.68 432 
" clip-path="url(#p650c9320c5)" style="fill: none; stroke: #000000; stroke-width: 1.5; stroke-linecap: square"/>
   </g>
   <g id="line2d_29">
    <path d="M 227.04 568.64 
L 363.68 568.64 
" clip-path="url(#p650c9320c5)" style="fill: none; stroke: #000000; stroke-opacity: 0.2; stroke-width: 1.5; stroke-linecap: square"/>
   </g>
   <g id="line2d_30">
    <path d="M 227.04 568.64 
L 363.68 705.28 
" clip-path="url(#p650c9320c5)" style="fill: none; stroke: #000000; stroke-opacity: 0.2; stroke-width: 1.5; stroke-linecap: square"/>
   </g>
   <g id="line2d_31">
    <path d="M 227.04 705.28 
L 363.68 158.72 
" clip-path="url(#p650c9320c5)" style="fill: none; stroke: #000000; stroke-width: 1.5; stroke-linecap: square"/>
   </g>
   <g id="line2d_32">
    <path d="M 227.04 705.28 
L 363.68 295.36 
" clip-path="url(#p650c9320c5)" style="fill: none; stroke: #000000; stroke-opacity: 0.2; stroke-width: 1.5; stroke-linecap: square"/>
   </g>
   <g id="line2d_33">
    <path d="M 227.04 705.28 
L 363.68 432 
" clip-path="url(#p650c9320c5)" style="fill: none; stroke: #000000; stroke-width: 1.5; stroke-linecap: square"/>
   </g>
   <g id="line2d_34">
    <path d="M 227.04 705.28 
L 363.68 568.64 
" clip-path="url(#p650c9320c5)" style="fill: none; stroke: #000000; stroke-opacity: 0.2; stroke-width: 1.5; stroke-linecap: square"/>
   </g>
   <g id="line2d_35">
    <path d="M 227.04 705.28 
L 363.68 705.28 
" clip-path="url(#p650c9320c5)" style="fill: none; stroke: #000000; stroke-opacity: 0.2; stroke-width: 1.5; stroke-linecap: square"/>
   </g>
   <g id="line2d_36">
    <path d="M 363.68 158.72 
L 500.32 158.72 
" clip-path="url(#p650c9320c5)" style="fill: none; stroke: #000000; stroke-opacity: 0.2; stroke-width: 1.5; stroke-linecap: square"/>
   </g>
   <g id="line2d_37">
    <path d="M 363.68 158.72 
L 500.32 295.36 
" clip-path="url(#p650c9320c5)" style="fill: none; stroke: #000000; stroke-opacity: 0.2; stroke-width: 1.5; stroke-linecap: square"/>
   </g>
   <g id="line2d_38">
    <path d="M 363.68 158.72 
L 500.32 432 
" clip-path="url(#p650c9320c5)" style="fill: none; stroke: #000000; stroke-width: 1.5; stroke-linecap: square"/>
   </g>
   <g id="line2d_39">
    <path d="M 363.68 158.72 
L 500.32 568.64 
" clip-path="url(#p650c9320c5)" style="fill: none; stroke: #000000; stroke-width: 1.5; stroke-linecap: square"/>
   </g>
   <g id="line2d_40">
    <path d="M 363.68 158.72 
L 500.32 705.28 
" clip-path="url(#p650c9320c5)" style="fill: none; stroke: #000000; stroke-opacity: 0.2; stroke-width: 1.5; stroke-linecap: square"/>
   </g>
   <g id="line2d_41">
    <path d="M 363.68 295.36 
L 500.32 158.72 
" clip-path="url(#p650c9320c5)" style="fill: none; stroke: #000000; stroke-opacity: 0.2; stroke-width: 1.5; stroke-linecap: square"/>
   </g>
   <g id="line2d_42">
    <path d="M 363.68 295.36 
L 500.32 295.36 
" clip-path="url(#p650c9320c5)" style="fill: none; stroke: #000000; stroke-opacity: 0.2; stroke-width: 1.5; stroke-linecap: square"/>
   </g>
   <g id="line2d_43">
    <path d="M 363.68 295.36 
L 500.32 432 
" clip-path="url(#p650c9320c5)" style="fill: none; stroke: #000000; stroke-opacity: 0.2; stroke-width: 1.5; stroke-linecap: square"/>
   </g>
   <g id="line2d_44">
    <path d="M 363.68 295.36 
L 500.32 568.64 
" clip-path="url(#p650c9320c5)" style="fill: none; stroke: #000000; stroke-opacity: 0.2; stroke-width: 1.5; stroke-linecap: square"/>
   </g>
   <g id="line2d_45">
    <path d="M 363.68 295.36 
L 500.32 705.28 
" clip-path="url(#p650c9320c5)" style="fill: none; stroke: #000000; stroke-opacity: 0.2; stroke-width: 1.5; stroke-linecap: square"/>
   </g>
   <g id="line2d_46">
    <path d="M 363.68 432 
L 500.32 158.72 
" clip-path="url(#p650c9320c5)" style="fill: none; stroke: #000000; stroke-opacity: 0.2; stroke-width: 1.5; stroke-linecap: square"/>
   </g>
   <g id="line2d_47">
    <path d="M 363.68 432 
L 500.32 295.36 
" clip-path="url(#p650c9320c5)" style="fill: none; stroke: #000000; stroke-opacity: 0.2; stroke-width: 1.5; stroke-linecap: square"/>
   </g>
   <g id="line2d_48">
    <path d="M 363.68 432 
L 500.32 432 
" clip-path="url(#p650c9320c5)" style="fill: none; stroke: #000000; stroke-width: 1.5; stroke-linecap: square"/>
   </g>
   <g id="line2d_49">
    <path d="M 363.68 432 
L 500.32 568.64 
" clip-path="url(#p650c9320c5)" style="fill: none; stroke: #000000; stroke-width: 1.5; stroke-linecap: square"/>
   </g>
   <g id="line2d_50">
    <path d="M 363.68 432 
L 500.32 705.28 
" clip-path="url(#p650c9320c5)" style="fill: none; stroke: #000000; stroke-opacity: 0.2; stroke-width: 1.5; stroke-linecap: square"/>
   </g>
   <g id="line2d_51">
    <path d="M 363.68 568.64 
L 500.32 158.72 
" clip-path="url(#p650c9320c5)" style="fill: none; stroke: #000000; stroke-opacity: 0.2; stroke-width: 1.5; stroke-linecap: square"/>
   </g>
   <g id="line2d_52">
    <path d="M 363.68 568.64 
L 500.32 295.36 
" clip-path="url(#p650c9320c5)" style="fill: none; stroke: #000000; stroke-opacity: 0.2; stroke-width: 1.5; stroke-linecap: square"/>
   </g>
   <g id="line2d_53">
    <path d="M 363.68 568.64 
L 500.32 432 
" clip-path="url(#p650c9320c5)" style="fill: none; stroke: #000000; stroke-opacity: 0.2; stroke-width: 1.5; stroke-linecap: square"/>
   </g>
   <g id="line2d_54">
    <path d="M 363.68 568.64 
L 500.32 568.64 
" clip-path="url(#p650c9320c5)" style="fill: none; stroke: #000000; stroke-opacity: 0.2; stroke-width: 1.5; stroke-linecap: square"/>
   </g>
   <g id="line2d_55">
    <path d="M 363.68 568.64 
L 500.32 705.28 
" clip-path="url(#p650c9320c5)" style="fill: none; stroke: #000000; stroke-opacity: 0.2; stroke-width: 1.5; stroke-linecap: square"/>
   </g>
   <g id="line2d_56">
    <path d="M 363.68 705.28 
L 500.32 158.72 
" clip-path="url(#p650c9320c5)" style="fill: none; stroke: #000000; stroke-opacity: 0.2; stroke-width: 1.5; stroke-linecap: square"/>
   </g>
   <g id="line2d_57">
    <path d="M 363.68 705.28 
L 500.32 295.36 
" clip-path="url(#p650c9320c5)" style="fill: none; stroke: #000000; stroke-opacity: 0.2; stroke-width: 1.5; stroke-linecap: square"/>
   </g>
   <g id="line2d_58">
    <path d="M 363.68 705.28 
L 500.32 432 
" clip-path="url(#p650c9320c5)" style="fill: none; stroke: #000000; stroke-opacity: 0.2; stroke-width: 1.5; stroke-linecap: square"/>
   </g>
   <g id="line2d_59">
    <path d="M 363.68 705.28 
L 500.32 568.64 
" clip-path="url(#p650c9320c5)" style="fill: none; stroke: #000000; stroke-opacity: 0.2; stroke-width: 1.5; stroke-linecap: square"/>
   </g>
   <g id="line2d_60">
    <path d="M 363.68 705.28 
L 500.32 705.28 
" clip-path="url(#p650c9320c5)" style="fill: none; stroke: #000000; stroke-opacity: 0.2; stroke-width: 1.5; stroke-linecap: square"/>
   </g>
   <g id="line2d_61">
    <path d="M 500.32 158.72 
L 636.96 158.72 
" clip-path="url(#p650c9320c5)" style="fill: none; stroke: #000000; stroke-opacity: 0.2; stroke-width: 1.5; stroke-linecap: square"/>
   </g>
   <g id="line2d_62">
    <path d="M 500.32 158.72 
L 636.96 295.36 
" clip-path="url(#p650c9320c5)" style="fill: none; stroke: #000000; stroke-opacity: 0.2; stroke-width: 1.5; stroke-linecap: square"/>
   </g>
   <g id="line2d_63">
    <path d="M 500.32 158.72 
L 636.96 432 
" clip-path="url(#p650c9320c5)" style="fill: none; stroke: #000000; stroke-opacity: 0.2; stroke-width: 1.5; stroke-linecap: square"/>
   </g>
   <g id="line2d_64">
    <path d="M 500.32 158.72 
L 636.96 568.64 
" clip-path="url(#p650c9320c5)" style="fill: none; stroke: #000000; stroke-opacity: 0.2; stroke-width: 1.5; stroke-linecap: square"/>
   </g>
   <g id="line2d_65">
    <path d="M 500.32 158.72 
L 636.96 705.28 
" clip-path="url(#p650c9320c5)" style="fill: none; stroke: #000000; stroke-opacity: 0.2; stroke-width: 1.5; stroke-linecap: square"/>
   </g>
   <g id="line2d_66">
    <path d="M 500.32 295.36 
L 636.96 158.72 
" clip-path="url(#p650c9320c5)" style="fill: none; stroke: #000000; stroke-opacity: 0.2; stroke-width: 1.5; stroke-linecap: square"/>
   </g>
   <g id="line2d_67">
    <path d="M 500.32 295.36 
L 636.96 295.36 
" clip-path="url(#p650c9320c5)" style="fill: none; stroke: #000000; stroke-opacity: 0.2; stroke-width: 1.5; stroke-linecap: square"/>
   </g>
   <g id="line2d_68">
    <path d="M 500.32 295.36 
L 636.96 432 
" clip-path="url(#p650c9320c5)" style="fill: none; stroke: #000000; stroke-opacity: 0.2; stroke-width: 1.5; stroke-linecap: square"/>
   </g>
   <g id="line2d_69">
    <path d="M 500.32 295.36 
L 636.96 568.64 
" clip-path="url(#p650c9320c5)" style="fill: none; stroke: #000000; stroke-opacity: 0.2; stroke-width: 1.5; stroke-linecap: square"/>
   </g>
   <g id="line2d_70">
    <path d="M 500.32 295.36 
L 636.96 705.28 
" clip-path="url(#p650c9320c5)" style="fill: none; stroke: #000000; stroke-opacity: 0.2; stroke-width: 1.5; stroke-linecap: square"/>
   </g>
   <g id="line2d_71">
    <path d="M 500.32 432 
L 636.96 158.72 
" clip-path="url(#p650c9320c5)" style="fill: none; stroke: #000000; stroke-width: 1.5; stroke-linecap: square"/>
   </g>
   <g id="line2d_72">
    <path d="M 500.32 432 
L 636.96 295.36 
" clip-path="url(#p650c9320c5)" style="fill: none; stroke: #000000; stroke-opacity: 0.2; stroke-width: 1.5; stroke-linecap: square"/>
   </g>
   <g id="line2d_73">
    <path d="M 500.32 432 
L 636.96 432 
" clip-path="url(#p650c9320c5)" style="fill: none; stroke: #000000; stroke-width: 1.5; stroke-linecap: square"/>
   </g>
   <g id="line2d_74">
    <path d="M 500.32 432 
L 636.96 568.64 
" clip-path="url(#p650c9320c5)" style="fill: none; stroke: #000000; stroke-width: 1.5; stroke-linecap: square"/>
   </g>
   <g id="line2d_75">
    <path d="M 500.32 432 
L 636.96 705.28 
" clip-path="url(#p650c9320c5)" style="fill: none; stroke: #000000; stroke-width: 1.5; stroke-linecap: square"/>
   </g>
   <g id="line2d_76">
    <path d="M 500.32 568.64 
L 636.96 158.72 
" clip-path="url(#p650c9320c5)" style="fill: none; stroke: #000000; stroke-width: 1.5; stroke-linecap: square"/>
   </g>
   <g id="line2d_77">
    <path d="M 500.32 568.64 
L 636.96 295.36 
" clip-path="url(#p650c9320c5)" style="fill: none; stroke: #000000; stroke-opacity: 0.2; stroke-width: 1.5; stroke-linecap: square"/>
   </g>
   <g id="line2d_78">
    <path d="M 500.32 568.64 
L 636.96 432 
" clip-path="url(#p650c9320c5)" style="fill: none; stroke: #000000; stroke-width: 1.5; stroke-linecap: square"/>
   </g>
   <g id="line2d_79">
    <path d="M 500.32 568.64 
L 636.96 568.64 
" clip-path="url(#p650c9320c5)" style="fill: none; stroke: #000000; stroke-width: 1.5; stroke-linecap: square"/>
   </g>
   <g id="line2d_80">
    <path d="M 500.32 568.64 
L 636.96 705.28 
" clip-path="url(#p650c9320c5)" style="fill: none; stroke: #000000; stroke-width: 1.5; stroke-linecap: square"/>
   </g>
   <g id="line2d_81">
    <path d="M 500.32 705.28 
L 636.96 158.72 
" clip-path="url(#p650c9320c5)" style="fill: none; stroke: #000000; stroke-opacity: 0.2; stroke-width: 1.5; stroke-linecap: square"/>
   </g>
   <g id="line2d_82">
    <path d="M 500.32 705.28 
L 636.96 295.36 
" clip-path="url(#p650c9320c5)" style="fill: none; stroke: #000000; stroke-opacity: 0.2; stroke-width: 1.5; stroke-linecap: square"/>
   </g>
   <g id="line2d_83">
    <path d="M 500.32 705.28 
L 636.96 432 
" clip-path="url(#p650c9320c5)" style="fill: none; stroke: #000000; stroke-opacity: 0.2; stroke-width: 1.5; stroke-linecap: square"/>
   </g>
   <g id="line2d_84">
    <path d="M 500.32 705.28 
L 636.96 568.64 
" clip-path="url(#p650c9320c5)" style="fill: none; stroke: #000000; stroke-opacity: 0.2; stroke-width: 1.5; stroke-linecap: square"/>
   </g>
   <g id="line2d_85">
    <path d="M 500.32 705.28 
L 636.96 705.28 
" clip-path="url(#p650c9320c5)" style="fill: none; stroke: #000000; stroke-opacity: 0.2; stroke-width: 1.5; stroke-linecap: square"/>
   </g>
   <g id="line2d_86">
    <path d="M 636.96 158.72 
L 773.6 432 
" clip-path="url(#p650c9320c5)" style="fill: none; stroke: #000000; stroke-width: 1.5; stroke-linecap: square"/>
   </g>
   <g id="line2d_87">
    <path d="M 636.96 295.36 
L 773.6 432 
" clip-path="url(#p650c9320c5)" style="fill: none; stroke: #000000; stroke-opacity: 0.2; stroke-width: 1.5; stroke-linecap: square"/>
   </g>
   <g id="line2d_88">
    <path d="M 636.96 432 
L 773.6 432 
" clip-path="url(#p650c9320c5)" style="fill: none; stroke: #000000; stroke-width: 1.5; stroke-linecap: square"/>
   </g>
   <g id="line2d_89">
    <path d="M 636.96 568.64 
L 773.6 432 
" clip-path="url(#p650c9320c5)" style="fill: none; stroke: #000000; stroke-width: 1.5; stroke-linecap: square"/>
   </g>
   <g id="line2d_90">
    <path d="M 636.96 705.28 
L 773.6 432 
" clip-path="url(#p650c9320c5)" style="fill: none; stroke: #000000; stroke-width: 1.5; stroke-linecap: square"/>
   </g>
   <g id="patch_2">
    <path d="M 90.4 397.84 
C 99.459338 397.84 108.148848 394.240687 114.554768 387.834768 
C 120.960687 381.428848 124.56 372.739338 124.56 363.68 
C 124.56 354.620662 120.960687 345.931152 114.554768 339.525232 
C 108.148848 333.119313 99.459338 329.52 90.4 329.52 
C 81.340662 329.52 72.651152 333.119313 66.245232 339.525232 
C 59.839313 345.931152 56.24 354.620662 56.24 363.68 
C 56.24 372.739338 59.839313 381.428848 66.245232 387.834768 
C 72.651152 394.240687 81.340662 397.84 90.4 397.84 
z
" clip-path="url(#p650c9320c5)" style="fill: #bbdcf0; stroke: #000000; stroke-width: 4; stroke-linejoin: miter"/>
   </g>
   <g id="patch_3">
    <path d="M 90.4 534.48 
C 99.459338 534.48 108.148848 530.880687 114.554768 524.474768 
C 120.960687 518.068848 124.56 509.379338 124.56 500.32 
C 124.56 491.260662 120.960687 482.571152 114.554768 476.165232 
C 108.148848 469.759313 99.459338 466.16 90.4 466.16 
C 81.340662 466.16 72.651152 469.759313 66.245232 476.165232 
C 59.839313 482.571152 56.24 491.260662 56.24 500.32 
C 56.24 509.379338 59.839313 518.068848 66.245232 524.474768 
C 72.651152 530.880687 81.340662 534.48 90.4 534.48 
z
" clip-path="url(#p650c9320c5)" style="fill: #bbdcf0; stroke: #000000; stroke-width: 4; stroke-linejoin: miter"/>
   </g>
   <g id="patch_4">
    <path d="M 227.04 192.88 
C 236.099338 192.88 244.788848 189.280687 251.194768 182.874768 
C 257.600687 176.468848 261.2 167.779338 261.2 158.72 
C 261.2 149.660662 257.600687 140.971152 251.194768 134.565232 
C 244.788848 128.159313 236.099338 124.56 227.04 124.56 
C 217.980662 124.56 209.291152 128.159313 202.885232 134.565232 
C 196.479313 140.971152 192.88 149.660662 192.88 158.72 
C 192.88 167.779338 196.479313 176.468848 202.885232 182.874768 
C 209.291152 189.280687 217.980662 192.88 227.04 192.88 
z
" clip-path="url(#p650c9320c5)" style="fill: #bbdcf0; stroke: #000000; stroke-width: 4; stroke-linejoin: miter"/>
   </g>
   <g id="patch_5">
    <path d="M 227.04 329.52 
C 236.099338 329.52 244.788848 325.920687 251.194768 319.514768 
C 257.600687 313.108848 261.2 304.419338 261.2 295.36 
C 261.2 286.300662 257.600687 277.611152 251.194768 271.205232 
C 244.788848 264.799313 236.099338 261.2 227.04 261.2 
C 217.980662 261.2 209.291152 264.799313 202.885232 271.205232 
C 196.479313 277.611152 192.88 286.300662 192.88 295.36 
C 192.88 304.419338 196.479313 313.108848 202.885232 319.514768 
C 209.291152 325.920687 217.980662 329.52 227.04 329.52 
z
" clip-path="url(#p650c9320c5)" style="fill: #ffa500; stroke: #ff0000; stroke-width: 4; stroke-linejoin: miter"/>
   </g>
   <g id="patch_6">
    <path d="M 227.04 466.16 
C 236.099338 466.16 244.788848 462.560687 251.194768 456.154768 
C 257.600687 449.748848 261.2 441.059338 261.2 432 
C 261.2 422.940662 257.600687 414.251152 251.194768 407.845232 
C 244.788848 401.439313 236.099338 397.84 227.04 397.84 
C 217.980662 397.84 209.291152 401.439313 202.885232 407.845232 
C 196.479313 414.251152 192.88 422.940662 192.88 432 
C 192.88 441.059338 196.479313 449.748848 202.885232 456.154768 
C 209.291152 462.560687 217.980662 466.16 227.04 466.16 
z
" clip-path="url(#p650c9320c5)" style="fill: #ffa500; stroke: #ff0000; stroke-width: 4; stroke-linejoin: miter"/>
   </g>
   <g id="patch_7">
    <path d="M 227.04 602.8 
C 236.099338 602.8 244.788848 599.200687 251.194768 592.794768 
C 257.600687 586.388848 261.2 577.699338 261.2 568.64 
C 261.2 559.580662 257.600687 550.891152 251.194768 544.485232 
C 244.788848 538.079313 236.099338 534.48 227.04 534.48 
C 217.980662 534.48 209.291152 538.079313 202.885232 544.485232 
C 196.479313 550.891152 192.88 559.580662 192.88 568.64 
C 192.88 577.699338 196.479313 586.388848 202.885232 592.794768 
C 209.291152 599.200687 217.980662 602.8 227.04 602.8 
z
" clip-path="url(#p650c9320c5)" style="fill: #bbdcf0; stroke: #000000; stroke-width: 4; stroke-linejoin: miter"/>
   </g>
   <g id="patch_8">
    <path d="M 227.04 739.44 
C 236.099338 739.44 244.788848 735.840687 251.194768 729.434768 
C 257.600687 723.028848 261.2 714.339338 261.2 705.28 
C 261.2 696.220662 257.600687 687.531152 251.194768 681.125232 
C 244.788848 674.719313 236.099338 671.12 227.04 671.12 
C 217.980662 671.12 209.291152 674.719313 202.885232 681.125232 
C 196.479313 687.531152 192.88 696.220662 192.88 705.28 
C 192.88 714.339338 196.479313 723.028848 202.885232 729.434768 
C 209.291152 735.840687 217.980662 739.44 227.04 739.44 
z
" clip-path="url(#p650c9320c5)" style="fill: #bbdcf0; stroke: #000000; stroke-width: 4; stroke-linejoin: miter"/>
   </g>
   <g id="patch_9">
    <path d="M 363.68 192.88 
C 372.739338 192.88 381.428848 189.280687 387.834768 182.874768 
C 394.240687 176.468848 397.84 167.779338 397.84 158.72 
C 397.84 149.660662 394.240687 140.971152 387.834768 134.565232 
C 381.428848 128.159313 372.739338 124.56 363.68 124.56 
C 354.620662 124.56 345.931152 128.159313 339.525232 134.565232 
C 333.119313 140.971152 329.52 149.660662 329.52 158.72 
C 329.52 167.779338 333.119313 176.468848 339.525232 182.874768 
C 345.931152 189.280687 354.620662 192.88 363.68 192.88 
z
" clip-path="url(#p650c9320c5)" style="fill: #bbdcf0; stroke: #000000; stroke-width: 4; stroke-linejoin: miter"/>
   </g>
   <g id="patch_10">
    <path d="M 363.68 329.52 
C 372.739338 329.52 381.428848 325.920687 387.834768 319.514768 
C 394.240687 313.108848 397.84 304.419338 397.84 295.36 
C 397.84 286.300662 394.240687 277.611152 387.834768 271.205232 
C 381.428848 264.799313 372.739338 261.2 363.68 261.2 
C 354.620662 261.2 345.931152 264.799313 339.525232 271.205232 
C 333.119313 277.611152 329.52 286.300662 329.52 295.36 
C 329.52 304.419338 333.119313 313.108848 339.525232 319.514768 
C 345.931152 325.920687 354.620662 329.52 363.68 329.52 
z
" clip-path="url(#p650c9320c5)" style="fill: #ffa500; stroke: #ff0000; stroke-width: 4; stroke-linejoin: miter"/>
   </g>
   <g id="patch_11">
    <path d="M 363.68 466.16 
C 372.739338 466.16 381.428848 462.560687 387.834768 456.154768 
C 394.240687 449.748848 397.84 441.059338 397.84 432 
C 397.84 422.940662 394.240687 414.251152 387.834768 407.845232 
C 381.428848 401.439313 372.739338 397.84 363.68 397.84 
C 354.620662 397.84 345.931152 401.439313 339.525232 407.845232 
C 333.119313 414.251152 329.52 422.940662 329.52 432 
C 329.52 441.059338 333.119313 449.748848 339.525232 456.154768 
C 345.931152 462.560687 354.620662 466.16 363.68 466.16 
z
" clip-path="url(#p650c9320c5)" style="fill: #bbdcf0; stroke: #000000; stroke-width: 4; stroke-linejoin: miter"/>
   </g>
   <g id="patch_12">
    <path d="M 363.68 602.8 
C 372.739338 602.8 381.428848 599.200687 387.834768 592.794768 
C 394.240687 586.388848 397.84 577.699338 397.84 568.64 
C 397.84 559.580662 394.240687 550.891152 387.834768 544.485232 
C 381.428848 538.079313 372.739338 534.48 363.68 534.48 
C 354.620662 534.48 345.931152 538.079313 339.525232 544.485232 
C 333.119313 550.891152 329.52 559.580662 329.52 568.64 
C 329.52 577.699338 333.119313 586.388848 339.525232 592.794768 
C 345.931152 599.200687 354.620662 602.8 363.68 602.8 
z
" clip-path="url(#p650c9320c5)" style="fill: #ffa500; stroke: #ff0000; stroke-width: 4; stroke-linejoin: miter"/>
   </g>
   <g id="patch_13">
    <path d="M 363.68 739.44 
C 372.739338 739.44 381.428848 735.840687 387.834768 729.434768 
C 394.240687 723.028848 397.84 714.339338 397.84 705.28 
C 397.84 696.220662 394.240687 687.531152 387.834768 681.125232 
C 381.428848 674.719313 372.739338 671.12 363.68 671.12 
C 354.620662 671.12 345.931152 674.719313 339.525232 681.125232 
C 333.119313 687.531152 329.52 696.220662 329.52 705.28 
C 329.52 714.339338 333.119313 723.028848 339.525232 729.434768 
C 345.931152 735.840687 354.620662 739.44 363.68 739.44 
z
" clip-path="url(#p650c9320c5)" style="fill: #ffa500; stroke: #ff0000; stroke-width: 4; stroke-linejoin: miter"/>
   </g>
   <g id="patch_14">
    <path d="M 500.32 192.88 
C 509.379338 192.88 518.068848 189.280687 524.474768 182.874768 
C 530.880687 176.468848 534.48 167.779338 534.48 158.72 
C 534.48 149.660662 530.880687 140.971152 524.474768 134.565232 
C 518.068848 128.159313 509.379338 124.56 500.32 124.56 
C 491.260662 124.56 482.571152 128.159313 476.165232 134.565232 
C 469.759313 140.971152 466.16 149.660662 466.16 158.72 
C 466.16 167.779338 469.759313 176.468848 476.165232 182.874768 
C 482.571152 189.280687 491.260662 192.88 500.32 192.88 
z
" clip-path="url(#p650c9320c5)" style="fill: #ffa500; stroke: #ff0000; stroke-width: 4; stroke-linejoin: miter"/>
   </g>
   <g id="patch_15">
    <path d="M 500.32 329.52 
C 509.379338 329.52 518.068848 325.920687 524.474768 319.514768 
C 530.880687 313.108848 534.48 304.419338 534.48 295.36 
C 534.48 286.300662 530.880687 277.611152 524.474768 271.205232 
C 518.068848 264.799313 509.379338 261.2 500.32 261.2 
C 491.260662 261.2 482.571152 264.799313 476.165232 271.205232 
C 469.759313 277.611152 466.16 286.300662 466.16 295.36 
C 466.16 304.419338 469.759313 313.108848 476.165232 319.514768 
C 482.571152 325.920687 491.260662 329.52 500.32 329.52 
z
" clip-path="url(#p650c9320c5)" style="fill: #ffa500; stroke: #ff0000; stroke-width: 4; stroke-linejoin: miter"/>
   </g>
   <g id="patch_16">
    <path d="M 500.32 466.16 
C 509.379338 466.16 518.068848 462.560687 524.474768 456.154768 
C 530.880687 449.748848 534.48 441.059338 534.48 432 
C 534.48 422.940662 530.880687 414.251152 524.474768 407.845232 
C 518.068848 401.439313 509.379338 397.84 500.32 397.84 
C 491.260662 397.84 482.571152 401.439313 476.165232 407.845232 
C 469.759313 414.251152 466.16 422.940662 466.16 432 
C 466.16 441.059338 469.759313 449.748848 476.165232 456.154768 
C 482.571152 462.560687 491.260662 466.16 500.32 466.16 
z
" clip-path="url(#p650c9320c5)" style="fill: #bbdcf0; stroke: #000000; stroke-width: 4; stroke-linejoin: miter"/>
   </g>
   <g id="patch_17">
    <path d="M 500.32 602.8 
C 509.379338 602.8 518.068848 599.200687 524.474768 592.794768 
C 530.880687 586.388848 534.48 577.699338 534.48 568.64 
C 534.48 559.580662 530.880687 550.891152 524.474768 544.485232 
C 518.068848 538.079313 509.379338 534.48 500.32 534.48 
C 491.260662 534.48 482.571152 538.079313 476.165232 544.485232 
C 469.759313 550.891152 466.16 559.580662 466.16 568.64 
C 466.16 577.699338 469.759313 586.388848 476.165232 592.794768 
C 482.571152 599.200687 491.260662 602.8 500.32 602.8 
z
" clip-path="url(#p650c9320c5)" style="fill: #bbdcf0; stroke: #000000; stroke-width: 4; stroke-linejoin: miter"/>
   </g>
   <g id="patch_18">
    <path d="M 500.32 739.44 
C 509.379338 739.44 518.068848 735.840687 524.474768 729.434768 
C 530.880687 723.028848 534.48 714.339338 534.48 705.28 
C 534.48 696.220662 530.880687 687.531152 524.474768 681.125232 
C 518.068848 674.719313 509.379338 671.12 500.32 671.12 
C 491.260662 671.12 482.571152 674.719313 476.165232 681.125232 
C 469.759313 687.531152 466.16 696.220662 466.16 705.28 
C 466.16 714.339338 469.759313 723.028848 476.165232 729.434768 
C 482.571152 735.840687 491.260662 739.44 500.32 739.44 
z
" clip-path="url(#p650c9320c5)" style="fill: #ffa500; stroke: #ff0000; stroke-width: 4; stroke-linejoin: miter"/>
   </g>
   <g id="patch_19">
    <path d="M 636.96 192.88 
C 646.019338 192.88 654.708848 189.280687 661.114768 182.874768 
C 667.520687 176.468848 671.12 167.779338 671.12 158.72 
C 671.12 149.660662 667.520687 140.971152 661.114768 134.565232 
C 654.708848 128.159313 646.019338 124.56 636.96 124.56 
C 627.900662 124.56 619.211152 128.159313 612.805232 134.565232 
C 606.399313 140.971152 602.8 149.660662 602.8 158.72 
C 602.8 167.779338 606.399313 176.468848 612.805232 182.874768 
C 619.211152 189.280687 627.900662 192.88 636.96 192.88 
z
" clip-path="url(#p650c9320c5)" style="fill: #bbdcf0; stroke: #000000; stroke-width: 4; stroke-linejoin: miter"/>
   </g>
   <g id="patch_20">
    <path d="M 636.96 329.52 
C 646.019338 329.52 654.708848 325.920687 661.114768 319.514768 
C 667.520687 313.108848 671.12 304.419338 671.12 295.36 
C 671.12 286.300662 667.520687 277.611152 661.114768 271.205232 
C 654.708848 264.799313 646.019338 261.2 636.96 261.2 
C 627.900662 261.2 619.211152 264.799313 612.805232 271.205232 
C 606.399313 277.611152 602.8 286.300662 602.8 295.36 
C 602.8 304.419338 606.399313 313.108848 612.805232 319.514768 
C 619.211152 325.920687 627.900662 329.52 636.96 329.52 
z
" clip-path="url(#p650c9320c5)" style="fill: #ffa500; stroke: #ff0000; stroke-width: 4; stroke-linejoin: miter"/>
   </g>
   <g id="patch_21">
    <path d="M 636.96 466.16 
C 646.019338 466.16 654.708848 462.560687 661.114768 456.154768 
C 667.520687 449.748848 671.12 441.059338 671.12 432 
C 671.12 422.940662 667.520687 414.251152 661.114768 407.845232 
C 654.708848 401.439313 646.019338 397.84 636.96 397.84 
C 627.900662 397.84 619.211152 401.439313 612.805232 407.845232 
C 606.399313 414.251152 602.8 422.940662 602.8 432 
C 602.8 441.059338 606.399313 449.748848 612.805232 456.154768 
C 619.211152 462.560687 627.900662 466.16 636.96 466.16 
z
" clip-path="url(#p650c9320c5)" style="fill: #bbdcf0; stroke: #000000; stroke-width: 4; stroke-linejoin: miter"/>
   </g>
   <g id="patch_22">
    <path d="M 636.96 602.8 
C 646.019338 602.8 654.708848 599.200687 661.114768 592.794768 
C 667.520687 586.388848 671.12 577.699338 671.12 568.64 
C 671.12 559.580662 667.520687 550.891152 661.114768 544.485232 
C 654.708848 538.079313 646.019338 534.48 636.96 534.48 
C 627.900662 534.48 619.211152 538.079313 612.805232 544.485232 
C 606.399313 550.891152 602.8 559.580662 602.8 568.64 
C 602.8 577.699338 606.399313 586.388848 612.805232 592.794768 
C 619.211152 599.200687 627.900662 602.8 636.96 602.8 
z
" clip-path="url(#p650c9320c5)" style="fill: #bbdcf0; stroke: #000000; stroke-width: 4; stroke-linejoin: miter"/>
   </g>
   <g id="patch_23">
    <path d="M 636.96 739.44 
C 646.019338 739.44 654.708848 735.840687 661.114768 729.434768 
C 667.520687 723.028848 671.12 714.339338 671.12 705.28 
C 671.12 696.220662 667.520687 687.531152 661.114768 681.125232 
C 654.708848 674.719313 646.019338 671.12 636.96 671.12 
C 627.900662 671.12 619.211152 674.719313 612.805232 681.125232 
C 606.399313 687.531152 602.8 696.220662 602.8 705.28 
C 602.8 714.339338 606.399313 723.028848 612.805232 729.434768 
C 619.211152 735.840687 627.900662 739.44 636.96 739.44 
z
" clip-path="url(#p650c9320c5)" style="fill: #bbdcf0; stroke: #000000; stroke-width: 4; stroke-linejoin: miter"/>
   </g>
   <g id="patch_24">
    <path d="M 773.6 466.16 
C 782.659338 466.16 791.348848 462.560687 797.754768 456.154768 
C 804.160687 449.748848 807.76 441.059338 807.76 432 
C 807.76 422.940662 804.160687 414.251152 797.754768 407.845232 
C 791.348848 401.439313 782.659338 397.84 773.6 397.84 
C 764.540662 397.84 755.851152 401.439313 749.445232 407.845232 
C 743.039313 414.251152 739.44 422.940662 739.44 432 
C 739.44 441.059338 743.039313 449.748848 749.445232 456.154768 
C 755.851152 462.560687 764.540662 466.16 773.6 466.16 
z
" clip-path="url(#p650c9320c5)" style="fill: #bbdcf0; stroke: #000000; stroke-width: 4; stroke-linejoin: miter"/>
   </g>
  </g>
 </g>
 <defs>
  <clipPath id="p650c9320c5">
   <rect x="5" y="5" width="854" height="854"/>
  </clipPath>
 </defs>
</svg>
