<?xml version="1.0" encoding="utf-8" standalone="no"?>
<!DOCTYPE svg PUBLIC "-//W3C//DTD SVG 1.1//EN"
  "http://www.w3.org/Graphics/SVG/1.1/DTD/svg11.dtd">
<svg xmlns:xlink="http://www.w3.org/1999/xlink" width="288pt" height="288pt" viewBox="0 0 288 288" xmlns="http://www.w3.org/2000/svg" version="1.1">
 <metadata>
  <rdf:RDF xmlns:dc="http://purl.org/dc/elements/1.1/" xmlns:cc="http://creativecommons.org/ns#" xmlns:rdf="http://www.w3.org/1999/02/22-rdf-syntax-ns#">
   <cc:Work>
    <dc:type rdf:resource="http://purl.org/dc/dcmitype/StillImage"/>
    <dc:date>2024-02-24T03:28:11.980178</dc:date>
    <dc:format>image/svg+xml</dc:format>
    <dc:creator>
     <cc:Agent>
      <dc:title>Matplotlib v3.5.2, https://matplotlib.org/</dc:title>
     </cc:Agent>
    </dc:creator>
   </cc:Work>
  </rdf:RDF>
 </metadata>
 <defs>
  <style type="text/css">*{stroke-linejoin: round; stroke-linecap: butt}</style>
 </defs>
 <g id="figure_1">
  <g id="patch_1">
   <path d="M 0 288 
L 288 288 
L 288 0 
L 0 0 
z
" style="fill: #ffffff"/>
  </g>
  <g id="axes_1">
   <g id="patch_2">
    <path d="M 51.355 124.512 
L 283 124.512 
L 283 5 
L 51.355 5 
z
" style="fill: #ffffff"/>
   </g>
   <g id="matplotlib.axis_1">
    <g id="xtick_1">
     <g id="line2d_1">
      <defs>
       <path id="mcdf1b85086" d="M 0 0 
L 0 3.5 
" style="stroke: #000000; stroke-width: 0.8"/>
      </defs>
      <g>
       <use xlink:href="#mcdf1b85086" x="51.355" y="124.512" style="stroke: #000000; stroke-width: 0.8"/>
      </g>
     </g>
    </g>
    <g id="xtick_2">
     <g id="line2d_2">
      <g>
       <use xlink:href="#mcdf1b85086" x="92.437806" y="124.512" style="stroke: #000000; stroke-width: 0.8"/>
      </g>
     </g>
    </g>
    <g id="xtick_3">
     <g id="line2d_3">
      <g>
       <use xlink:href="#mcdf1b85086" x="133.520612" y="124.512" style="stroke: #000000; stroke-width: 0.8"/>
      </g>
     </g>
    </g>
    <g id="xtick_4">
     <g id="line2d_4">
      <g>
       <use xlink:href="#mcdf1b85086" x="174.603417" y="124.512" style="stroke: #000000; stroke-width: 0.8"/>
      </g>
     </g>
    </g>
    <g id="xtick_5">
     <g id="line2d_5">
      <g>
       <use xlink:href="#mcdf1b85086" x="215.686223" y="124.512" style="stroke: #000000; stroke-width: 0.8"/>
      </g>
     </g>
    </g>
    <g id="xtick_6">
     <g id="line2d_6">
      <g>
       <use xlink:href="#mcdf1b85086" x="256.769029" y="124.512" style="stroke: #000000; stroke-width: 0.8"/>
      </g>
     </g>
    </g>
    <g id="xtick_7">
     <g id="line2d_7">
      <defs>
       <path id="ma4e4c507a6" d="M 0 0 
L 0 2 
" style="stroke: #000000; stroke-width: 0.6"/>
      </defs>
      <g>
       <use xlink:href="#ma4e4c507a6" x="63.722157" y="124.512" style="stroke: #000000; stroke-width: 0.6"/>
      </g>
     </g>
    </g>
    <g id="xtick_8">
     <g id="line2d_8">
      <g>
       <use xlink:href="#ma4e4c507a6" x="70.95648" y="124.512" style="stroke: #000000; stroke-width: 0.6"/>
      </g>
     </g>
    </g>
    <g id="xtick_9">
     <g id="line2d_9">
      <g>
       <use xlink:href="#ma4e4c507a6" x="76.089314" y="124.512" style="stroke: #000000; stroke-width: 0.6"/>
      </g>
     </g>
    </g>
    <g id="xtick_10">
     <g id="line2d_10">
      <g>
       <use xlink:href="#ma4e4c507a6" x="80.070649" y="124.512" style="stroke: #000000; stroke-width: 0.6"/>
      </g>
     </g>
    </g>
    <g id="xtick_11">
     <g id="line2d_11">
      <g>
       <use xlink:href="#ma4e4c507a6" x="83.323637" y="124.512" style="stroke: #000000; stroke-width: 0.6"/>
      </g>
     </g>
    </g>
    <g id="xtick_12">
     <g id="line2d_12">
      <g>
       <use xlink:href="#ma4e4c507a6" x="86.073999" y="124.512" style="stroke: #000000; stroke-width: 0.6"/>
      </g>
     </g>
    </g>
    <g id="xtick_13">
     <g id="line2d_13">
      <g>
       <use xlink:href="#ma4e4c507a6" x="88.456471" y="124.512" style="stroke: #000000; stroke-width: 0.6"/>
      </g>
     </g>
    </g>
    <g id="xtick_14">
     <g id="line2d_14">
      <g>
       <use xlink:href="#ma4e4c507a6" x="90.55796" y="124.512" style="stroke: #000000; stroke-width: 0.6"/>
      </g>
     </g>
    </g>
    <g id="xtick_15">
     <g id="line2d_15">
      <g>
       <use xlink:href="#ma4e4c507a6" x="104.804963" y="124.512" style="stroke: #000000; stroke-width: 0.6"/>
      </g>
     </g>
    </g>
    <g id="xtick_16">
     <g id="line2d_16">
      <g>
       <use xlink:href="#ma4e4c507a6" x="112.039286" y="124.512" style="stroke: #000000; stroke-width: 0.6"/>
      </g>
     </g>
    </g>
    <g id="xtick_17">
     <g id="line2d_17">
      <g>
       <use xlink:href="#ma4e4c507a6" x="117.172119" y="124.512" style="stroke: #000000; stroke-width: 0.6"/>
      </g>
     </g>
    </g>
    <g id="xtick_18">
     <g id="line2d_18">
      <g>
       <use xlink:href="#ma4e4c507a6" x="121.153455" y="124.512" style="stroke: #000000; stroke-width: 0.6"/>
      </g>
     </g>
    </g>
    <g id="xtick_19">
     <g id="line2d_19">
      <g>
       <use xlink:href="#ma4e4c507a6" x="124.406442" y="124.512" style="stroke: #000000; stroke-width: 0.6"/>
      </g>
     </g>
    </g>
    <g id="xtick_20">
     <g id="line2d_20">
      <g>
       <use xlink:href="#ma4e4c507a6" x="127.156804" y="124.512" style="stroke: #000000; stroke-width: 0.6"/>
      </g>
     </g>
    </g>
    <g id="xtick_21">
     <g id="line2d_21">
      <g>
       <use xlink:href="#ma4e4c507a6" x="129.539276" y="124.512" style="stroke: #000000; stroke-width: 0.6"/>
      </g>
     </g>
    </g>
    <g id="xtick_22">
     <g id="line2d_22">
      <g>
       <use xlink:href="#ma4e4c507a6" x="131.640765" y="124.512" style="stroke: #000000; stroke-width: 0.6"/>
      </g>
     </g>
    </g>
    <g id="xtick_23">
     <g id="line2d_23">
      <g>
       <use xlink:href="#ma4e4c507a6" x="145.887768" y="124.512" style="stroke: #000000; stroke-width: 0.6"/>
      </g>
     </g>
    </g>
    <g id="xtick_24">
     <g id="line2d_24">
      <g>
       <use xlink:href="#ma4e4c507a6" x="153.122091" y="124.512" style="stroke: #000000; stroke-width: 0.6"/>
      </g>
     </g>
    </g>
    <g id="xtick_25">
     <g id="line2d_25">
      <g>
       <use xlink:href="#ma4e4c507a6" x="158.254925" y="124.512" style="stroke: #000000; stroke-width: 0.6"/>
      </g>
     </g>
    </g>
    <g id="xtick_26">
     <g id="line2d_26">
      <g>
       <use xlink:href="#ma4e4c507a6" x="162.23626" y="124.512" style="stroke: #000000; stroke-width: 0.6"/>
      </g>
     </g>
    </g>
    <g id="xtick_27">
     <g id="line2d_27">
      <g>
       <use xlink:href="#ma4e4c507a6" x="165.489248" y="124.512" style="stroke: #000000; stroke-width: 0.6"/>
      </g>
     </g>
    </g>
    <g id="xtick_28">
     <g id="line2d_28">
      <g>
       <use xlink:href="#ma4e4c507a6" x="168.23961" y="124.512" style="stroke: #000000; stroke-width: 0.6"/>
      </g>
     </g>
    </g>
    <g id="xtick_29">
     <g id="line2d_29">
      <g>
       <use xlink:href="#ma4e4c507a6" x="170.622082" y="124.512" style="stroke: #000000; stroke-width: 0.6"/>
      </g>
     </g>
    </g>
    <g id="xtick_30">
     <g id="line2d_30">
      <g>
       <use xlink:href="#ma4e4c507a6" x="172.723571" y="124.512" style="stroke: #000000; stroke-width: 0.6"/>
      </g>
     </g>
    </g>
    <g id="xtick_31">
     <g id="line2d_31">
      <g>
       <use xlink:href="#ma4e4c507a6" x="186.970574" y="124.512" style="stroke: #000000; stroke-width: 0.6"/>
      </g>
     </g>
    </g>
    <g id="xtick_32">
     <g id="line2d_32">
      <g>
       <use xlink:href="#ma4e4c507a6" x="194.204897" y="124.512" style="stroke: #000000; stroke-width: 0.6"/>
      </g>
     </g>
    </g>
    <g id="xtick_33">
     <g id="line2d_33">
      <g>
       <use xlink:href="#ma4e4c507a6" x="199.337731" y="124.512" style="stroke: #000000; stroke-width: 0.6"/>
      </g>
     </g>
    </g>
    <g id="xtick_34">
     <g id="line2d_34">
      <g>
       <use xlink:href="#ma4e4c507a6" x="203.319066" y="124.512" style="stroke: #000000; stroke-width: 0.6"/>
      </g>
     </g>
    </g>
    <g id="xtick_35">
     <g id="line2d_35">
      <g>
       <use xlink:href="#ma4e4c507a6" x="206.572054" y="124.512" style="stroke: #000000; stroke-width: 0.6"/>
      </g>
     </g>
    </g>
    <g id="xtick_36">
     <g id="line2d_36">
      <g>
       <use xlink:href="#ma4e4c507a6" x="209.322416" y="124.512" style="stroke: #000000; stroke-width: 0.6"/>
      </g>
     </g>
    </g>
    <g id="xtick_37">
     <g id="line2d_37">
      <g>
       <use xlink:href="#ma4e4c507a6" x="211.704888" y="124.512" style="stroke: #000000; stroke-width: 0.6"/>
      </g>
     </g>
    </g>
    <g id="xtick_38">
     <g id="line2d_38">
      <g>
       <use xlink:href="#ma4e4c507a6" x="213.806377" y="124.512" style="stroke: #000000; stroke-width: 0.6"/>
      </g>
     </g>
    </g>
    <g id="xtick_39">
     <g id="line2d_39">
      <g>
       <use xlink:href="#ma4e4c507a6" x="228.05338" y="124.512" style="stroke: #000000; stroke-width: 0.6"/>
      </g>
     </g>
    </g>
    <g id="xtick_40">
     <g id="line2d_40">
      <g>
       <use xlink:href="#ma4e4c507a6" x="235.287703" y="124.512" style="stroke: #000000; stroke-width: 0.6"/>
      </g>
     </g>
    </g>
    <g id="xtick_41">
     <g id="line2d_41">
      <g>
       <use xlink:href="#ma4e4c507a6" x="240.420537" y="124.512" style="stroke: #000000; stroke-width: 0.6"/>
      </g>
     </g>
    </g>
    <g id="xtick_42">
     <g id="line2d_42">
      <g>
       <use xlink:href="#ma4e4c507a6" x="244.401872" y="124.512" style="stroke: #000000; stroke-width: 0.6"/>
      </g>
     </g>
    </g>
    <g id="xtick_43">
     <g id="line2d_43">
      <g>
       <use xlink:href="#ma4e4c507a6" x="247.65486" y="124.512" style="stroke: #000000; stroke-width: 0.6"/>
      </g>
     </g>
    </g>
    <g id="xtick_44">
     <g id="line2d_44">
      <g>
       <use xlink:href="#ma4e4c507a6" x="250.405222" y="124.512" style="stroke: #000000; stroke-width: 0.6"/>
      </g>
     </g>
    </g>
    <g id="xtick_45">
     <g id="line2d_45">
      <g>
       <use xlink:href="#ma4e4c507a6" x="252.787694" y="124.512" style="stroke: #000000; stroke-width: 0.6"/>
      </g>
     </g>
    </g>
    <g id="xtick_46">
     <g id="line2d_46">
      <g>
       <use xlink:href="#ma4e4c507a6" x="254.889183" y="124.512" style="stroke: #000000; stroke-width: 0.6"/>
      </g>
     </g>
    </g>
    <g id="xtick_47">
     <g id="line2d_47">
      <g>
       <use xlink:href="#ma4e4c507a6" x="269.136186" y="124.512" style="stroke: #000000; stroke-width: 0.6"/>
      </g>
     </g>
    </g>
    <g id="xtick_48">
     <g id="line2d_48">
      <g>
       <use xlink:href="#ma4e4c507a6" x="276.370509" y="124.512" style="stroke: #000000; stroke-width: 0.6"/>
      </g>
     </g>
    </g>
    <g id="xtick_49">
     <g id="line2d_49">
      <g>
       <use xlink:href="#ma4e4c507a6" x="281.503343" y="124.512" style="stroke: #000000; stroke-width: 0.6"/>
      </g>
     </g>
    </g>
   </g>
   <g id="matplotlib.axis_2">
    <g id="ytick_1">
     <g id="line2d_50">
      <defs>
       <path id="me63035d507" d="M 0 0 
L -3.5 0 
" style="stroke: #000000; stroke-width: 0.8"/>
      </defs>
      <g>
       <use xlink:href="#me63035d507" x="51.355" y="119.079636" style="stroke: #000000; stroke-width: 0.8"/>
      </g>
     </g>
     <g id="text_1">
      <!-- 0 -->
      <g transform="translate(37.9925 122.878855)scale(0.1 -0.1)">
       <defs>
        <path id="DejaVuSans-30" d="M 2034 4250 
Q 1547 4250 1301 3770 
Q 1056 3291 1056 2328 
Q 1056 1369 1301 889 
Q 1547 409 2034 409 
Q 2525 409 2770 889 
Q 3016 1369 3016 2328 
Q 3016 3291 2770 3770 
Q 2525 4250 2034 4250 
z
M 2034 4750 
Q 2819 4750 3233 4129 
Q 3647 3509 3647 2328 
Q 3647 1150 3233 529 
Q 2819 -91 2034 -91 
Q 1250 -91 836 529 
Q 422 1150 422 2328 
Q 422 3509 836 4129 
Q 1250 4750 2034 4750 
z
" transform="scale(0.015625)"/>
       </defs>
       <use xlink:href="#DejaVuSans-30"/>
      </g>
     </g>
    </g>
    <g id="ytick_2">
     <g id="line2d_51">
      <g>
       <use xlink:href="#me63035d507" x="51.355" y="92.861343" style="stroke: #000000; stroke-width: 0.8"/>
      </g>
     </g>
     <g id="text_2">
      <!-- 20 -->
      <g transform="translate(31.63 96.660562)scale(0.1 -0.1)">
       <defs>
        <path id="DejaVuSans-32" d="M 1228 531 
L 3431 531 
L 3431 0 
L 469 0 
L 469 531 
Q 828 903 1448 1529 
Q 2069 2156 2228 2338 
Q 2531 2678 2651 2914 
Q 2772 3150 2772 3378 
Q 2772 3750 2511 3984 
Q 2250 4219 1831 4219 
Q 1534 4219 1204 4116 
Q 875 4013 500 3803 
L 500 4441 
Q 881 4594 1212 4672 
Q 1544 4750 1819 4750 
Q 2544 4750 2975 4387 
Q 3406 4025 3406 3419 
Q 3406 3131 3298 2873 
Q 3191 2616 2906 2266 
Q 2828 2175 2409 1742 
Q 1991 1309 1228 531 
z
" transform="scale(0.015625)"/>
       </defs>
       <use xlink:href="#DejaVuSans-32"/>
       <use xlink:href="#DejaVuSans-30" x="63.623047"/>
      </g>
     </g>
    </g>
    <g id="ytick_3">
     <g id="line2d_52">
      <g>
       <use xlink:href="#me63035d507" x="51.355" y="66.643049" style="stroke: #000000; stroke-width: 0.8"/>
      </g>
     </g>
     <g id="text_3">
      <!-- 40 -->
      <g transform="translate(31.63 70.442268)scale(0.1 -0.1)">
       <defs>
        <path id="DejaVuSans-34" d="M 2419 4116 
L 825 1625 
L 2419 1625 
L 2419 4116 
z
M 2253 4666 
L 3047 4666 
L 3047 1625 
L 3713 1625 
L 3713 1100 
L 3047 1100 
L 3047 0 
L 2419 0 
L 2419 1100 
L 313 1100 
L 313 1709 
L 2253 4666 
z
" transform="scale(0.015625)"/>
       </defs>
       <use xlink:href="#DejaVuSans-34"/>
       <use xlink:href="#DejaVuSans-30" x="63.623047"/>
      </g>
     </g>
    </g>
    <g id="ytick_4">
     <g id="line2d_53">
      <g>
       <use xlink:href="#me63035d507" x="51.355" y="40.424756" style="stroke: #000000; stroke-width: 0.8"/>
      </g>
     </g>
     <g id="text_4">
      <!-- 60 -->
      <g transform="translate(31.63 44.223974)scale(0.1 -0.1)">
       <defs>
        <path id="DejaVuSans-36" d="M 2113 2584 
Q 1688 2584 1439 2293 
Q 1191 2003 1191 1497 
Q 1191 994 1439 701 
Q 1688 409 2113 409 
Q 2538 409 2786 701 
Q 3034 994 3034 1497 
Q 3034 2003 2786 2293 
Q 2538 2584 2113 2584 
z
M 3366 4563 
L 3366 3988 
Q 3128 4100 2886 4159 
Q 2644 4219 2406 4219 
Q 1781 4219 1451 3797 
Q 1122 3375 1075 2522 
Q 1259 2794 1537 2939 
Q 1816 3084 2150 3084 
Q 2853 3084 3261 2657 
Q 3669 2231 3669 1497 
Q 3669 778 3244 343 
Q 2819 -91 2113 -91 
Q 1303 -91 875 529 
Q 447 1150 447 2328 
Q 447 3434 972 4092 
Q 1497 4750 2381 4750 
Q 2619 4750 2861 4703 
Q 3103 4656 3366 4563 
z
" transform="scale(0.015625)"/>
       </defs>
       <use xlink:href="#DejaVuSans-36"/>
       <use xlink:href="#DejaVuSans-30" x="63.623047"/>
      </g>
     </g>
    </g>
    <g id="ytick_5">
     <g id="line2d_54">
      <g>
       <use xlink:href="#me63035d507" x="51.355" y="14.206462" style="stroke: #000000; stroke-width: 0.8"/>
      </g>
     </g>
     <g id="text_5">
      <!-- 80 -->
      <g transform="translate(31.63 18.005681)scale(0.1 -0.1)">
       <defs>
        <path id="DejaVuSans-38" d="M 2034 2216 
Q 1584 2216 1326 1975 
Q 1069 1734 1069 1313 
Q 1069 891 1326 650 
Q 1584 409 2034 409 
Q 2484 409 2743 651 
Q 3003 894 3003 1313 
Q 3003 1734 2745 1975 
Q 2488 2216 2034 2216 
z
M 1403 2484 
Q 997 2584 770 2862 
Q 544 3141 544 3541 
Q 544 4100 942 4425 
Q 1341 4750 2034 4750 
Q 2731 4750 3128 4425 
Q 3525 4100 3525 3541 
Q 3525 3141 3298 2862 
Q 3072 2584 2669 2484 
Q 3125 2378 3379 2068 
Q 3634 1759 3634 1313 
Q 3634 634 3220 271 
Q 2806 -91 2034 -91 
Q 1263 -91 848 271 
Q 434 634 434 1313 
Q 434 1759 690 2068 
Q 947 2378 1403 2484 
z
M 1172 3481 
Q 1172 3119 1398 2916 
Q 1625 2713 2034 2713 
Q 2441 2713 2670 2916 
Q 2900 3119 2900 3481 
Q 2900 3844 2670 4047 
Q 2441 4250 2034 4250 
Q 1625 4250 1398 4047 
Q 1172 3844 1172 3481 
z
" transform="scale(0.015625)"/>
       </defs>
       <use xlink:href="#DejaVuSans-38"/>
       <use xlink:href="#DejaVuSans-30" x="63.623047"/>
      </g>
     </g>
    </g>
    <g id="text_6">
     <!-- Accuracy -->
     <g transform="translate(25.550313 87.584125)rotate(-90)scale(0.1 -0.1)">
      <defs>
       <path id="DejaVuSans-41" d="M 2188 4044 
L 1331 1722 
L 3047 1722 
L 2188 4044 
z
M 1831 4666 
L 2547 4666 
L 4325 0 
L 3669 0 
L 3244 1197 
L 1141 1197 
L 716 0 
L 50 0 
L 1831 4666 
z
" transform="scale(0.015625)"/>
       <path id="DejaVuSans-63" d="M 3122 3366 
L 3122 2828 
Q 2878 2963 2633 3030 
Q 2388 3097 2138 3097 
Q 1578 3097 1268 2742 
Q 959 2388 959 1747 
Q 959 1106 1268 751 
Q 1578 397 2138 397 
Q 2388 397 2633 464 
Q 2878 531 3122 666 
L 3122 134 
Q 2881 22 2623 -34 
Q 2366 -91 2075 -91 
Q 1284 -91 818 406 
Q 353 903 353 1747 
Q 353 2603 823 3093 
Q 1294 3584 2113 3584 
Q 2378 3584 2631 3529 
Q 2884 3475 3122 3366 
z
" transform="scale(0.015625)"/>
       <path id="DejaVuSans-75" d="M 544 1381 
L 544 3500 
L 1119 3500 
L 1119 1403 
Q 1119 906 1312 657 
Q 1506 409 1894 409 
Q 2359 409 2629 706 
Q 2900 1003 2900 1516 
L 2900 3500 
L 3475 3500 
L 3475 0 
L 2900 0 
L 2900 538 
Q 2691 219 2414 64 
Q 2138 -91 1772 -91 
Q 1169 -91 856 284 
Q 544 659 544 1381 
z
M 1991 3584 
L 1991 3584 
z
" transform="scale(0.015625)"/>
       <path id="DejaVuSans-72" d="M 2631 2963 
Q 2534 3019 2420 3045 
Q 2306 3072 2169 3072 
Q 1681 3072 1420 2755 
Q 1159 2438 1159 1844 
L 1159 0 
L 581 0 
L 581 3500 
L 1159 3500 
L 1159 2956 
Q 1341 3275 1631 3429 
Q 1922 3584 2338 3584 
Q 2397 3584 2469 3576 
Q 2541 3569 2628 3553 
L 2631 2963 
z
" transform="scale(0.015625)"/>
       <path id="DejaVuSans-61" d="M 2194 1759 
Q 1497 1759 1228 1600 
Q 959 1441 959 1056 
Q 959 750 1161 570 
Q 1363 391 1709 391 
Q 2188 391 2477 730 
Q 2766 1069 2766 1631 
L 2766 1759 
L 2194 1759 
z
M 3341 1997 
L 3341 0 
L 2766 0 
L 2766 531 
Q 2569 213 2275 61 
Q 1981 -91 1556 -91 
Q 1019 -91 701 211 
Q 384 513 384 1019 
Q 384 1609 779 1909 
Q 1175 2209 1959 2209 
L 2766 2209 
L 2766 2266 
Q 2766 2663 2505 2880 
Q 2244 3097 1772 3097 
Q 1472 3097 1187 3025 
Q 903 2953 641 2809 
L 641 3341 
Q 956 3463 1253 3523 
Q 1550 3584 1831 3584 
Q 2591 3584 2966 3190 
Q 3341 2797 3341 1997 
z
" transform="scale(0.015625)"/>
       <path id="DejaVuSans-79" d="M 2059 -325 
Q 1816 -950 1584 -1140 
Q 1353 -1331 966 -1331 
L 506 -1331 
L 506 -850 
L 844 -850 
Q 1081 -850 1212 -737 
Q 1344 -625 1503 -206 
L 1606 56 
L 191 3500 
L 800 3500 
L 1894 763 
L 2988 3500 
L 3597 3500 
L 2059 -325 
z
" transform="scale(0.015625)"/>
      </defs>
      <use xlink:href="#DejaVuSans-41"/>
      <use xlink:href="#DejaVuSans-63" x="66.658203"/>
      <use xlink:href="#DejaVuSans-63" x="121.638672"/>
      <use xlink:href="#DejaVuSans-75" x="176.619141"/>
      <use xlink:href="#DejaVuSans-72" x="239.998047"/>
      <use xlink:href="#DejaVuSans-61" x="281.111328"/>
      <use xlink:href="#DejaVuSans-63" x="342.390625"/>
      <use xlink:href="#DejaVuSans-79" x="397.371094"/>
     </g>
    </g>
   </g>
   <g id="line2d_55">
    <path d="M 51.355 106.254382 
L 63.722157 105.886992 
L 70.95648 107.156158 
L 76.089314 106.187584 
L 86.073999 106.187584 
L 88.456471 106.354579 
L 90.55796 105.085413 
L 99.672129 105.085413 
L 100.823627 105.519602 
L 101.905294 105.085413 
L 112.624323 105.085413 
L 117.612686 102.647279 
L 121.506774 105.419404 
L 127.409887 105.419404 
L 129.760919 103.649252 
L 131.837917 97.437019 
L 133.698146 97.904607 
L 135.382607 93.462527 
L 136.921667 93.829917 
L 138.338445 102.313288 
L 139.650951 95.833863 
L 145.976756 84.311173 
L 153.181466 80.036088 
L 162.271909 64.405309 
L 165.51896 62.935749 
L 168.265081 55.020162 
L 170.644371 47.405167 
L 172.743385 43.430675 
L 174.62125 42.762693 
L 186.979493 25.02777 
L 194.210844 23.858802 
L 199.342191 17.078785 
L 203.322634 14.674049 
L 206.575027 16.978587 
L 209.324965 13.204489 
L 211.707118 12.837099 
L 213.808359 12.336112 
L 215.688007 12.670103 
L 222.921736 10.432364 
L 228.054272 11.30074 
L 232.035429 11.434337 
L 235.288298 10.666157 
L 238.038575 11.801727 
L 240.420983 11.167144 
L 242.522422 13.204489 
L 244.402229 11.868525 
L 246.102724 12.202516 
L 247.655157 11.734929 
L 250.405477 13.17109 
L 251.636433 11.467736 
L 252.787917 11.200543 
L 253.86957 10.56596 
L 255.85404 13.471682 
L 256.769207 12.03552 
L 257.639715 14.941242 
L 258.469719 14.340058 
L 259.262822 12.302713 
L 260.022165 13.17109 
L 261.450279 12.336112 
L 262.123638 13.805673 
L 262.772506 13.004094 
L 263.398602 12.603305 
L 264.003471 13.672076 
L 264.588504 12.770301 
L 265.154962 12.703502 
L 265.703988 12.870498 
L 266.236622 13.338085 
L 266.753816 15.542426 
L 267.256439 14.941242 
L 267.74529 17.212381 
L 268.221103 16.945188 
L 268.684556 14.774247 
L 269.576839 15.542426 
L 270.006787 14.573852 
L 270.426617 17.011986 
L 270.836794 14.841045 
L 271.237754 15.308632 
L 271.629901 17.446175 
L 272.013614 16.177009 
L 272.389248 17.813565 
L 272.757136 16.043412 
L 273.117592 16.344004 
L 273.47091 16.177009 
L 273.817367 17.178982 
L 274.157224 17.24578 
L 274.490729 16.177009 
L 274.818113 16.14361 
L 275.455394 16.87839 
L 276.070696 15.00804 
L 276.370568 16.945188 
L 276.665484 16.577798 
L 276.955603 17.145583 
L 277.241081 16.377403 
L 277.522063 18.247753 
L 278.07109 16.945188 
L 278.339396 15.976614 
L 278.603726 16.511 
L 278.864198 18.114157 
L 279.374004 15.642623 
L 279.623546 16.644596 
L 279.869646 16.711394 
L 280.112398 15.542426 
L 280.351892 17.212381 
L 280.588213 17.512973 
L 280.821445 15.809619 
L 281.051667 18.414749 
L 281.72503 18.915735 
L 282.160222 16.811592 
L 282.373901 16.677995 
L 282.585051 16.778193 
L 283 18.782139 
L 283 18.782139 
" clip-path="url(#p08a424beda)" style="fill: none; stroke: #9e3303; stroke-opacity: 0.8; stroke-linecap: square"/>
   </g>
   <g id="line2d_56">
    <path d="M 51.355 119.079636 
L 63.722157 105.886992 
L 70.95648 119.079636 
L 76.089314 113.234794 
L 80.070649 117.543278 
L 83.323637 114.169969 
L 86.073999 111.063852 
L 88.456471 114.10317 
L 90.55796 105.152212 
L 94.138333 105.085413 
L 99.672129 105.085413 
L 100.823627 108.425324 
L 101.905294 105.085413 
L 104.804963 105.118812 
L 105.675478 105.719996 
L 106.50549 106.688571 
L 107.2986 105.886992 
L 108.786298 105.185611 
L 110.15944 105.085413 
L 111.434413 105.085413 
L 112.039286 105.319207 
L 112.624323 105.853593 
L 121.506774 105.419405 
L 127.409887 105.419405 
L 129.760919 104.718024 
L 131.837917 99.975352 
L 133.698146 100.442939 
L 135.382607 96.334849 
L 136.921667 99.774957 
L 138.338445 102.313289 
L 139.650951 98.438994 
L 145.976756 101.14432 
L 153.181466 97.37022 
L 158.299475 96.568643 
L 162.271909 101.912499 
L 165.51896 102.513682 
L 168.265081 104.050041 
L 170.644371 102.814275 
L 172.743385 103.448858 
L 174.62125 109.727888 
L 186.979493 107.690544 
L 194.210844 108.692517 
L 199.342191 111.965628 
L 203.322634 113.435188 
L 206.575027 113.501987 
L 209.324965 112.600211 
L 211.707118 114.570758 
L 213.808359 113.401789 
L 215.688007 112.967601 
L 222.921736 114.336964 
L 228.054272 114.470561 
L 232.035429 114.771152 
L 235.288298 115.405735 
L 238.038575 114.537359 
L 240.420983 115.873323 
L 242.522422 116.608103 
L 244.402229 116.975493 
L 246.102724 116.541305 
L 249.083259 118.344856 
L 250.405477 118.244659 
L 251.636433 117.977466 
L 252.787917 117.509879 
L 253.86957 117.84387 
L 254.889381 117.276085 
L 255.85404 117.777071 
L 256.769207 117.276085 
L 257.639715 118.177861 
L 258.469719 118.411654 
L 259.262822 117.47648 
L 260.022165 118.511852 
L 262.123638 117.810471 
L 262.772506 118.545251 
L 263.398602 118.411654 
L 264.003471 117.710273 
L 266.236622 118.244659 
L 266.753816 55.320753 
L 267.256439 55.587947 
L 267.74529 57.925885 
L 268.221103 55.454353 
L 268.684556 54.886563 
L 269.136275 53.6842 
L 269.576839 56.356126 
L 270.006787 54.118389 
L 270.426617 54.218584 
L 270.836794 52.147837 
L 271.237754 53.917989 
L 271.629901 56.289327 
L 272.013614 53.016215 
L 272.389248 52.181241 
L 272.757136 55.721542 
L 273.117592 53.4838 
L 273.47091 54.853168 
L 273.817367 53.851194 
L 274.157224 55.554547 
L 274.490729 54.051589 
L 274.818113 49.64291 
L 275.139599 53.7176 
L 275.455394 52.982821 
L 275.765698 51.246063 
L 276.070696 51.446457 
L 276.370568 53.31681 
L 276.665484 52.147837 
L 276.955603 53.7176 
L 277.241081 53.417 
L 277.522063 55.020163 
L 278.339396 49.075125 
L 278.603726 53.18321 
L 278.864198 52.248041 
L 279.120922 52.047642 
L 279.623546 49.976899 
L 279.869646 50.210689 
L 280.112398 50.244094 
L 280.351892 50.611483 
L 280.588213 50.678283 
L 280.821445 50.411089 
L 281.051667 48.073146 
L 281.278957 52.081037 
L 281.503387 52.415031 
L 281.72503 49.10852 
L 281.943953 49.27552 
L 282.160222 48.373736 
L 282.373901 49.976899 
L 282.585051 47.104573 
L 282.793732 51.012268 
L 283 50.945473 
L 283 50.945473 
" clip-path="url(#p08a424beda)" style="fill: none; stroke: #e25508; stroke-opacity: 0.8; stroke-linecap: square"/>
   </g>
   <g id="line2d_57">
    <path d="M 51.355 119.079636 
L 63.722157 105.886992 
L 70.95648 119.079636 
L 76.089314 116.641502 
L 80.070649 119.079636 
L 83.323637 118.845843 
L 86.073999 116.875296 
L 88.456471 117.47648 
L 90.55796 106.488175 
L 92.437806 105.118812 
L 99.672129 105.085413 
L 100.823627 107.623745 
L 101.905294 105.085413 
L 103.889786 105.085413 
L 104.804963 105.252409 
L 105.675478 110.729861 
L 106.50549 113.602184 
L 107.2986 109.894884 
L 108.05795 108.158131 
L 108.786298 105.753396 
L 109.486075 105.152212 
L 110.808312 105.152212 
L 111.434413 105.285808 
L 112.624323 108.425324 
L 117.612686 107.690544 
L 121.506774 105.419405 
L 129.760919 105.352607 
L 131.837917 101.511709 
L 133.698146 102.881072 
L 135.382607 99.674758 
L 136.921667 103.682651 
L 138.338445 102.613881 
L 139.650951 101.444912 
L 145.976756 109.560893 
L 153.181466 107.389952 
L 158.299475 107.089359 
L 162.271909 113.234794 
L 165.51896 113.602184 
L 168.265081 115.338937 
L 170.644371 116.073717 
L 172.743385 115.539332 
L 174.62125 117.877269 
L 186.979493 117.710273 
L 194.210844 116.574704 
L 199.342191 117.175888 
L 203.322634 117.944067 
L 206.575027 116.474507 
L 209.324965 116.274112 
L 211.707118 116.608103 
L 213.808359 115.806525 
L 215.688007 114.036372 
L 222.921736 115.338937 
L 228.054272 115.940121 
L 232.035429 115.672928 
L 235.288298 115.940121 
L 238.038575 115.23874 
L 240.420983 116.240713 
L 242.522422 116.975493 
L 244.402229 117.376282 
L 246.102724 117.008892 
L 247.655157 118.111062 
L 249.083259 118.545251 
L 250.405477 118.378255 
L 251.636433 118.077663 
L 252.787917 118.077663 
L 253.86957 118.278058 
L 254.889381 118.21126 
L 255.85404 118.378255 
L 256.769207 117.810471 
L 257.639715 118.478453 
L 258.469719 118.678847 
L 259.262822 118.344856 
L 260.022165 118.779044 
L 260.750507 118.779044 
L 261.450279 118.344856 
L 262.772506 118.645448 
L 264.003471 118.21126 
L 265.154962 118.678847 
L 265.703988 118.311457 
L 266.236622 118.344856 
L 266.753816 55.888537 
L 267.256439 56.255927 
L 267.74529 58.760864 
L 268.221103 55.988737 
L 268.684556 55.420953 
L 269.136275 54.385579 
L 269.576839 56.957311 
L 270.006787 54.886563 
L 270.426617 54.919963 
L 270.836794 52.682231 
L 271.237754 54.452379 
L 271.629901 57.090906 
L 272.013614 53.784395 
L 272.389248 52.682231 
L 272.757136 56.556521 
L 273.117592 54.084989 
L 273.47091 55.220553 
L 273.817367 54.285379 
L 274.157224 56.088932 
L 274.490729 54.786368 
L 274.818113 50.110494 
L 275.139599 54.485779 
L 275.455394 53.5506 
L 275.765698 51.680252 
L 276.070696 51.847247 
L 276.370568 53.7176 
L 276.665484 52.448431 
L 276.955603 54.151789 
L 277.241081 54.151789 
L 277.522063 55.354153 
L 278.339396 49.47591 
L 278.603726 53.584 
L 278.864198 52.615431 
L 279.120922 52.348236 
L 279.623546 50.277489 
L 279.869646 50.578078 
L 280.112398 50.611483 
L 280.351892 51.045668 
L 280.588213 51.045668 
L 280.821445 50.711678 
L 281.051667 48.306946 
L 281.278957 52.214636 
L 281.503387 52.715626 
L 281.72503 49.509315 
L 281.943953 49.54271 
L 282.160222 48.774531 
L 282.373901 50.511283 
L 282.585051 47.772557 
L 282.793732 51.112463 
L 283 51.379662 
L 283 51.379662 
" clip-path="url(#p08a424beda)" style="fill: none; stroke: #fd8c3b; stroke-opacity: 0.8; stroke-linecap: square"/>
   </g>
   <g id="line2d_58">
    <path d="M 51.355 119.079636 
L 63.722157 105.886992 
L 70.95648 119.079636 
L 76.089314 116.942094 
L 80.070649 119.079636 
L 83.323637 118.979439 
L 86.073999 117.276085 
L 88.456471 117.777071 
L 90.55796 106.721969 
L 92.437806 105.118812 
L 99.672129 105.085413 
L 100.823627 107.289754 
L 101.905294 105.085413 
L 103.889786 105.085413 
L 104.804963 105.285808 
L 105.675478 111.865431 
L 106.50549 114.570758 
L 107.2986 111.097251 
L 108.786298 106.087387 
L 109.486075 105.185611 
L 110.808312 105.185611 
L 111.434413 105.319207 
L 112.624323 108.859512 
L 117.612686 108.091332 
L 121.506774 105.419405 
L 127.409887 105.419405 
L 129.760919 105.619799 
L 131.837917 102.146294 
L 133.698146 103.148265 
L 135.382607 100.40954 
L 136.921667 104.85162 
L 138.338445 102.613881 
L 139.650951 102.179692 
L 145.976756 110.997054 
L 153.181466 108.792713 
L 158.299475 108.525522 
L 162.271909 114.637556 
L 165.51896 114.837951 
L 168.265081 116.574704 
L 170.644371 116.975493 
L 172.743385 116.574704 
L 174.62125 118.144462 
L 186.979493 118.010865 
L 194.210844 117.042291 
L 199.342191 117.276085 
L 203.322634 118.077663 
L 206.575027 116.541305 
L 209.324965 116.407708 
L 211.707118 116.641502 
L 213.808359 115.839924 
L 215.688007 114.069771 
L 222.921736 115.338937 
L 228.054272 115.940121 
L 232.035429 115.672928 
L 235.288298 115.940121 
L 238.038575 115.272139 
L 242.522422 117.042291 
L 244.402229 117.409681 
L 246.102724 117.008892 
L 247.655157 118.111062 
L 249.083259 118.545251 
L 250.405477 118.378255 
L 251.636433 118.077663 
L 252.787917 118.111062 
L 253.86957 118.311457 
L 254.889381 118.244659 
L 255.85404 118.411654 
L 256.769207 117.810471 
L 257.639715 118.545251 
L 258.469719 118.678847 
L 259.262822 118.411654 
L 260.022165 118.779044 
L 260.750507 118.812444 
L 261.450279 118.344856 
L 262.772506 118.645448 
L 264.003471 118.21126 
L 265.154962 118.712246 
L 265.703988 118.311457 
L 266.236622 118.344856 
L 266.753816 55.888537 
L 267.256439 56.189132 
L 267.74529 58.694064 
L 268.221103 56.022137 
L 268.684556 55.320753 
L 269.136275 54.385579 
L 269.576839 56.990711 
L 270.006787 54.719568 
L 270.426617 54.919963 
L 270.836794 52.648826 
L 271.237754 54.485779 
L 271.629901 57.124306 
L 272.013614 53.884589 
L 272.389248 52.715626 
L 272.757136 56.489726 
L 273.117592 53.951389 
L 273.47091 55.220553 
L 273.817367 54.251984 
L 274.157224 56.189132 
L 274.490729 54.819768 
L 274.818113 50.143889 
L 275.139599 54.519179 
L 275.455394 53.5506 
L 275.765698 51.646857 
L 276.070696 51.914047 
L 276.370568 53.817795 
L 276.665484 52.448431 
L 276.955603 54.151789 
L 277.241081 54.051589 
L 277.522063 55.320753 
L 278.339396 49.509315 
L 278.603726 53.5506 
L 278.864198 52.648826 
L 279.120922 52.448431 
L 279.623546 50.244094 
L 279.869646 50.678283 
L 280.112398 50.611483 
L 280.351892 51.079068 
L 280.588213 51.112463 
L 280.821445 50.811873 
L 281.051667 48.273541 
L 281.278957 52.248041 
L 281.503387 52.715626 
L 281.72503 49.47591 
L 281.943953 49.57611 
L 282.160222 48.741131 
L 282.373901 50.511283 
L 282.585051 47.705757 
L 282.793732 51.112463 
L 283 51.513257 
L 283 51.513257 
" clip-path="url(#p08a424beda)" style="fill: none; stroke: #fdc38d; stroke-opacity: 0.8; stroke-linecap: square"/>
   </g>
   <g id="patch_3">
    <path d="M 51.355 124.512 
L 51.355 5 
" style="fill: none; stroke: #000000; stroke-width: 0.8; stroke-linejoin: miter; stroke-linecap: square"/>
   </g>
   <g id="patch_4">
    <path d="M 283 124.512 
L 283 5 
" style="fill: none; stroke: #000000; stroke-width: 0.8; stroke-linejoin: miter; stroke-linecap: square"/>
   </g>
   <g id="patch_5">
    <path d="M 51.355 124.512 
L 283 124.512 
" style="fill: none; stroke: #000000; stroke-width: 0.8; stroke-linejoin: miter; stroke-linecap: square"/>
   </g>
   <g id="patch_6">
    <path d="M 51.355 5 
L 283 5 
" style="fill: none; stroke: #000000; stroke-width: 0.8; stroke-linejoin: miter; stroke-linecap: square"/>
   </g>
   <g id="legend_1">
    <g id="patch_7">
     <path d="M 57.655 65.04125 
L 145.405 65.04125 
Q 147.205 65.04125 147.205 63.24125 
L 147.205 11.3 
Q 147.205 9.5 145.405 9.5 
L 57.655 9.5 
Q 55.855 9.5 55.855 11.3 
L 55.855 63.24125 
Q 55.855 65.04125 57.655 65.04125 
z
" style="fill: #ffffff; opacity: 0.8; stroke: #cccccc; stroke-linejoin: miter"/>
    </g>
    <g id="line2d_59">
     <path d="M 59.455 16.788594 
L 68.455 16.788594 
L 77.455 16.788594 
" style="fill: none; stroke: #9e3303; stroke-opacity: 0.8; stroke-linecap: square"/>
    </g>
    <g id="text_7">
     <!-- Clean Test -->
     <g transform="translate(84.655 19.938594)scale(0.09 -0.09)">
      <defs>
       <path id="DejaVuSans-43" d="M 4122 4306 
L 4122 3641 
Q 3803 3938 3442 4084 
Q 3081 4231 2675 4231 
Q 1875 4231 1450 3742 
Q 1025 3253 1025 2328 
Q 1025 1406 1450 917 
Q 1875 428 2675 428 
Q 3081 428 3442 575 
Q 3803 722 4122 1019 
L 4122 359 
Q 3791 134 3420 21 
Q 3050 -91 2638 -91 
Q 1578 -91 968 557 
Q 359 1206 359 2328 
Q 359 3453 968 4101 
Q 1578 4750 2638 4750 
Q 3056 4750 3426 4639 
Q 3797 4528 4122 4306 
z
" transform="scale(0.015625)"/>
       <path id="DejaVuSans-6c" d="M 603 4863 
L 1178 4863 
L 1178 0 
L 603 0 
L 603 4863 
z
" transform="scale(0.015625)"/>
       <path id="DejaVuSans-65" d="M 3597 1894 
L 3597 1613 
L 953 1613 
Q 991 1019 1311 708 
Q 1631 397 2203 397 
Q 2534 397 2845 478 
Q 3156 559 3463 722 
L 3463 178 
Q 3153 47 2828 -22 
Q 2503 -91 2169 -91 
Q 1331 -91 842 396 
Q 353 884 353 1716 
Q 353 2575 817 3079 
Q 1281 3584 2069 3584 
Q 2775 3584 3186 3129 
Q 3597 2675 3597 1894 
z
M 3022 2063 
Q 3016 2534 2758 2815 
Q 2500 3097 2075 3097 
Q 1594 3097 1305 2825 
Q 1016 2553 972 2059 
L 3022 2063 
z
" transform="scale(0.015625)"/>
       <path id="DejaVuSans-6e" d="M 3513 2113 
L 3513 0 
L 2938 0 
L 2938 2094 
Q 2938 2591 2744 2837 
Q 2550 3084 2163 3084 
Q 1697 3084 1428 2787 
Q 1159 2491 1159 1978 
L 1159 0 
L 581 0 
L 581 3500 
L 1159 3500 
L 1159 2956 
Q 1366 3272 1645 3428 
Q 1925 3584 2291 3584 
Q 2894 3584 3203 3211 
Q 3513 2838 3513 2113 
z
" transform="scale(0.015625)"/>
       <path id="DejaVuSans-20" transform="scale(0.015625)"/>
       <path id="DejaVuSans-54" d="M -19 4666 
L 3928 4666 
L 3928 4134 
L 2272 4134 
L 2272 0 
L 1638 0 
L 1638 4134 
L -19 4134 
L -19 4666 
z
" transform="scale(0.015625)"/>
       <path id="DejaVuSans-73" d="M 2834 3397 
L 2834 2853 
Q 2591 2978 2328 3040 
Q 2066 3103 1784 3103 
Q 1356 3103 1142 2972 
Q 928 2841 928 2578 
Q 928 2378 1081 2264 
Q 1234 2150 1697 2047 
L 1894 2003 
Q 2506 1872 2764 1633 
Q 3022 1394 3022 966 
Q 3022 478 2636 193 
Q 2250 -91 1575 -91 
Q 1294 -91 989 -36 
Q 684 19 347 128 
L 347 722 
Q 666 556 975 473 
Q 1284 391 1588 391 
Q 1994 391 2212 530 
Q 2431 669 2431 922 
Q 2431 1156 2273 1281 
Q 2116 1406 1581 1522 
L 1381 1569 
Q 847 1681 609 1914 
Q 372 2147 372 2553 
Q 372 3047 722 3315 
Q 1072 3584 1716 3584 
Q 2034 3584 2315 3537 
Q 2597 3491 2834 3397 
z
" transform="scale(0.015625)"/>
       <path id="DejaVuSans-74" d="M 1172 4494 
L 1172 3500 
L 2356 3500 
L 2356 3053 
L 1172 3053 
L 1172 1153 
Q 1172 725 1289 603 
Q 1406 481 1766 481 
L 2356 481 
L 2356 0 
L 1766 0 
Q 1100 0 847 248 
Q 594 497 594 1153 
L 594 3053 
L 172 3053 
L 172 3500 
L 594 3500 
L 594 4494 
L 1172 4494 
z
" transform="scale(0.015625)"/>
      </defs>
      <use xlink:href="#DejaVuSans-43"/>
      <use xlink:href="#DejaVuSans-6c" x="69.824219"/>
      <use xlink:href="#DejaVuSans-65" x="97.607422"/>
      <use xlink:href="#DejaVuSans-61" x="159.130859"/>
      <use xlink:href="#DejaVuSans-6e" x="220.410156"/>
      <use xlink:href="#DejaVuSans-20" x="283.789062"/>
      <use xlink:href="#DejaVuSans-54" x="315.576172"/>
      <use xlink:href="#DejaVuSans-65" x="359.660156"/>
      <use xlink:href="#DejaVuSans-73" x="421.183594"/>
      <use xlink:href="#DejaVuSans-74" x="473.283203"/>
     </g>
    </g>
    <g id="line2d_60">
     <path d="M 59.455 29.998906 
L 68.455 29.998906 
L 77.455 29.998906 
" style="fill: none; stroke: #e25508; stroke-opacity: 0.8; stroke-linecap: square"/>
    </g>
    <g id="text_8">
     <!-- Adv. $\epsilon=$0.06 -->
     <g transform="translate(84.655 33.148906)scale(0.09 -0.09)">
      <defs>
       <path id="DejaVuSans-64" d="M 2906 2969 
L 2906 4863 
L 3481 4863 
L 3481 0 
L 2906 0 
L 2906 525 
Q 2725 213 2448 61 
Q 2172 -91 1784 -91 
Q 1150 -91 751 415 
Q 353 922 353 1747 
Q 353 2572 751 3078 
Q 1150 3584 1784 3584 
Q 2172 3584 2448 3432 
Q 2725 3281 2906 2969 
z
M 947 1747 
Q 947 1113 1208 752 
Q 1469 391 1925 391 
Q 2381 391 2643 752 
Q 2906 1113 2906 1747 
Q 2906 2381 2643 2742 
Q 2381 3103 1925 3103 
Q 1469 3103 1208 2742 
Q 947 2381 947 1747 
z
" transform="scale(0.015625)"/>
       <path id="DejaVuSans-76" d="M 191 3500 
L 800 3500 
L 1894 563 
L 2988 3500 
L 3597 3500 
L 2284 0 
L 1503 0 
L 191 3500 
z
" transform="scale(0.015625)"/>
       <path id="DejaVuSans-2e" d="M 684 794 
L 1344 794 
L 1344 0 
L 684 0 
L 684 794 
z
" transform="scale(0.015625)"/>
       <path id="DejaVuSans-Oblique-3b5" d="M 1263 1888 
Q 925 1963 778 2166 
Q 669 2309 669 2503 
Q 669 3034 1175 3344 
Q 1575 3588 2188 3588 
Q 2425 3588 2684 3550 
Q 2944 3513 3234 3438 
L 3134 2916 
Q 2847 3006 2606 3047 
Q 2359 3088 2138 3088 
Q 1766 3088 1522 2944 
Q 1228 2772 1228 2522 
Q 1228 2356 1381 2241 
Q 1563 2103 1925 2103 
L 2409 2103 
L 2319 1628 
L 1856 1628 
Q 1425 1628 1172 1469 
Q 828 1253 828 916 
Q 828 703 1013 563 
Q 1244 388 1716 388 
Q 2006 388 2284 444 
Q 2563 503 2806 619 
L 2700 84 
Q 2403 -3 2131 -47 
Q 1859 -91 1609 -91 
Q 866 -91 516 194 
Q 250 413 250 781 
Q 250 1278 600 1584 
Q 859 1813 1263 1888 
z
" transform="scale(0.015625)"/>
       <path id="DejaVuSans-3d" d="M 678 2906 
L 4684 2906 
L 4684 2381 
L 678 2381 
L 678 2906 
z
M 678 1631 
L 4684 1631 
L 4684 1100 
L 678 1100 
L 678 1631 
z
" transform="scale(0.015625)"/>
      </defs>
      <use xlink:href="#DejaVuSans-41" transform="translate(0 0.015625)"/>
      <use xlink:href="#DejaVuSans-64" transform="translate(68.408203 0.015625)"/>
      <use xlink:href="#DejaVuSans-76" transform="translate(131.884766 0.015625)"/>
      <use xlink:href="#DejaVuSans-2e" transform="translate(191.064453 0.015625)"/>
      <use xlink:href="#DejaVuSans-20" transform="translate(222.851562 0.015625)"/>
      <use xlink:href="#DejaVuSans-Oblique-3b5" transform="translate(254.638672 0.015625)"/>
      <use xlink:href="#DejaVuSans-3d" transform="translate(328.173828 0.015625)"/>
      <use xlink:href="#DejaVuSans-30" transform="translate(431.445312 0.015625)"/>
      <use xlink:href="#DejaVuSans-2e" transform="translate(495.068359 0.015625)"/>
      <use xlink:href="#DejaVuSans-30" transform="translate(526.855469 0.015625)"/>
      <use xlink:href="#DejaVuSans-36" transform="translate(590.478516 0.015625)"/>
     </g>
    </g>
    <g id="line2d_61">
     <path d="M 59.455 43.209219 
L 68.455 43.209219 
L 77.455 43.209219 
" style="fill: none; stroke: #fd8c3b; stroke-opacity: 0.8; stroke-linecap: square"/>
    </g>
    <g id="text_9">
     <!-- Adv. $\epsilon=$0.13 -->
     <g transform="translate(84.655 46.359219)scale(0.09 -0.09)">
      <defs>
       <path id="DejaVuSans-31" d="M 794 531 
L 1825 531 
L 1825 4091 
L 703 3866 
L 703 4441 
L 1819 4666 
L 2450 4666 
L 2450 531 
L 3481 531 
L 3481 0 
L 794 0 
L 794 531 
z
" transform="scale(0.015625)"/>
       <path id="DejaVuSans-33" d="M 2597 2516 
Q 3050 2419 3304 2112 
Q 3559 1806 3559 1356 
Q 3559 666 3084 287 
Q 2609 -91 1734 -91 
Q 1441 -91 1130 -33 
Q 819 25 488 141 
L 488 750 
Q 750 597 1062 519 
Q 1375 441 1716 441 
Q 2309 441 2620 675 
Q 2931 909 2931 1356 
Q 2931 1769 2642 2001 
Q 2353 2234 1838 2234 
L 1294 2234 
L 1294 2753 
L 1863 2753 
Q 2328 2753 2575 2939 
Q 2822 3125 2822 3475 
Q 2822 3834 2567 4026 
Q 2313 4219 1838 4219 
Q 1578 4219 1281 4162 
Q 984 4106 628 3988 
L 628 4550 
Q 988 4650 1302 4700 
Q 1616 4750 1894 4750 
Q 2613 4750 3031 4423 
Q 3450 4097 3450 3541 
Q 3450 3153 3228 2886 
Q 3006 2619 2597 2516 
z
" transform="scale(0.015625)"/>
      </defs>
      <use xlink:href="#DejaVuSans-41" transform="translate(0 0.015625)"/>
      <use xlink:href="#DejaVuSans-64" transform="translate(68.408203 0.015625)"/>
      <use xlink:href="#DejaVuSans-76" transform="translate(131.884766 0.015625)"/>
      <use xlink:href="#DejaVuSans-2e" transform="translate(191.064453 0.015625)"/>
      <use xlink:href="#DejaVuSans-20" transform="translate(222.851562 0.015625)"/>
      <use xlink:href="#DejaVuSans-Oblique-3b5" transform="translate(254.638672 0.015625)"/>
      <use xlink:href="#DejaVuSans-3d" transform="translate(328.173828 0.015625)"/>
      <use xlink:href="#DejaVuSans-30" transform="translate(431.445312 0.015625)"/>
      <use xlink:href="#DejaVuSans-2e" transform="translate(495.068359 0.015625)"/>
      <use xlink:href="#DejaVuSans-31" transform="translate(526.855469 0.015625)"/>
      <use xlink:href="#DejaVuSans-33" transform="translate(590.478516 0.015625)"/>
     </g>
    </g>
    <g id="line2d_62">
     <path d="M 59.455 56.419531 
L 68.455 56.419531 
L 77.455 56.419531 
" style="fill: none; stroke: #fdc38d; stroke-opacity: 0.8; stroke-linecap: square"/>
    </g>
    <g id="text_10">
     <!-- Adv. $\epsilon=$0.20 -->
     <g transform="translate(84.655 59.569531)scale(0.09 -0.09)">
      <use xlink:href="#DejaVuSans-41" transform="translate(0 0.015625)"/>
      <use xlink:href="#DejaVuSans-64" transform="translate(68.408203 0.015625)"/>
      <use xlink:href="#DejaVuSans-76" transform="translate(131.884766 0.015625)"/>
      <use xlink:href="#DejaVuSans-2e" transform="translate(191.064453 0.015625)"/>
      <use xlink:href="#DejaVuSans-20" transform="translate(222.851562 0.015625)"/>
      <use xlink:href="#DejaVuSans-Oblique-3b5" transform="translate(254.638672 0.015625)"/>
      <use xlink:href="#DejaVuSans-3d" transform="translate(328.173828 0.015625)"/>
      <use xlink:href="#DejaVuSans-30" transform="translate(431.445312 0.015625)"/>
      <use xlink:href="#DejaVuSans-2e" transform="translate(495.068359 0.015625)"/>
      <use xlink:href="#DejaVuSans-32" transform="translate(521.355469 0.015625)"/>
      <use xlink:href="#DejaVuSans-30" transform="translate(584.978516 0.015625)"/>
     </g>
    </g>
   </g>
  </g>
  <g id="axes_2">
   <g id="patch_8">
    <path d="M 51.355 252.524 
L 283 252.524 
L 283 133.012 
L 51.355 133.012 
z
" style="fill: #ffffff"/>
   </g>
   <g id="PolyCollection_1">
    <defs>
     <path id="m95d40d1527" d="M 51.355 -40.97879 
L 51.355 -40.97865 
L 63.722157 -40.978516 
L 70.95648 -40.97869 
L 76.089314 -40.978661 
L 80.070649 -40.978561 
L 83.323637 -40.978455 
L 86.073999 -40.978416 
L 88.456471 -40.978341 
L 90.55796 -40.978323 
L 92.437806 -40.978315 
L 94.138333 -40.978319 
L 95.690794 -40.97827 
L 97.118918 -40.978253 
L 98.441155 -40.978258 
L 99.672129 -40.978257 
L 100.823627 -40.978195 
L 101.905294 -40.978193 
L 102.925117 -40.97823 
L 103.889786 -40.978277 
L 104.804963 -40.978286 
L 105.675478 -40.978219 
L 106.50549 -40.97824 
L 107.2986 -40.978254 
L 108.05795 -40.97822 
L 108.786298 -40.978216 
L 109.486075 -40.978216 
L 110.15944 -40.978199 
L 110.808312 -40.978243 
L 111.434413 -40.978176 
L 112.039286 -40.97822 
L 112.624323 -40.978199 
L 117.612686 -40.978163 
L 121.506774 -40.978154 
L 124.701359 -40.978168 
L 127.409887 -40.978219 
L 129.760919 -40.978177 
L 131.837917 -40.978166 
L 133.698146 -40.978192 
L 135.382607 -40.978185 
L 136.921667 -40.978211 
L 138.338445 -40.978227 
L 139.650951 -40.978166 
L 145.976756 -40.978185 
L 153.181466 -40.97818 
L 158.299475 -40.978175 
L 162.271909 -40.978157 
L 165.51896 -40.97816 
L 168.265081 -40.978139 
L 170.644371 -40.978157 
L 172.743385 -40.978133 
L 174.62125 -40.978126 
L 186.979493 -40.958886 
L 194.210844 -40.989237 
L 199.342191 -41.591645 
L 203.322634 -41.531925 
L 206.575027 -42.141147 
L 209.324965 -45.371919 
L 211.707118 -42.708991 
L 213.808359 -45.381085 
L 215.688007 -44.589837 
L 222.921736 -47.113364 
L 228.054272 -52.848069 
L 232.035429 -61.88436 
L 235.288298 -68.451444 
L 238.038575 -74.173059 
L 240.420983 -82.777353 
L 242.522422 -97.081296 
L 244.402229 -107.848005 
L 246.102724 -113.7473 
L 247.655157 -107.653912 
L 249.083259 -90.559958 
L 250.405477 -109.819001 
L 251.636433 -122.815392 
L 252.787917 -125.439498 
L 253.86957 -123.79258 
L 254.889381 -125.085257 
L 255.85404 -124.137315 
L 256.769207 -121.639246 
L 257.639715 -118.101663 
L 258.469719 -123.276947 
L 259.262822 -132.506999 
L 260.022165 -127.977134 
L 260.750507 -126.896811 
L 261.450279 -119.665331 
L 262.123638 -112.092414 
L 262.772506 -87.4378 
L 263.398602 -102.075247 
L 264.003471 -143.403149 
L 264.588504 -122.998214 
L 265.154962 -132.761084 
L 265.703988 -107.858651 
L 266.236622 -94.842289 
L 266.753816 -138.203657 
L 267.256439 -111.672429 
L 267.74529 -71.370381 
L 268.221103 -74.217483 
L 268.684556 -74.031438 
L 269.136275 -67.594349 
L 269.576839 -74.365662 
L 270.006787 -72.861336 
L 270.426617 -61.968766 
L 270.836794 -72.483294 
L 271.237754 -73.865725 
L 271.629901 -64.88046 
L 272.013614 -70.863155 
L 272.389248 -72.935554 
L 272.757136 -71.507399 
L 273.117592 -67.719592 
L 273.47091 -57.396142 
L 273.817367 -54.348606 
L 274.157224 -58.371526 
L 274.490729 -50.096027 
L 274.818113 -44.727407 
L 275.139599 -47.769623 
L 275.455394 -44.137831 
L 275.765698 -50.882311 
L 276.070696 -42.478589 
L 276.370568 -48.050181 
L 276.665484 -47.653072 
L 276.955603 -46.430411 
L 277.241081 -50.845599 
L 277.522063 -44.191694 
L 277.798688 -46.717364 
L 278.07109 -42.773204 
L 278.339396 -42.285812 
L 278.603726 -42.639697 
L 278.864198 -41.282422 
L 279.120922 -41.800457 
L 279.374004 -41.009049 
L 279.623546 -41.161946 
L 279.869646 -40.913987 
L 280.112398 -41.255069 
L 280.351892 -41.224392 
L 280.588213 -42.446545 
L 280.821445 -41.886732 
L 281.051667 -43.324498 
L 281.278957 -40.986258 
L 281.503387 -41.237906 
L 281.72503 -41.055157 
L 281.943953 -40.9315 
L 282.160222 -40.986501 
L 282.373901 -41.278616 
L 282.585051 -40.930034 
L 282.793732 -40.986922 
L 283 -41.596024 
L 283 -42.740745 
L 283 -42.740745 
L 282.793732 -41.581802 
L 282.585051 -41.358816 
L 282.373901 -42.19348 
L 282.160222 -41.564941 
L 281.943953 -41.348955 
L 281.72503 -41.723438 
L 281.503387 -42.091371 
L 281.278957 -41.553665 
L 281.051667 -45.175279 
L 280.821445 -43.186919 
L 280.588213 -43.996286 
L 280.351892 -42.098906 
L 280.112398 -42.159878 
L 279.869646 -41.123425 
L 279.623546 -41.962222 
L 279.374004 -41.619987 
L 279.120922 -43.034841 
L 278.864198 -42.206374 
L 278.603726 -44.862399 
L 278.339396 -44.234022 
L 278.07109 -44.577853 
L 277.798688 -49.334061 
L 277.522063 -46.428798 
L 277.241081 -54.371359 
L 276.955603 -49.466311 
L 276.665484 -51.427749 
L 276.370568 -50.943159 
L 276.070696 -44.467512 
L 275.765698 -54.104862 
L 275.455394 -46.968938 
L 275.139599 -50.939813 
L 274.818113 -47.043583 
L 274.490729 -53.093438 
L 274.157224 -61.917421 
L 273.817367 -57.701751 
L 273.47091 -61.712491 
L 273.117592 -70.96683 
L 272.757136 -74.181147 
L 272.389248 -75.502157 
L 272.013614 -73.75445 
L 271.629901 -68.329655 
L 271.237754 -76.311213 
L 270.836794 -76.069008 
L 270.426617 -65.473688 
L 270.006787 -76.118434 
L 269.576839 -76.662339 
L 269.136275 -70.619354 
L 268.684556 -77.629465 
L 268.221103 -76.763463 
L 267.74529 -76.202525 
L 267.256439 -118.71316 
L 266.753816 -143.745217 
L 266.236622 -101.82879 
L 265.703988 -114.973344 
L 265.154962 -138.439676 
L 264.588504 -129.66257 
L 264.003471 -146.942958 
L 263.398602 -109.062032 
L 262.772506 -94.472693 
L 262.123638 -118.627186 
L 261.450279 -125.814951 
L 260.750507 -131.040341 
L 260.022165 -130.689239 
L 259.262822 -135.705188 
L 258.469719 -126.280318 
L 257.639715 -123.930036 
L 256.769207 -126.155514 
L 255.85404 -126.821745 
L 254.889381 -127.568896 
L 253.86957 -125.747981 
L 252.787917 -127.503567 
L 251.636433 -124.791197 
L 250.405477 -112.093167 
L 249.083259 -93.395994 
L 247.655157 -110.013523 
L 246.102724 -115.594738 
L 244.402229 -110.38852 
L 242.522422 -99.282477 
L 240.420983 -85.313211 
L 238.038575 -76.760216 
L 235.288298 -71.063041 
L 232.035429 -64.201112 
L 228.054272 -54.789959 
L 222.921736 -48.366813 
L 215.688007 -45.503934 
L 213.808359 -46.751873 
L 211.707118 -43.221052 
L 209.324965 -47.03918 
L 206.575027 -42.590311 
L 203.322634 -41.898833 
L 199.342191 -42.17739 
L 194.210844 -41.047627 
L 186.979493 -41.029276 
L 174.62125 -40.9782 
L 172.743385 -40.978211 
L 170.644371 -40.978236 
L 168.265081 -40.978217 
L 165.51896 -40.978243 
L 162.271909 -40.978238 
L 158.299475 -40.978257 
L 153.181466 -40.978262 
L 145.976756 -40.978269 
L 139.650951 -40.978248 
L 138.338445 -40.978316 
L 136.921667 -40.9783 
L 135.382607 -40.978269 
L 133.698146 -40.978278 
L 131.837917 -40.978246 
L 129.760919 -40.978261 
L 127.409887 -40.978308 
L 124.701359 -40.978248 
L 121.506774 -40.978233 
L 117.612686 -40.97824 
L 112.624323 -40.978282 
L 112.039286 -40.978309 
L 111.434413 -40.978258 
L 110.808312 -40.978335 
L 110.15944 -40.978287 
L 109.486075 -40.978305 
L 108.786298 -40.978307 
L 108.05795 -40.978309 
L 107.2986 -40.978348 
L 106.50549 -40.97833 
L 105.675478 -40.978307 
L 104.804963 -40.978393 
L 103.889786 -40.978374 
L 102.925117 -40.978323 
L 101.905294 -40.978275 
L 100.823627 -40.978281 
L 99.672129 -40.978349 
L 98.441155 -40.978348 
L 97.118918 -40.97835 
L 95.690794 -40.978367 
L 94.138333 -40.978423 
L 92.437806 -40.978419 
L 90.55796 -40.978428 
L 88.456471 -40.978446 
L 86.073999 -40.978533 
L 83.323637 -40.978582 
L 80.070649 -40.978689 
L 76.089314 -40.978807 
L 70.95648 -40.978833 
L 63.722157 -40.97865 
L 51.355 -40.97879 
z
" style="stroke: #006428; stroke-opacity: 0.1"/>
    </defs>
    <g clip-path="url(#pdd74d16eb3)">
     <use xlink:href="#m95d40d1527" x="0" y="288" style="fill: #006428; fill-opacity: 0.1; stroke: #006428; stroke-opacity: 0.1"/>
    </g>
   </g>
   <g id="PolyCollection_2">
    <defs>
     <path id="m78fb1567c2" d="M 51.355 -40.978774 
L 51.355 -40.97863 
L 63.722157 -40.978565 
L 70.95648 -40.97873 
L 76.089314 -40.978684 
L 80.070649 -40.978616 
L 83.323637 -40.978487 
L 86.073999 -40.978436 
L 88.456471 -40.978343 
L 90.55796 -40.978376 
L 92.437806 -40.97831 
L 94.138333 -40.97829 
L 95.690794 -40.978305 
L 97.118918 -40.978291 
L 98.441155 -40.978248 
L 99.672129 -40.978237 
L 100.823627 -40.978221 
L 101.905294 -40.97821 
L 102.925117 -40.978236 
L 103.889786 -40.978267 
L 104.804963 -40.978255 
L 105.675478 -40.97828 
L 106.50549 -40.978231 
L 107.2986 -40.978267 
L 108.05795 -40.978218 
L 108.786298 -40.978247 
L 109.486075 -40.978237 
L 110.15944 -40.97822 
L 110.808312 -40.978228 
L 111.434413 -40.978182 
L 112.039286 -40.978201 
L 112.624323 -40.978233 
L 117.612686 -40.978172 
L 121.506774 -40.978153 
L 124.701359 -40.97821 
L 127.409887 -40.978203 
L 129.760919 -40.978206 
L 131.837917 -40.978197 
L 133.698146 -40.978186 
L 135.382607 -40.978201 
L 136.921667 -40.978178 
L 138.338445 -40.978221 
L 139.650951 -40.978186 
L 145.976756 -40.97817 
L 153.181466 -40.978191 
L 158.299475 -40.978198 
L 162.271909 -40.978168 
L 165.51896 -40.978159 
L 168.265081 -40.978169 
L 170.644371 -40.978152 
L 172.743385 -40.978142 
L 174.62125 -40.978168 
L 186.979493 -40.974977 
L 194.210844 -40.978577 
L 199.342191 -41.029634 
L 203.322634 -41.086246 
L 206.575027 -41.645641 
L 209.324965 -42.67045 
L 211.707118 -42.073291 
L 213.808359 -42.887457 
L 215.688007 -44.634177 
L 222.921736 -45.81856 
L 228.054272 -49.942406 
L 232.035429 -59.65443 
L 235.288298 -62.372159 
L 238.038575 -71.323947 
L 240.420983 -78.117658 
L 242.522422 -95.079245 
L 244.402229 -102.249172 
L 246.102724 -113.356191 
L 247.655157 -106.503776 
L 249.083259 -91.437526 
L 250.405477 -111.103535 
L 251.636433 -120.71065 
L 252.787917 -124.355051 
L 253.86957 -123.845104 
L 254.889381 -123.640476 
L 255.85404 -120.502467 
L 256.769207 -116.261521 
L 257.639715 -121.93852 
L 258.469719 -121.987568 
L 259.262822 -131.231619 
L 260.022165 -127.349133 
L 260.750507 -123.758986 
L 261.450279 -113.601676 
L 262.123638 -105.91666 
L 262.772506 -86.732467 
L 263.398602 -100.594935 
L 264.003471 -146.531028 
L 264.588504 -122.087668 
L 265.154962 -124.440224 
L 265.703988 -104.468271 
L 266.236622 -91.658767 
L 266.753816 -136.70817 
L 267.256439 -109.068663 
L 267.74529 -69.861302 
L 268.221103 -73.965152 
L 268.684556 -76.369075 
L 269.136275 -68.190793 
L 269.576839 -75.44311 
L 270.006787 -75.504171 
L 270.426617 -57.993922 
L 270.836794 -72.781575 
L 271.237754 -73.054408 
L 271.629901 -63.482117 
L 272.013614 -68.503323 
L 272.389248 -73.69535 
L 272.757136 -72.368588 
L 273.117592 -68.293581 
L 273.47091 -57.587213 
L 273.817367 -52.687495 
L 274.157224 -58.058657 
L 274.490729 -47.495087 
L 274.818113 -43.938173 
L 275.139599 -46.600997 
L 275.455394 -42.874979 
L 275.765698 -48.098481 
L 276.070696 -42.011051 
L 276.370568 -47.673053 
L 276.665484 -47.318693 
L 276.955603 -45.141386 
L 277.241081 -46.576041 
L 277.522063 -44.537118 
L 277.798688 -45.724821 
L 278.07109 -42.097311 
L 278.339396 -42.097252 
L 278.603726 -41.885984 
L 278.864198 -41.137625 
L 279.120922 -41.718669 
L 279.374004 -41.107728 
L 279.623546 -41.166465 
L 279.869646 -40.908364 
L 280.112398 -41.245826 
L 280.351892 -41.108697 
L 280.588213 -42.352059 
L 280.821445 -41.305436 
L 281.051667 -42.13023 
L 281.278957 -40.985579 
L 281.503387 -41.360488 
L 281.72503 -41.28186 
L 281.943953 -40.930334 
L 282.160222 -40.930874 
L 282.373901 -41.457512 
L 282.585051 -40.911175 
L 282.793732 -40.965554 
L 283 -41.586731 
L 283 -42.716566 
L 283 -42.716566 
L 282.793732 -41.499491 
L 282.585051 -41.207977 
L 282.373901 -42.498873 
L 282.160222 -41.35351 
L 281.943953 -41.358743 
L 281.72503 -42.20375 
L 281.503387 -42.323379 
L 281.278957 -41.5308 
L 281.051667 -43.546101 
L 280.821445 -42.233918 
L 280.588213 -43.87054 
L 280.351892 -41.855708 
L 280.112398 -42.124776 
L 279.869646 -41.21769 
L 279.623546 -41.985158 
L 279.374004 -41.847413 
L 279.120922 -42.925189 
L 278.864198 -41.921827 
L 278.603726 -43.470749 
L 278.339396 -43.86554 
L 278.07109 -43.552896 
L 277.798688 -48.140392 
L 277.522063 -46.923443 
L 277.241081 -49.459086 
L 276.955603 -47.851031 
L 276.665484 -51.159262 
L 276.370568 -50.491067 
L 276.070696 -43.885065 
L 275.765698 -50.971248 
L 275.455394 -45.068862 
L 275.139599 -49.434766 
L 274.818113 -46.064906 
L 274.490729 -50.173296 
L 274.157224 -61.618117 
L 273.817367 -55.918734 
L 273.47091 -62.025977 
L 273.117592 -71.603533 
L 272.757136 -74.994716 
L 272.389248 -76.177508 
L 272.013614 -71.587347 
L 271.629901 -66.974515 
L 271.237754 -75.66081 
L 270.836794 -76.530864 
L 270.426617 -61.643997 
L 270.006787 -78.57424 
L 269.576839 -77.716996 
L 269.136275 -71.415604 
L 268.684556 -80.05997 
L 268.221103 -76.413683 
L 267.74529 -74.987325 
L 267.256439 -116.060001 
L 266.753816 -142.179019 
L 266.236622 -98.348148 
L 265.703988 -111.547625 
L 265.154962 -130.719638 
L 264.588504 -128.792192 
L 264.003471 -149.555636 
L 263.398602 -107.513128 
L 262.772506 -93.727072 
L 262.123638 -112.727918 
L 261.450279 -120.049753 
L 260.750507 -128.122879 
L 260.022165 -130.140037 
L 259.262822 -134.276792 
L 258.469719 -124.556235 
L 257.639715 -127.236861 
L 256.769207 -121.34581 
L 255.85404 -123.632012 
L 254.889381 -125.601034 
L 253.86957 -125.752121 
L 252.787917 -125.832312 
L 251.636433 -122.109113 
L 250.405477 -113.051777 
L 249.083259 -93.865333 
L 247.655157 -108.719796 
L 246.102724 -115.290019 
L 244.402229 -104.170107 
L 242.522422 -97.054313 
L 240.420983 -80.146412 
L 238.038575 -73.362266 
L 235.288298 -64.064787 
L 232.035429 -61.30482 
L 228.054272 -50.923292 
L 222.921736 -46.841862 
L 215.688007 -45.457898 
L 213.808359 -43.411257 
L 211.707118 -42.437569 
L 209.324965 -43.182783 
L 206.575027 -41.937166 
L 203.322634 -41.160033 
L 199.342191 -41.123003 
L 194.210844 -41.003895 
L 186.979493 -40.988806 
L 174.62125 -40.978247 
L 172.743385 -40.978218 
L 170.644371 -40.978226 
L 168.265081 -40.97825 
L 165.51896 -40.978238 
L 162.271909 -40.978248 
L 158.299475 -40.978286 
L 153.181466 -40.978277 
L 145.976756 -40.978251 
L 139.650951 -40.978266 
L 138.338445 -40.97831 
L 136.921667 -40.978262 
L 135.382607 -40.978286 
L 133.698146 -40.978266 
L 131.837917 -40.978283 
L 129.760919 -40.978294 
L 127.409887 -40.978289 
L 124.701359 -40.978296 
L 121.506774 -40.978228 
L 117.612686 -40.978252 
L 112.624323 -40.978324 
L 112.039286 -40.97829 
L 111.434413 -40.978265 
L 110.808312 -40.978317 
L 110.15944 -40.978309 
L 109.486075 -40.978328 
L 108.786298 -40.978339 
L 108.05795 -40.978309 
L 107.2986 -40.978363 
L 106.50549 -40.978322 
L 105.675478 -40.978379 
L 104.804963 -40.978349 
L 103.889786 -40.978363 
L 102.925117 -40.978327 
L 101.905294 -40.978297 
L 100.823627 -40.978312 
L 99.672129 -40.978325 
L 98.441155 -40.97834 
L 97.118918 -40.978391 
L 95.690794 -40.978409 
L 94.138333 -40.978393 
L 92.437806 -40.97841 
L 90.55796 -40.978488 
L 88.456471 -40.978452 
L 86.073999 -40.97856 
L 83.323637 -40.978612 
L 80.070649 -40.978755 
L 76.089314 -40.978827 
L 70.95648 -40.978882 
L 63.722157 -40.978695 
L 51.355 -40.978774 
z
" style="stroke: #9e3303; stroke-opacity: 0.1"/>
    </defs>
    <g clip-path="url(#pdd74d16eb3)">
     <use xlink:href="#m78fb1567c2" x="0" y="288" style="fill: #9e3303; fill-opacity: 0.1; stroke: #9e3303; stroke-opacity: 0.1"/>
    </g>
   </g>
   <g id="PolyCollection_3">
    <defs>
     <path id="mc6c3fab223" d="M 51.355 -40.977996 
L 51.355 -40.977972 
L 63.722157 -40.977968 
L 70.95648 -40.977976 
L 76.089314 -40.977973 
L 80.070649 -40.977978 
L 83.323637 -40.977973 
L 86.073999 -40.977966 
L 88.456471 -40.977963 
L 90.55796 -40.977967 
L 92.437806 -40.977968 
L 94.138333 -40.977971 
L 95.690794 -40.977968 
L 97.118918 -40.977968 
L 98.441155 -40.977966 
L 99.672129 -40.977964 
L 100.823627 -40.977968 
L 101.905294 -40.977967 
L 102.925117 -40.977966 
L 103.889786 -40.977965 
L 104.804963 -40.977962 
L 105.675478 -40.977962 
L 106.50549 -40.977966 
L 107.2986 -40.977969 
L 108.05795 -40.977963 
L 108.786298 -40.977965 
L 109.486075 -40.977964 
L 110.15944 -40.977963 
L 110.808312 -40.977966 
L 111.434413 -40.977964 
L 112.039286 -40.977964 
L 112.624323 -40.977964 
L 117.612686 -40.977968 
L 121.506774 -40.977968 
L 124.701359 -40.977964 
L 127.409887 -40.977963 
L 129.760919 -40.977964 
L 131.837917 -40.977966 
L 133.698146 -40.977969 
L 135.382607 -40.977965 
L 136.921667 -40.977962 
L 138.338445 -40.977963 
L 139.650951 -40.977964 
L 145.976756 -40.977961 
L 153.181466 -40.977964 
L 158.299475 -40.977963 
L 162.271909 -40.977963 
L 165.51896 -40.977963 
L 168.265081 -40.977964 
L 170.644371 -40.977963 
L 172.743385 -40.977965 
L 174.62125 -40.977966 
L 186.979493 -40.977963 
L 194.210844 -40.977961 
L 199.342191 -40.977962 
L 203.322634 -40.977962 
L 206.575027 -40.977963 
L 209.324965 -40.977963 
L 211.707118 -40.977965 
L 213.808359 -40.977962 
L 215.688007 -40.977964 
L 222.921736 -40.977967 
L 228.054272 -40.977962 
L 232.035429 -40.977962 
L 235.288298 -40.977963 
L 238.038575 -40.977964 
L 240.420983 -40.977962 
L 242.522422 -40.977963 
L 244.402229 -40.97796 
L 246.102724 -40.97796 
L 247.655157 -40.977962 
L 249.083259 -40.977961 
L 250.405477 -40.97796 
L 251.636433 -40.977962 
L 252.787917 -40.977964 
L 253.86957 -40.97796 
L 254.889381 -40.977961 
L 255.85404 -40.977961 
L 256.769207 -40.97796 
L 257.639715 -40.977962 
L 258.469719 -40.977962 
L 259.262822 -40.977961 
L 260.022165 -40.977961 
L 260.750507 -40.977966 
L 261.450279 -40.977961 
L 262.123638 -40.97796 
L 262.772506 -40.977962 
L 263.398602 -40.977962 
L 264.003471 -40.977961 
L 264.588504 -40.97796 
L 265.154962 -40.977962 
L 265.703988 -40.977962 
L 266.236622 -40.977963 
L 266.753816 -40.977961 
L 267.256439 -40.97796 
L 267.74529 -40.977961 
L 268.221103 -40.977962 
L 268.684556 -40.977962 
L 269.136275 -40.977963 
L 269.576839 -40.977962 
L 270.006787 -40.977961 
L 270.426617 -40.977962 
L 270.836794 -40.977963 
L 271.237754 -40.97796 
L 271.629901 -40.977962 
L 272.013614 -40.977962 
L 272.389248 -40.977966 
L 272.757136 -40.977961 
L 273.117592 -40.977963 
L 273.47091 -40.977961 
L 273.817367 -40.977963 
L 274.157224 -40.977961 
L 274.490729 -40.977958 
L 274.818113 -40.97796 
L 275.139599 -40.977962 
L 275.455394 -40.97796 
L 275.765698 -40.97796 
L 276.070696 -40.977964 
L 276.370568 -40.977962 
L 276.665484 -40.977963 
L 276.955603 -40.977961 
L 277.241081 -40.977961 
L 277.522063 -40.97796 
L 277.798688 -40.977962 
L 278.07109 -40.977961 
L 278.339396 -40.977962 
L 278.603726 -40.977962 
L 278.864198 -40.977961 
L 279.120922 -40.977961 
L 279.374004 -40.977963 
L 279.623546 -40.977962 
L 279.869646 -40.977962 
L 280.112398 -40.977962 
L 280.351892 -40.977963 
L 280.588213 -40.977961 
L 280.821445 -40.977961 
L 281.051667 -40.977963 
L 281.278957 -40.97796 
L 281.503387 -40.977962 
L 281.72503 -40.977961 
L 281.943953 -40.977962 
L 282.160222 -40.97796 
L 282.373901 -40.977963 
L 282.585051 -40.97796 
L 282.793732 -40.97796 
L 283 -40.977961 
L 283 -40.977973 
L 283 -40.977973 
L 282.793732 -40.977969 
L 282.585051 -40.977968 
L 282.373901 -40.977977 
L 282.160222 -40.977969 
L 281.943953 -40.977979 
L 281.72503 -40.977977 
L 281.503387 -40.977976 
L 281.278957 -40.977969 
L 281.051667 -40.977979 
L 280.821445 -40.977973 
L 280.588213 -40.977973 
L 280.351892 -40.977979 
L 280.112398 -40.977976 
L 279.869646 -40.977974 
L 279.623546 -40.977976 
L 279.374004 -40.977979 
L 279.120922 -40.977981 
L 278.864198 -40.977971 
L 278.603726 -40.977974 
L 278.339396 -40.977978 
L 278.07109 -40.977973 
L 277.798688 -40.977976 
L 277.522063 -40.977969 
L 277.241081 -40.977973 
L 276.955603 -40.977981 
L 276.665484 -40.977979 
L 276.370568 -40.977974 
L 276.070696 -40.97798 
L 275.765698 -40.977968 
L 275.455394 -40.977966 
L 275.139599 -40.977976 
L 274.818113 -40.977969 
L 274.490729 -40.977975 
L 274.157224 -40.977973 
L 273.817367 -40.977985 
L 273.47091 -40.977971 
L 273.117592 -40.977981 
L 272.757136 -40.977981 
L 272.389248 -40.977984 
L 272.013614 -40.977978 
L 271.629901 -40.977974 
L 271.237754 -40.977969 
L 270.836794 -40.977977 
L 270.426617 -40.977978 
L 270.006787 -40.977971 
L 269.576839 -40.977974 
L 269.136275 -40.977979 
L 268.684556 -40.977974 
L 268.221103 -40.977974 
L 267.74529 -40.977971 
L 267.256439 -40.977969 
L 266.753816 -40.977973 
L 266.236622 -40.977977 
L 265.703988 -40.977976 
L 265.154962 -40.977976 
L 264.588504 -40.977968 
L 264.003471 -40.977973 
L 263.398602 -40.977974 
L 262.772506 -40.977974 
L 262.123638 -40.977969 
L 261.450279 -40.977973 
L 260.750507 -40.977984 
L 260.022165 -40.977971 
L 259.262822 -40.977973 
L 258.469719 -40.977974 
L 257.639715 -40.977974 
L 256.769207 -40.977969 
L 255.85404 -40.977975 
L 254.889381 -40.977973 
L 253.86957 -40.977977 
L 252.787917 -40.977982 
L 251.636433 -40.977974 
L 250.405477 -40.977969 
L 249.083259 -40.977971 
L 247.655157 -40.977982 
L 246.102724 -40.977969 
L 244.402229 -40.977966 
L 242.522422 -40.977977 
L 240.420983 -40.977979 
L 238.038575 -40.977984 
L 235.288298 -40.977979 
L 232.035429 -40.977976 
L 228.054272 -40.977974 
L 222.921736 -40.977987 
L 215.688007 -40.97798 
L 213.808359 -40.977974 
L 211.707118 -40.977983 
L 209.324965 -40.977979 
L 206.575027 -40.977979 
L 203.322634 -40.977976 
L 199.342191 -40.977979 
L 194.210844 -40.977971 
L 186.979493 -40.977977 
L 174.62125 -40.977988 
L 172.743385 -40.977983 
L 170.644371 -40.977979 
L 168.265081 -40.97798 
L 165.51896 -40.977977 
L 162.271909 -40.977979 
L 158.299475 -40.977977 
L 153.181466 -40.977981 
L 145.976756 -40.977971 
L 139.650951 -40.977981 
L 138.338445 -40.977977 
L 136.921667 -40.977974 
L 135.382607 -40.977983 
L 133.698146 -40.977993 
L 131.837917 -40.977984 
L 129.760919 -40.977984 
L 127.409887 -40.977979 
L 124.701359 -40.977981 
L 121.506774 -40.977988 
L 117.612686 -40.977988 
L 112.624323 -40.97798 
L 112.039286 -40.97798 
L 111.434413 -40.977981 
L 110.808312 -40.977984 
L 110.15944 -40.977979 
L 109.486075 -40.977984 
L 108.786298 -40.977983 
L 108.05795 -40.977977 
L 107.2986 -40.977991 
L 106.50549 -40.977986 
L 105.675478 -40.977976 
L 104.804963 -40.977976 
L 103.889786 -40.977983 
L 102.925117 -40.977986 
L 101.905294 -40.977987 
L 100.823627 -40.977988 
L 99.672129 -40.977981 
L 98.441155 -40.977986 
L 97.118918 -40.977988 
L 95.690794 -40.977988 
L 94.138333 -40.977995 
L 92.437806 -40.977988 
L 90.55796 -40.977987 
L 88.456471 -40.977979 
L 86.073999 -40.977984 
L 83.323637 -40.977998 
L 80.070649 -40.978006 
L 76.089314 -40.977998 
L 70.95648 -40.978002 
L 63.722157 -40.97799 
L 51.355 -40.977996 
z
" style="stroke: #084a91; stroke-opacity: 0.1"/>
    </defs>
    <g clip-path="url(#pdd74d16eb3)">
     <use xlink:href="#mc6c3fab223" x="0" y="288" style="fill: #084a91; fill-opacity: 0.1; stroke: #084a91; stroke-opacity: 0.1"/>
    </g>
   </g>
   <g id="matplotlib.axis_3">
    <g id="xtick_50">
     <g id="line2d_63">
      <g>
       <use xlink:href="#mcdf1b85086" x="51.355" y="252.524" style="stroke: #000000; stroke-width: 0.8"/>
      </g>
     </g>
     <g id="text_11">
      <!-- $\mathdefault{10^{0}}$ -->
      <g transform="translate(42.555 267.122437)scale(0.1 -0.1)">
       <use xlink:href="#DejaVuSans-31" transform="translate(0 0.765625)"/>
       <use xlink:href="#DejaVuSans-30" transform="translate(63.623047 0.765625)"/>
       <use xlink:href="#DejaVuSans-30" transform="translate(128.203125 39.046875)scale(0.7)"/>
      </g>
     </g>
    </g>
    <g id="xtick_51">
     <g id="line2d_64">
      <g>
       <use xlink:href="#mcdf1b85086" x="92.437806" y="252.524" style="stroke: #000000; stroke-width: 0.8"/>
      </g>
     </g>
     <g id="text_12">
      <!-- $\mathdefault{10^{1}}$ -->
      <g transform="translate(83.637806 267.122437)scale(0.1 -0.1)">
       <use xlink:href="#DejaVuSans-31" transform="translate(0 0.684375)"/>
       <use xlink:href="#DejaVuSans-30" transform="translate(63.623047 0.684375)"/>
       <use xlink:href="#DejaVuSans-31" transform="translate(128.203125 38.965625)scale(0.7)"/>
      </g>
     </g>
    </g>
    <g id="xtick_52">
     <g id="line2d_65">
      <g>
       <use xlink:href="#mcdf1b85086" x="133.520612" y="252.524" style="stroke: #000000; stroke-width: 0.8"/>
      </g>
     </g>
     <g id="text_13">
      <!-- $\mathdefault{10^{2}}$ -->
      <g transform="translate(124.720612 267.122437)scale(0.1 -0.1)">
       <use xlink:href="#DejaVuSans-31" transform="translate(0 0.765625)"/>
       <use xlink:href="#DejaVuSans-30" transform="translate(63.623047 0.765625)"/>
       <use xlink:href="#DejaVuSans-32" transform="translate(128.203125 39.046875)scale(0.7)"/>
      </g>
     </g>
    </g>
    <g id="xtick_53">
     <g id="line2d_66">
      <g>
       <use xlink:href="#mcdf1b85086" x="174.603417" y="252.524" style="stroke: #000000; stroke-width: 0.8"/>
      </g>
     </g>
     <g id="text_14">
      <!-- $\mathdefault{10^{3}}$ -->
      <g transform="translate(165.803417 267.122437)scale(0.1 -0.1)">
       <use xlink:href="#DejaVuSans-31" transform="translate(0 0.765625)"/>
       <use xlink:href="#DejaVuSans-30" transform="translate(63.623047 0.765625)"/>
       <use xlink:href="#DejaVuSans-33" transform="translate(128.203125 39.046875)scale(0.7)"/>
      </g>
     </g>
    </g>
    <g id="xtick_54">
     <g id="line2d_67">
      <g>
       <use xlink:href="#mcdf1b85086" x="215.686223" y="252.524" style="stroke: #000000; stroke-width: 0.8"/>
      </g>
     </g>
     <g id="text_15">
      <!-- $\mathdefault{10^{4}}$ -->
      <g transform="translate(206.886223 267.122437)scale(0.1 -0.1)">
       <use xlink:href="#DejaVuSans-31" transform="translate(0 0.684375)"/>
       <use xlink:href="#DejaVuSans-30" transform="translate(63.623047 0.684375)"/>
       <use xlink:href="#DejaVuSans-34" transform="translate(128.203125 38.965625)scale(0.7)"/>
      </g>
     </g>
    </g>
    <g id="xtick_55">
     <g id="line2d_68">
      <g>
       <use xlink:href="#mcdf1b85086" x="256.769029" y="252.524" style="stroke: #000000; stroke-width: 0.8"/>
      </g>
     </g>
     <g id="text_16">
      <!-- $\mathdefault{10^{5}}$ -->
      <g transform="translate(247.969029 267.122437)scale(0.1 -0.1)">
       <defs>
        <path id="DejaVuSans-35" d="M 691 4666 
L 3169 4666 
L 3169 4134 
L 1269 4134 
L 1269 2991 
Q 1406 3038 1543 3061 
Q 1681 3084 1819 3084 
Q 2600 3084 3056 2656 
Q 3513 2228 3513 1497 
Q 3513 744 3044 326 
Q 2575 -91 1722 -91 
Q 1428 -91 1123 -41 
Q 819 9 494 109 
L 494 744 
Q 775 591 1075 516 
Q 1375 441 1709 441 
Q 2250 441 2565 725 
Q 2881 1009 2881 1497 
Q 2881 1984 2565 2268 
Q 2250 2553 1709 2553 
Q 1456 2553 1204 2497 
Q 953 2441 691 2322 
L 691 4666 
z
" transform="scale(0.015625)"/>
       </defs>
       <use xlink:href="#DejaVuSans-31" transform="translate(0 0.684375)"/>
       <use xlink:href="#DejaVuSans-30" transform="translate(63.623047 0.684375)"/>
       <use xlink:href="#DejaVuSans-35" transform="translate(128.203125 38.965625)scale(0.7)"/>
      </g>
     </g>
    </g>
    <g id="xtick_56">
     <g id="line2d_69">
      <g>
       <use xlink:href="#ma4e4c507a6" x="63.722157" y="252.524" style="stroke: #000000; stroke-width: 0.6"/>
      </g>
     </g>
    </g>
    <g id="xtick_57">
     <g id="line2d_70">
      <g>
       <use xlink:href="#ma4e4c507a6" x="70.95648" y="252.524" style="stroke: #000000; stroke-width: 0.6"/>
      </g>
     </g>
    </g>
    <g id="xtick_58">
     <g id="line2d_71">
      <g>
       <use xlink:href="#ma4e4c507a6" x="76.089314" y="252.524" style="stroke: #000000; stroke-width: 0.6"/>
      </g>
     </g>
    </g>
    <g id="xtick_59">
     <g id="line2d_72">
      <g>
       <use xlink:href="#ma4e4c507a6" x="80.070649" y="252.524" style="stroke: #000000; stroke-width: 0.6"/>
      </g>
     </g>
    </g>
    <g id="xtick_60">
     <g id="line2d_73">
      <g>
       <use xlink:href="#ma4e4c507a6" x="83.323637" y="252.524" style="stroke: #000000; stroke-width: 0.6"/>
      </g>
     </g>
    </g>
    <g id="xtick_61">
     <g id="line2d_74">
      <g>
       <use xlink:href="#ma4e4c507a6" x="86.073999" y="252.524" style="stroke: #000000; stroke-width: 0.6"/>
      </g>
     </g>
    </g>
    <g id="xtick_62">
     <g id="line2d_75">
      <g>
       <use xlink:href="#ma4e4c507a6" x="88.456471" y="252.524" style="stroke: #000000; stroke-width: 0.6"/>
      </g>
     </g>
    </g>
    <g id="xtick_63">
     <g id="line2d_76">
      <g>
       <use xlink:href="#ma4e4c507a6" x="90.55796" y="252.524" style="stroke: #000000; stroke-width: 0.6"/>
      </g>
     </g>
    </g>
    <g id="xtick_64">
     <g id="line2d_77">
      <g>
       <use xlink:href="#ma4e4c507a6" x="104.804963" y="252.524" style="stroke: #000000; stroke-width: 0.6"/>
      </g>
     </g>
    </g>
    <g id="xtick_65">
     <g id="line2d_78">
      <g>
       <use xlink:href="#ma4e4c507a6" x="112.039286" y="252.524" style="stroke: #000000; stroke-width: 0.6"/>
      </g>
     </g>
    </g>
    <g id="xtick_66">
     <g id="line2d_79">
      <g>
       <use xlink:href="#ma4e4c507a6" x="117.172119" y="252.524" style="stroke: #000000; stroke-width: 0.6"/>
      </g>
     </g>
    </g>
    <g id="xtick_67">
     <g id="line2d_80">
      <g>
       <use xlink:href="#ma4e4c507a6" x="121.153455" y="252.524" style="stroke: #000000; stroke-width: 0.6"/>
      </g>
     </g>
    </g>
    <g id="xtick_68">
     <g id="line2d_81">
      <g>
       <use xlink:href="#ma4e4c507a6" x="124.406442" y="252.524" style="stroke: #000000; stroke-width: 0.6"/>
      </g>
     </g>
    </g>
    <g id="xtick_69">
     <g id="line2d_82">
      <g>
       <use xlink:href="#ma4e4c507a6" x="127.156804" y="252.524" style="stroke: #000000; stroke-width: 0.6"/>
      </g>
     </g>
    </g>
    <g id="xtick_70">
     <g id="line2d_83">
      <g>
       <use xlink:href="#ma4e4c507a6" x="129.539276" y="252.524" style="stroke: #000000; stroke-width: 0.6"/>
      </g>
     </g>
    </g>
    <g id="xtick_71">
     <g id="line2d_84">
      <g>
       <use xlink:href="#ma4e4c507a6" x="131.640765" y="252.524" style="stroke: #000000; stroke-width: 0.6"/>
      </g>
     </g>
    </g>
    <g id="xtick_72">
     <g id="line2d_85">
      <g>
       <use xlink:href="#ma4e4c507a6" x="145.887768" y="252.524" style="stroke: #000000; stroke-width: 0.6"/>
      </g>
     </g>
    </g>
    <g id="xtick_73">
     <g id="line2d_86">
      <g>
       <use xlink:href="#ma4e4c507a6" x="153.122091" y="252.524" style="stroke: #000000; stroke-width: 0.6"/>
      </g>
     </g>
    </g>
    <g id="xtick_74">
     <g id="line2d_87">
      <g>
       <use xlink:href="#ma4e4c507a6" x="158.254925" y="252.524" style="stroke: #000000; stroke-width: 0.6"/>
      </g>
     </g>
    </g>
    <g id="xtick_75">
     <g id="line2d_88">
      <g>
       <use xlink:href="#ma4e4c507a6" x="162.23626" y="252.524" style="stroke: #000000; stroke-width: 0.6"/>
      </g>
     </g>
    </g>
    <g id="xtick_76">
     <g id="line2d_89">
      <g>
       <use xlink:href="#ma4e4c507a6" x="165.489248" y="252.524" style="stroke: #000000; stroke-width: 0.6"/>
      </g>
     </g>
    </g>
    <g id="xtick_77">
     <g id="line2d_90">
      <g>
       <use xlink:href="#ma4e4c507a6" x="168.23961" y="252.524" style="stroke: #000000; stroke-width: 0.6"/>
      </g>
     </g>
    </g>
    <g id="xtick_78">
     <g id="line2d_91">
      <g>
       <use xlink:href="#ma4e4c507a6" x="170.622082" y="252.524" style="stroke: #000000; stroke-width: 0.6"/>
      </g>
     </g>
    </g>
    <g id="xtick_79">
     <g id="line2d_92">
      <g>
       <use xlink:href="#ma4e4c507a6" x="172.723571" y="252.524" style="stroke: #000000; stroke-width: 0.6"/>
      </g>
     </g>
    </g>
    <g id="xtick_80">
     <g id="line2d_93">
      <g>
       <use xlink:href="#ma4e4c507a6" x="186.970574" y="252.524" style="stroke: #000000; stroke-width: 0.6"/>
      </g>
     </g>
    </g>
    <g id="xtick_81">
     <g id="line2d_94">
      <g>
       <use xlink:href="#ma4e4c507a6" x="194.204897" y="252.524" style="stroke: #000000; stroke-width: 0.6"/>
      </g>
     </g>
    </g>
    <g id="xtick_82">
     <g id="line2d_95">
      <g>
       <use xlink:href="#ma4e4c507a6" x="199.337731" y="252.524" style="stroke: #000000; stroke-width: 0.6"/>
      </g>
     </g>
    </g>
    <g id="xtick_83">
     <g id="line2d_96">
      <g>
       <use xlink:href="#ma4e4c507a6" x="203.319066" y="252.524" style="stroke: #000000; stroke-width: 0.6"/>
      </g>
     </g>
    </g>
    <g id="xtick_84">
     <g id="line2d_97">
      <g>
       <use xlink:href="#ma4e4c507a6" x="206.572054" y="252.524" style="stroke: #000000; stroke-width: 0.6"/>
      </g>
     </g>
    </g>
    <g id="xtick_85">
     <g id="line2d_98">
      <g>
       <use xlink:href="#ma4e4c507a6" x="209.322416" y="252.524" style="stroke: #000000; stroke-width: 0.6"/>
      </g>
     </g>
    </g>
    <g id="xtick_86">
     <g id="line2d_99">
      <g>
       <use xlink:href="#ma4e4c507a6" x="211.704888" y="252.524" style="stroke: #000000; stroke-width: 0.6"/>
      </g>
     </g>
    </g>
    <g id="xtick_87">
     <g id="line2d_100">
      <g>
       <use xlink:href="#ma4e4c507a6" x="213.806377" y="252.524" style="stroke: #000000; stroke-width: 0.6"/>
      </g>
     </g>
    </g>
    <g id="xtick_88">
     <g id="line2d_101">
      <g>
       <use xlink:href="#ma4e4c507a6" x="228.05338" y="252.524" style="stroke: #000000; stroke-width: 0.6"/>
      </g>
     </g>
    </g>
    <g id="xtick_89">
     <g id="line2d_102">
      <g>
       <use xlink:href="#ma4e4c507a6" x="235.287703" y="252.524" style="stroke: #000000; stroke-width: 0.6"/>
      </g>
     </g>
    </g>
    <g id="xtick_90">
     <g id="line2d_103">
      <g>
       <use xlink:href="#ma4e4c507a6" x="240.420537" y="252.524" style="stroke: #000000; stroke-width: 0.6"/>
      </g>
     </g>
    </g>
    <g id="xtick_91">
     <g id="line2d_104">
      <g>
       <use xlink:href="#ma4e4c507a6" x="244.401872" y="252.524" style="stroke: #000000; stroke-width: 0.6"/>
      </g>
     </g>
    </g>
    <g id="xtick_92">
     <g id="line2d_105">
      <g>
       <use xlink:href="#ma4e4c507a6" x="247.65486" y="252.524" style="stroke: #000000; stroke-width: 0.6"/>
      </g>
     </g>
    </g>
    <g id="xtick_93">
     <g id="line2d_106">
      <g>
       <use xlink:href="#ma4e4c507a6" x="250.405222" y="252.524" style="stroke: #000000; stroke-width: 0.6"/>
      </g>
     </g>
    </g>
    <g id="xtick_94">
     <g id="line2d_107">
      <g>
       <use xlink:href="#ma4e4c507a6" x="252.787694" y="252.524" style="stroke: #000000; stroke-width: 0.6"/>
      </g>
     </g>
    </g>
    <g id="xtick_95">
     <g id="line2d_108">
      <g>
       <use xlink:href="#ma4e4c507a6" x="254.889183" y="252.524" style="stroke: #000000; stroke-width: 0.6"/>
      </g>
     </g>
    </g>
    <g id="xtick_96">
     <g id="line2d_109">
      <g>
       <use xlink:href="#ma4e4c507a6" x="269.136186" y="252.524" style="stroke: #000000; stroke-width: 0.6"/>
      </g>
     </g>
    </g>
    <g id="xtick_97">
     <g id="line2d_110">
      <g>
       <use xlink:href="#ma4e4c507a6" x="276.370509" y="252.524" style="stroke: #000000; stroke-width: 0.6"/>
      </g>
     </g>
    </g>
    <g id="xtick_98">
     <g id="line2d_111">
      <g>
       <use xlink:href="#ma4e4c507a6" x="281.503343" y="252.524" style="stroke: #000000; stroke-width: 0.6"/>
      </g>
     </g>
    </g>
    <g id="text_17">
     <!-- Optimization Steps -->
     <g transform="translate(119.614219 280.800562)scale(0.1 -0.1)">
      <defs>
       <path id="DejaVuSans-4f" d="M 2522 4238 
Q 1834 4238 1429 3725 
Q 1025 3213 1025 2328 
Q 1025 1447 1429 934 
Q 1834 422 2522 422 
Q 3209 422 3611 934 
Q 4013 1447 4013 2328 
Q 4013 3213 3611 3725 
Q 3209 4238 2522 4238 
z
M 2522 4750 
Q 3503 4750 4090 4092 
Q 4678 3434 4678 2328 
Q 4678 1225 4090 567 
Q 3503 -91 2522 -91 
Q 1538 -91 948 565 
Q 359 1222 359 2328 
Q 359 3434 948 4092 
Q 1538 4750 2522 4750 
z
" transform="scale(0.015625)"/>
       <path id="DejaVuSans-70" d="M 1159 525 
L 1159 -1331 
L 581 -1331 
L 581 3500 
L 1159 3500 
L 1159 2969 
Q 1341 3281 1617 3432 
Q 1894 3584 2278 3584 
Q 2916 3584 3314 3078 
Q 3713 2572 3713 1747 
Q 3713 922 3314 415 
Q 2916 -91 2278 -91 
Q 1894 -91 1617 61 
Q 1341 213 1159 525 
z
M 3116 1747 
Q 3116 2381 2855 2742 
Q 2594 3103 2138 3103 
Q 1681 3103 1420 2742 
Q 1159 2381 1159 1747 
Q 1159 1113 1420 752 
Q 1681 391 2138 391 
Q 2594 391 2855 752 
Q 3116 1113 3116 1747 
z
" transform="scale(0.015625)"/>
       <path id="DejaVuSans-69" d="M 603 3500 
L 1178 3500 
L 1178 0 
L 603 0 
L 603 3500 
z
M 603 4863 
L 1178 4863 
L 1178 4134 
L 603 4134 
L 603 4863 
z
" transform="scale(0.015625)"/>
       <path id="DejaVuSans-6d" d="M 3328 2828 
Q 3544 3216 3844 3400 
Q 4144 3584 4550 3584 
Q 5097 3584 5394 3201 
Q 5691 2819 5691 2113 
L 5691 0 
L 5113 0 
L 5113 2094 
Q 5113 2597 4934 2840 
Q 4756 3084 4391 3084 
Q 3944 3084 3684 2787 
Q 3425 2491 3425 1978 
L 3425 0 
L 2847 0 
L 2847 2094 
Q 2847 2600 2669 2842 
Q 2491 3084 2119 3084 
Q 1678 3084 1418 2786 
Q 1159 2488 1159 1978 
L 1159 0 
L 581 0 
L 581 3500 
L 1159 3500 
L 1159 2956 
Q 1356 3278 1631 3431 
Q 1906 3584 2284 3584 
Q 2666 3584 2933 3390 
Q 3200 3197 3328 2828 
z
" transform="scale(0.015625)"/>
       <path id="DejaVuSans-7a" d="M 353 3500 
L 3084 3500 
L 3084 2975 
L 922 459 
L 3084 459 
L 3084 0 
L 275 0 
L 275 525 
L 2438 3041 
L 353 3041 
L 353 3500 
z
" transform="scale(0.015625)"/>
       <path id="DejaVuSans-6f" d="M 1959 3097 
Q 1497 3097 1228 2736 
Q 959 2375 959 1747 
Q 959 1119 1226 758 
Q 1494 397 1959 397 
Q 2419 397 2687 759 
Q 2956 1122 2956 1747 
Q 2956 2369 2687 2733 
Q 2419 3097 1959 3097 
z
M 1959 3584 
Q 2709 3584 3137 3096 
Q 3566 2609 3566 1747 
Q 3566 888 3137 398 
Q 2709 -91 1959 -91 
Q 1206 -91 779 398 
Q 353 888 353 1747 
Q 353 2609 779 3096 
Q 1206 3584 1959 3584 
z
" transform="scale(0.015625)"/>
       <path id="DejaVuSans-53" d="M 3425 4513 
L 3425 3897 
Q 3066 4069 2747 4153 
Q 2428 4238 2131 4238 
Q 1616 4238 1336 4038 
Q 1056 3838 1056 3469 
Q 1056 3159 1242 3001 
Q 1428 2844 1947 2747 
L 2328 2669 
Q 3034 2534 3370 2195 
Q 3706 1856 3706 1288 
Q 3706 609 3251 259 
Q 2797 -91 1919 -91 
Q 1588 -91 1214 -16 
Q 841 59 441 206 
L 441 856 
Q 825 641 1194 531 
Q 1563 422 1919 422 
Q 2459 422 2753 634 
Q 3047 847 3047 1241 
Q 3047 1584 2836 1778 
Q 2625 1972 2144 2069 
L 1759 2144 
Q 1053 2284 737 2584 
Q 422 2884 422 3419 
Q 422 4038 858 4394 
Q 1294 4750 2059 4750 
Q 2388 4750 2728 4690 
Q 3069 4631 3425 4513 
z
" transform="scale(0.015625)"/>
      </defs>
      <use xlink:href="#DejaVuSans-4f"/>
      <use xlink:href="#DejaVuSans-70" x="78.710938"/>
      <use xlink:href="#DejaVuSans-74" x="142.1875"/>
      <use xlink:href="#DejaVuSans-69" x="181.396484"/>
      <use xlink:href="#DejaVuSans-6d" x="209.179688"/>
      <use xlink:href="#DejaVuSans-69" x="306.591797"/>
      <use xlink:href="#DejaVuSans-7a" x="334.375"/>
      <use xlink:href="#DejaVuSans-61" x="386.865234"/>
      <use xlink:href="#DejaVuSans-74" x="448.144531"/>
      <use xlink:href="#DejaVuSans-69" x="487.353516"/>
      <use xlink:href="#DejaVuSans-6f" x="515.136719"/>
      <use xlink:href="#DejaVuSans-6e" x="576.318359"/>
      <use xlink:href="#DejaVuSans-20" x="639.697266"/>
      <use xlink:href="#DejaVuSans-53" x="671.484375"/>
      <use xlink:href="#DejaVuSans-74" x="734.960938"/>
      <use xlink:href="#DejaVuSans-65" x="774.169922"/>
      <use xlink:href="#DejaVuSans-70" x="835.693359"/>
      <use xlink:href="#DejaVuSans-73" x="899.169922"/>
     </g>
    </g>
   </g>
   <g id="matplotlib.axis_4">
    <g id="ytick_6">
     <g id="line2d_112">
      <g>
       <use xlink:href="#me63035d507" x="51.355" y="247.022038" style="stroke: #000000; stroke-width: 0.8"/>
      </g>
     </g>
     <g id="text_18">
      <!-- 0 -->
      <g transform="translate(37.9925 250.821257)scale(0.1 -0.1)">
       <use xlink:href="#DejaVuSans-30"/>
      </g>
     </g>
    </g>
    <g id="ytick_7">
     <g id="line2d_113">
      <g>
       <use xlink:href="#me63035d507" x="51.355" y="221.39655" style="stroke: #000000; stroke-width: 0.8"/>
      </g>
     </g>
     <g id="text_19">
      <!-- 25K -->
      <g transform="translate(25.072188 225.195769)scale(0.1 -0.1)">
       <defs>
        <path id="DejaVuSans-4b" d="M 628 4666 
L 1259 4666 
L 1259 2694 
L 3353 4666 
L 4166 4666 
L 1850 2491 
L 4331 0 
L 3500 0 
L 1259 2247 
L 1259 0 
L 628 0 
L 628 4666 
z
" transform="scale(0.015625)"/>
       </defs>
       <use xlink:href="#DejaVuSans-32"/>
       <use xlink:href="#DejaVuSans-35" x="63.623047"/>
       <use xlink:href="#DejaVuSans-4b" x="127.246094"/>
      </g>
     </g>
    </g>
    <g id="ytick_8">
     <g id="line2d_114">
      <g>
       <use xlink:href="#me63035d507" x="51.355" y="195.771062" style="stroke: #000000; stroke-width: 0.8"/>
      </g>
     </g>
     <g id="text_20">
      <!-- 50K -->
      <g transform="translate(25.072188 199.570281)scale(0.1 -0.1)">
       <use xlink:href="#DejaVuSans-35"/>
       <use xlink:href="#DejaVuSans-30" x="63.623047"/>
       <use xlink:href="#DejaVuSans-4b" x="127.246094"/>
      </g>
     </g>
    </g>
    <g id="ytick_9">
     <g id="line2d_115">
      <g>
       <use xlink:href="#me63035d507" x="51.355" y="170.145575" style="stroke: #000000; stroke-width: 0.8"/>
      </g>
     </g>
     <g id="text_21">
      <!-- 75K -->
      <g transform="translate(25.072188 173.944793)scale(0.1 -0.1)">
       <defs>
        <path id="DejaVuSans-37" d="M 525 4666 
L 3525 4666 
L 3525 4397 
L 1831 0 
L 1172 0 
L 2766 4134 
L 525 4134 
L 525 4666 
z
" transform="scale(0.015625)"/>
       </defs>
       <use xlink:href="#DejaVuSans-37"/>
       <use xlink:href="#DejaVuSans-35" x="63.623047"/>
       <use xlink:href="#DejaVuSans-4b" x="127.246094"/>
      </g>
     </g>
    </g>
    <g id="ytick_10">
     <g id="line2d_116">
      <g>
       <use xlink:href="#me63035d507" x="51.355" y="144.520087" style="stroke: #000000; stroke-width: 0.8"/>
      </g>
     </g>
     <g id="text_22">
      <!-- 100K -->
      <g transform="translate(18.709688 148.319305)scale(0.1 -0.1)">
       <use xlink:href="#DejaVuSans-31"/>
       <use xlink:href="#DejaVuSans-30" x="63.623047"/>
       <use xlink:href="#DejaVuSans-30" x="127.246094"/>
       <use xlink:href="#DejaVuSans-4b" x="190.869141"/>
      </g>
     </g>
    </g>
    <g id="text_23">
     <!-- Local Complexity -->
     <g transform="translate(12.63 235.558625)rotate(-90)scale(0.1 -0.1)">
      <defs>
       <path id="DejaVuSans-4c" d="M 628 4666 
L 1259 4666 
L 1259 531 
L 3531 531 
L 3531 0 
L 628 0 
L 628 4666 
z
" transform="scale(0.015625)"/>
       <path id="DejaVuSans-78" d="M 3513 3500 
L 2247 1797 
L 3578 0 
L 2900 0 
L 1881 1375 
L 863 0 
L 184 0 
L 1544 1831 
L 300 3500 
L 978 3500 
L 1906 2253 
L 2834 3500 
L 3513 3500 
z
" transform="scale(0.015625)"/>
      </defs>
      <use xlink:href="#DejaVuSans-4c"/>
      <use xlink:href="#DejaVuSans-6f" x="53.962891"/>
      <use xlink:href="#DejaVuSans-63" x="115.144531"/>
      <use xlink:href="#DejaVuSans-61" x="170.125"/>
      <use xlink:href="#DejaVuSans-6c" x="231.404297"/>
      <use xlink:href="#DejaVuSans-20" x="259.1875"/>
      <use xlink:href="#DejaVuSans-43" x="290.974609"/>
      <use xlink:href="#DejaVuSans-6f" x="360.798828"/>
      <use xlink:href="#DejaVuSans-6d" x="421.980469"/>
      <use xlink:href="#DejaVuSans-70" x="519.392578"/>
      <use xlink:href="#DejaVuSans-6c" x="582.869141"/>
      <use xlink:href="#DejaVuSans-65" x="610.652344"/>
      <use xlink:href="#DejaVuSans-78" x="670.425781"/>
      <use xlink:href="#DejaVuSans-69" x="729.605469"/>
      <use xlink:href="#DejaVuSans-74" x="757.388672"/>
      <use xlink:href="#DejaVuSans-79" x="796.597656"/>
     </g>
    </g>
   </g>
   <g id="line2d_117">
    <path d="M 51.355 247.02128 
L 194.210844 246.981568 
L 199.342191 246.115482 
L 203.322634 246.284621 
L 206.575027 245.634271 
L 209.324965 241.794451 
L 211.707118 245.034979 
L 213.808359 241.933521 
L 215.688007 242.953115 
L 222.921736 240.259911 
L 228.054272 234.180986 
L 232.035429 224.957264 
L 238.038575 212.533363 
L 240.420983 203.954718 
L 242.522422 189.818113 
L 244.402229 178.881736 
L 246.102724 173.328981 
L 247.655157 179.166283 
L 249.083259 196.022024 
L 250.405477 177.043916 
L 251.636433 164.196706 
L 252.787917 161.528468 
L 253.86957 163.22972 
L 254.889381 161.672923 
L 255.85404 162.52047 
L 256.769207 164.10262 
L 257.639715 166.98415 
L 258.469719 163.221368 
L 259.262822 153.893906 
L 260.022165 158.666813 
L 260.750507 159.031424 
L 261.450279 165.259859 
L 262.123638 172.6402 
L 262.772506 197.044753 
L 263.398602 182.431358 
L 264.003471 142.826947 
L 264.588504 161.669608 
L 265.154962 152.39962 
L 265.703988 176.584002 
L 266.236622 189.664461 
L 266.753816 147.025563 
L 267.256439 172.807206 
L 267.74529 214.213548 
L 268.221103 212.509527 
L 268.684556 212.169549 
L 269.136275 218.893148 
L 269.576839 212.486 
L 270.006787 213.510116 
L 270.426617 224.278773 
L 270.836794 213.723849 
L 271.237754 212.911531 
L 271.629901 221.394943 
L 272.013614 215.691198 
L 272.389248 213.781144 
L 272.757136 215.155727 
L 273.117592 218.656789 
L 273.47091 228.445683 
L 273.817367 231.974822 
L 274.157224 227.855527 
L 274.818113 242.114505 
L 275.139599 238.645282 
L 275.455394 242.446615 
L 275.765698 235.506413 
L 276.070696 244.526949 
L 276.370568 238.50333 
L 276.665484 238.45959 
L 276.955603 240.051639 
L 277.241081 235.391521 
L 277.522063 242.689754 
L 277.798688 239.974288 
L 278.07109 244.324471 
L 278.339396 244.740083 
L 278.603726 244.248952 
L 278.864198 246.255602 
L 279.120922 245.582351 
L 279.374004 246.685482 
L 279.623546 246.437916 
L 279.869646 246.981294 
L 280.112398 246.292527 
L 280.351892 246.338351 
L 280.588213 244.778585 
L 280.821445 245.463175 
L 281.051667 243.750112 
L 281.278957 246.730039 
L 281.503387 246.335362 
L 281.943953 246.859773 
L 282.160222 246.724279 
L 282.373901 246.263952 
L 282.585051 246.855575 
L 282.793732 246.715638 
L 283 245.831616 
L 283 245.831616 
" clip-path="url(#pdd74d16eb3)" style="fill: none; stroke: #006428; stroke-opacity: 0.8; stroke-linecap: square"/>
   </g>
   <g id="line2d_118">
    <path d="M 51.355 247.021298 
L 199.342191 246.923682 
L 203.322634 246.876861 
L 206.575027 246.208596 
L 209.324965 245.073383 
L 211.707118 245.74457 
L 213.808359 244.850643 
L 215.688007 242.953962 
L 222.921736 241.669789 
L 228.054272 237.567151 
L 232.035429 227.520375 
L 235.288298 224.781527 
L 238.038575 215.656893 
L 240.420983 208.867965 
L 242.522422 191.933221 
L 244.402229 184.790361 
L 246.102724 173.676895 
L 247.655157 180.388214 
L 249.083259 195.34857 
L 250.405477 175.922344 
L 251.636433 166.590118 
L 252.787917 162.906318 
L 254.889381 163.379245 
L 255.85404 165.93276 
L 256.769207 169.196334 
L 257.639715 163.412309 
L 258.469719 164.728098 
L 259.262822 155.245795 
L 260.022165 159.255415 
L 260.750507 162.059067 
L 262.123638 178.677709 
L 262.772506 197.770231 
L 263.398602 183.945969 
L 264.003471 139.956668 
L 264.588504 162.56007 
L 265.154962 160.420069 
L 265.703988 179.992052 
L 266.236622 192.996543 
L 266.753816 148.556405 
L 267.256439 175.435668 
L 267.74529 215.575687 
L 268.684556 209.785478 
L 269.136275 218.196802 
L 269.576839 211.419947 
L 270.006787 210.960795 
L 270.426617 228.18104 
L 270.836794 213.343781 
L 271.237754 213.642392 
L 271.629901 222.771684 
L 272.389248 213.06357 
L 272.757136 214.318348 
L 273.117592 218.051443 
L 273.47091 228.193405 
L 273.817367 233.696885 
L 274.157224 228.161613 
L 274.490729 239.165809 
L 274.818113 242.998461 
L 275.139599 239.982118 
L 275.455394 244.028079 
L 275.765698 238.465136 
L 276.070696 245.051942 
L 276.370568 238.91794 
L 276.665484 238.761022 
L 276.955603 241.503791 
L 277.241081 239.982437 
L 277.522063 242.269719 
L 277.798688 241.067393 
L 278.07109 245.174897 
L 278.339396 245.018604 
L 278.603726 245.321633 
L 278.864198 246.470274 
L 279.120922 245.678071 
L 279.374004 246.52243 
L 279.623546 246.424189 
L 279.869646 246.936973 
L 280.112398 246.314699 
L 280.351892 246.517797 
L 280.588213 244.8887 
L 280.821445 246.230323 
L 281.051667 245.161835 
L 281.278957 246.741811 
L 281.503387 246.158067 
L 281.72503 246.257195 
L 281.943953 246.855462 
L 282.160222 246.857808 
L 282.373901 246.021807 
L 282.585051 246.940424 
L 282.793732 246.767477 
L 283 245.848351 
L 283 245.848351 
" clip-path="url(#pdd74d16eb3)" style="fill: none; stroke: #9e3303; stroke-opacity: 0.8; stroke-linecap: square"/>
   </g>
   <g id="line2d_119">
    <path d="M 51.355 247.022016 
L 283 247.022033 
L 283 247.022033 
" clip-path="url(#pdd74d16eb3)" style="fill: none; stroke: #084a91; stroke-opacity: 0.8; stroke-linecap: square"/>
   </g>
   <g id="patch_9">
    <path d="M 51.355 252.524 
L 51.355 133.012 
" style="fill: none; stroke: #000000; stroke-width: 0.8; stroke-linejoin: miter; stroke-linecap: square"/>
   </g>
   <g id="patch_10">
    <path d="M 283 252.524 
L 283 133.012 
" style="fill: none; stroke: #000000; stroke-width: 0.8; stroke-linejoin: miter; stroke-linecap: square"/>
   </g>
   <g id="patch_11">
    <path d="M 51.355 252.524 
L 283 252.524 
" style="fill: none; stroke: #000000; stroke-width: 0.8; stroke-linejoin: miter; stroke-linecap: square"/>
   </g>
   <g id="patch_12">
    <path d="M 51.355 133.012 
L 283 133.012 
" style="fill: none; stroke: #000000; stroke-width: 0.8; stroke-linejoin: miter; stroke-linecap: square"/>
   </g>
  </g>
 </g>
 <defs>
  <clipPath id="p08a424beda">
   <rect x="51.355" y="5" width="231.645" height="119.512"/>
  </clipPath>
  <clipPath id="pdd74d16eb3">
   <rect x="51.355" y="133.012" width="231.645" height="119.512"/>
  </clipPath>
 </defs>
</svg>
