<?xml version="1.0" encoding="utf-8" standalone="no"?>
<!DOCTYPE svg PUBLIC "-//W3C//DTD SVG 1.1//EN"
  "http://www.w3.org/Graphics/SVG/1.1/DTD/svg11.dtd">
<svg xmlns:xlink="http://www.w3.org/1999/xlink" width="288pt" height="288pt" viewBox="0 0 288 288" xmlns="http://www.w3.org/2000/svg" version="1.1">
 <metadata>
  <rdf:RDF xmlns:dc="http://purl.org/dc/elements/1.1/" xmlns:cc="http://creativecommons.org/ns#" xmlns:rdf="http://www.w3.org/1999/02/22-rdf-syntax-ns#">
   <cc:Work>
    <dc:type rdf:resource="http://purl.org/dc/dcmitype/StillImage"/>
    <dc:date>2024-02-24T03:27:25.342546</dc:date>
    <dc:format>image/svg+xml</dc:format>
    <dc:creator>
     <cc:Agent>
      <dc:title>Matplotlib v3.5.2, https://matplotlib.org/</dc:title>
     </cc:Agent>
    </dc:creator>
   </cc:Work>
  </rdf:RDF>
 </metadata>
 <defs>
  <style type="text/css">*{stroke-linejoin: round; stroke-linecap: butt}</style>
 </defs>
 <g id="figure_1">
  <g id="patch_1">
   <path d="M 0 288 
L 288 288 
L 288 0 
L 0 0 
z
" style="fill: #ffffff"/>
  </g>
  <g id="axes_1">
   <g id="patch_2">
    <path d="M 38.44 126.020353 
L 283 126.020353 
L 283 8.016706 
L 38.44 8.016706 
z
" style="fill: #ffffff"/>
   </g>
   <g id="matplotlib.axis_1">
    <g id="xtick_1">
     <g id="line2d_1">
      <defs>
       <path id="m64f73966d6" d="M 0 0 
L 0 3.5 
" style="stroke: #000000; stroke-width: 0.8"/>
      </defs>
      <g>
       <use xlink:href="#m64f73966d6" x="38.44" y="126.020353" style="stroke: #000000; stroke-width: 0.8"/>
      </g>
     </g>
    </g>
    <g id="xtick_2">
     <g id="line2d_2">
      <g>
       <use xlink:href="#m64f73966d6" x="81.774294" y="126.020353" style="stroke: #000000; stroke-width: 0.8"/>
      </g>
     </g>
    </g>
    <g id="xtick_3">
     <g id="line2d_3">
      <g>
       <use xlink:href="#m64f73966d6" x="125.108589" y="126.020353" style="stroke: #000000; stroke-width: 0.8"/>
      </g>
     </g>
    </g>
    <g id="xtick_4">
     <g id="line2d_4">
      <g>
       <use xlink:href="#m64f73966d6" x="168.442883" y="126.020353" style="stroke: #000000; stroke-width: 0.8"/>
      </g>
     </g>
    </g>
    <g id="xtick_5">
     <g id="line2d_5">
      <g>
       <use xlink:href="#m64f73966d6" x="211.777177" y="126.020353" style="stroke: #000000; stroke-width: 0.8"/>
      </g>
     </g>
    </g>
    <g id="xtick_6">
     <g id="line2d_6">
      <g>
       <use xlink:href="#m64f73966d6" x="255.111471" y="126.020353" style="stroke: #000000; stroke-width: 0.8"/>
      </g>
     </g>
    </g>
    <g id="xtick_7">
     <g id="line2d_7">
      <defs>
       <path id="mfeca7a18dc" d="M 0 0 
L 0 2 
" style="stroke: #000000; stroke-width: 0.6"/>
      </defs>
      <g>
       <use xlink:href="#mfeca7a18dc" x="51.484922" y="126.020353" style="stroke: #000000; stroke-width: 0.6"/>
      </g>
     </g>
    </g>
    <g id="xtick_8">
     <g id="line2d_8">
      <g>
       <use xlink:href="#mfeca7a18dc" x="59.115713" y="126.020353" style="stroke: #000000; stroke-width: 0.6"/>
      </g>
     </g>
    </g>
    <g id="xtick_9">
     <g id="line2d_9">
      <g>
       <use xlink:href="#mfeca7a18dc" x="64.529845" y="126.020353" style="stroke: #000000; stroke-width: 0.6"/>
      </g>
     </g>
    </g>
    <g id="xtick_10">
     <g id="line2d_10">
      <g>
       <use xlink:href="#mfeca7a18dc" x="68.729372" y="126.020353" style="stroke: #000000; stroke-width: 0.6"/>
      </g>
     </g>
    </g>
    <g id="xtick_11">
     <g id="line2d_11">
      <g>
       <use xlink:href="#mfeca7a18dc" x="72.160635" y="126.020353" style="stroke: #000000; stroke-width: 0.6"/>
      </g>
     </g>
    </g>
    <g id="xtick_12">
     <g id="line2d_12">
      <g>
       <use xlink:href="#mfeca7a18dc" x="75.061727" y="126.020353" style="stroke: #000000; stroke-width: 0.6"/>
      </g>
     </g>
    </g>
    <g id="xtick_13">
     <g id="line2d_13">
      <g>
       <use xlink:href="#mfeca7a18dc" x="77.574767" y="126.020353" style="stroke: #000000; stroke-width: 0.6"/>
      </g>
     </g>
    </g>
    <g id="xtick_14">
     <g id="line2d_14">
      <g>
       <use xlink:href="#mfeca7a18dc" x="79.791426" y="126.020353" style="stroke: #000000; stroke-width: 0.6"/>
      </g>
     </g>
    </g>
    <g id="xtick_15">
     <g id="line2d_15">
      <g>
       <use xlink:href="#mfeca7a18dc" x="94.819217" y="126.020353" style="stroke: #000000; stroke-width: 0.6"/>
      </g>
     </g>
    </g>
    <g id="xtick_16">
     <g id="line2d_16">
      <g>
       <use xlink:href="#mfeca7a18dc" x="102.450007" y="126.020353" style="stroke: #000000; stroke-width: 0.6"/>
      </g>
     </g>
    </g>
    <g id="xtick_17">
     <g id="line2d_17">
      <g>
       <use xlink:href="#mfeca7a18dc" x="107.864139" y="126.020353" style="stroke: #000000; stroke-width: 0.6"/>
      </g>
     </g>
    </g>
    <g id="xtick_18">
     <g id="line2d_18">
      <g>
       <use xlink:href="#mfeca7a18dc" x="112.063666" y="126.020353" style="stroke: #000000; stroke-width: 0.6"/>
      </g>
     </g>
    </g>
    <g id="xtick_19">
     <g id="line2d_19">
      <g>
       <use xlink:href="#mfeca7a18dc" x="115.49493" y="126.020353" style="stroke: #000000; stroke-width: 0.6"/>
      </g>
     </g>
    </g>
    <g id="xtick_20">
     <g id="line2d_20">
      <g>
       <use xlink:href="#mfeca7a18dc" x="118.396021" y="126.020353" style="stroke: #000000; stroke-width: 0.6"/>
      </g>
     </g>
    </g>
    <g id="xtick_21">
     <g id="line2d_21">
      <g>
       <use xlink:href="#mfeca7a18dc" x="120.909062" y="126.020353" style="stroke: #000000; stroke-width: 0.6"/>
      </g>
     </g>
    </g>
    <g id="xtick_22">
     <g id="line2d_22">
      <g>
       <use xlink:href="#mfeca7a18dc" x="123.12572" y="126.020353" style="stroke: #000000; stroke-width: 0.6"/>
      </g>
     </g>
    </g>
    <g id="xtick_23">
     <g id="line2d_23">
      <g>
       <use xlink:href="#mfeca7a18dc" x="138.153511" y="126.020353" style="stroke: #000000; stroke-width: 0.6"/>
      </g>
     </g>
    </g>
    <g id="xtick_24">
     <g id="line2d_24">
      <g>
       <use xlink:href="#mfeca7a18dc" x="145.784301" y="126.020353" style="stroke: #000000; stroke-width: 0.6"/>
      </g>
     </g>
    </g>
    <g id="xtick_25">
     <g id="line2d_25">
      <g>
       <use xlink:href="#mfeca7a18dc" x="151.198433" y="126.020353" style="stroke: #000000; stroke-width: 0.6"/>
      </g>
     </g>
    </g>
    <g id="xtick_26">
     <g id="line2d_26">
      <g>
       <use xlink:href="#mfeca7a18dc" x="155.39796" y="126.020353" style="stroke: #000000; stroke-width: 0.6"/>
      </g>
     </g>
    </g>
    <g id="xtick_27">
     <g id="line2d_27">
      <g>
       <use xlink:href="#mfeca7a18dc" x="158.829224" y="126.020353" style="stroke: #000000; stroke-width: 0.6"/>
      </g>
     </g>
    </g>
    <g id="xtick_28">
     <g id="line2d_28">
      <g>
       <use xlink:href="#mfeca7a18dc" x="161.730316" y="126.020353" style="stroke: #000000; stroke-width: 0.6"/>
      </g>
     </g>
    </g>
    <g id="xtick_29">
     <g id="line2d_29">
      <g>
       <use xlink:href="#mfeca7a18dc" x="164.243356" y="126.020353" style="stroke: #000000; stroke-width: 0.6"/>
      </g>
     </g>
    </g>
    <g id="xtick_30">
     <g id="line2d_30">
      <g>
       <use xlink:href="#mfeca7a18dc" x="166.460014" y="126.020353" style="stroke: #000000; stroke-width: 0.6"/>
      </g>
     </g>
    </g>
    <g id="xtick_31">
     <g id="line2d_31">
      <g>
       <use xlink:href="#mfeca7a18dc" x="181.487805" y="126.020353" style="stroke: #000000; stroke-width: 0.6"/>
      </g>
     </g>
    </g>
    <g id="xtick_32">
     <g id="line2d_32">
      <g>
       <use xlink:href="#mfeca7a18dc" x="189.118596" y="126.020353" style="stroke: #000000; stroke-width: 0.6"/>
      </g>
     </g>
    </g>
    <g id="xtick_33">
     <g id="line2d_33">
      <g>
       <use xlink:href="#mfeca7a18dc" x="194.532728" y="126.020353" style="stroke: #000000; stroke-width: 0.6"/>
      </g>
     </g>
    </g>
    <g id="xtick_34">
     <g id="line2d_34">
      <g>
       <use xlink:href="#mfeca7a18dc" x="198.732255" y="126.020353" style="stroke: #000000; stroke-width: 0.6"/>
      </g>
     </g>
    </g>
    <g id="xtick_35">
     <g id="line2d_35">
      <g>
       <use xlink:href="#mfeca7a18dc" x="202.163518" y="126.020353" style="stroke: #000000; stroke-width: 0.6"/>
      </g>
     </g>
    </g>
    <g id="xtick_36">
     <g id="line2d_36">
      <g>
       <use xlink:href="#mfeca7a18dc" x="205.06461" y="126.020353" style="stroke: #000000; stroke-width: 0.6"/>
      </g>
     </g>
    </g>
    <g id="xtick_37">
     <g id="line2d_37">
      <g>
       <use xlink:href="#mfeca7a18dc" x="207.57765" y="126.020353" style="stroke: #000000; stroke-width: 0.6"/>
      </g>
     </g>
    </g>
    <g id="xtick_38">
     <g id="line2d_38">
      <g>
       <use xlink:href="#mfeca7a18dc" x="209.794309" y="126.020353" style="stroke: #000000; stroke-width: 0.6"/>
      </g>
     </g>
    </g>
    <g id="xtick_39">
     <g id="line2d_39">
      <g>
       <use xlink:href="#mfeca7a18dc" x="224.8221" y="126.020353" style="stroke: #000000; stroke-width: 0.6"/>
      </g>
     </g>
    </g>
    <g id="xtick_40">
     <g id="line2d_40">
      <g>
       <use xlink:href="#mfeca7a18dc" x="232.45289" y="126.020353" style="stroke: #000000; stroke-width: 0.6"/>
      </g>
     </g>
    </g>
    <g id="xtick_41">
     <g id="line2d_41">
      <g>
       <use xlink:href="#mfeca7a18dc" x="237.867022" y="126.020353" style="stroke: #000000; stroke-width: 0.6"/>
      </g>
     </g>
    </g>
    <g id="xtick_42">
     <g id="line2d_42">
      <g>
       <use xlink:href="#mfeca7a18dc" x="242.066549" y="126.020353" style="stroke: #000000; stroke-width: 0.6"/>
      </g>
     </g>
    </g>
    <g id="xtick_43">
     <g id="line2d_43">
      <g>
       <use xlink:href="#mfeca7a18dc" x="245.497812" y="126.020353" style="stroke: #000000; stroke-width: 0.6"/>
      </g>
     </g>
    </g>
    <g id="xtick_44">
     <g id="line2d_44">
      <g>
       <use xlink:href="#mfeca7a18dc" x="248.398904" y="126.020353" style="stroke: #000000; stroke-width: 0.6"/>
      </g>
     </g>
    </g>
    <g id="xtick_45">
     <g id="line2d_45">
      <g>
       <use xlink:href="#mfeca7a18dc" x="250.911944" y="126.020353" style="stroke: #000000; stroke-width: 0.6"/>
      </g>
     </g>
    </g>
    <g id="xtick_46">
     <g id="line2d_46">
      <g>
       <use xlink:href="#mfeca7a18dc" x="253.128603" y="126.020353" style="stroke: #000000; stroke-width: 0.6"/>
      </g>
     </g>
    </g>
    <g id="xtick_47">
     <g id="line2d_47">
      <g>
       <use xlink:href="#mfeca7a18dc" x="268.156394" y="126.020353" style="stroke: #000000; stroke-width: 0.6"/>
      </g>
     </g>
    </g>
    <g id="xtick_48">
     <g id="line2d_48">
      <g>
       <use xlink:href="#mfeca7a18dc" x="275.787184" y="126.020353" style="stroke: #000000; stroke-width: 0.6"/>
      </g>
     </g>
    </g>
    <g id="xtick_49">
     <g id="line2d_49">
      <g>
       <use xlink:href="#mfeca7a18dc" x="281.201316" y="126.020353" style="stroke: #000000; stroke-width: 0.6"/>
      </g>
     </g>
    </g>
   </g>
   <g id="matplotlib.axis_2">
    <g id="ytick_1">
     <g id="line2d_50">
      <defs>
       <path id="m85a3a03f62" d="M 0 0 
L -3.5 0 
" style="stroke: #000000; stroke-width: 0.8"/>
      </defs>
      <g>
       <use xlink:href="#m85a3a03f62" x="38.44" y="120.726392" style="stroke: #000000; stroke-width: 0.8"/>
      </g>
     </g>
     <g id="text_1">
      <!-- 0 -->
      <g transform="translate(25.0775 124.525611)scale(0.1 -0.1)">
       <defs>
        <path id="DejaVuSans-30" d="M 2034 4250 
Q 1547 4250 1301 3770 
Q 1056 3291 1056 2328 
Q 1056 1369 1301 889 
Q 1547 409 2034 409 
Q 2525 409 2770 889 
Q 3016 1369 3016 2328 
Q 3016 3291 2770 3770 
Q 2525 4250 2034 4250 
z
M 2034 4750 
Q 2819 4750 3233 4129 
Q 3647 3509 3647 2328 
Q 3647 1150 3233 529 
Q 2819 -91 2034 -91 
Q 1250 -91 836 529 
Q 422 1150 422 2328 
Q 422 3509 836 4129 
Q 1250 4750 2034 4750 
z
" transform="scale(0.015625)"/>
       </defs>
       <use xlink:href="#DejaVuSans-30"/>
      </g>
     </g>
    </g>
    <g id="ytick_2">
     <g id="line2d_51">
      <g>
       <use xlink:href="#m85a3a03f62" x="38.44" y="92.789922" style="stroke: #000000; stroke-width: 0.8"/>
      </g>
     </g>
     <g id="text_2">
      <!-- 20 -->
      <g transform="translate(18.715 96.589141)scale(0.1 -0.1)">
       <defs>
        <path id="DejaVuSans-32" d="M 1228 531 
L 3431 531 
L 3431 0 
L 469 0 
L 469 531 
Q 828 903 1448 1529 
Q 2069 2156 2228 2338 
Q 2531 2678 2651 2914 
Q 2772 3150 2772 3378 
Q 2772 3750 2511 3984 
Q 2250 4219 1831 4219 
Q 1534 4219 1204 4116 
Q 875 4013 500 3803 
L 500 4441 
Q 881 4594 1212 4672 
Q 1544 4750 1819 4750 
Q 2544 4750 2975 4387 
Q 3406 4025 3406 3419 
Q 3406 3131 3298 2873 
Q 3191 2616 2906 2266 
Q 2828 2175 2409 1742 
Q 1991 1309 1228 531 
z
" transform="scale(0.015625)"/>
       </defs>
       <use xlink:href="#DejaVuSans-32"/>
       <use xlink:href="#DejaVuSans-30" x="63.623047"/>
      </g>
     </g>
    </g>
    <g id="ytick_3">
     <g id="line2d_52">
      <g>
       <use xlink:href="#m85a3a03f62" x="38.44" y="64.853452" style="stroke: #000000; stroke-width: 0.8"/>
      </g>
     </g>
     <g id="text_3">
      <!-- 40 -->
      <g transform="translate(18.715 68.652671)scale(0.1 -0.1)">
       <defs>
        <path id="DejaVuSans-34" d="M 2419 4116 
L 825 1625 
L 2419 1625 
L 2419 4116 
z
M 2253 4666 
L 3047 4666 
L 3047 1625 
L 3713 1625 
L 3713 1100 
L 3047 1100 
L 3047 0 
L 2419 0 
L 2419 1100 
L 313 1100 
L 313 1709 
L 2253 4666 
z
" transform="scale(0.015625)"/>
       </defs>
       <use xlink:href="#DejaVuSans-34"/>
       <use xlink:href="#DejaVuSans-30" x="63.623047"/>
      </g>
     </g>
    </g>
    <g id="ytick_4">
     <g id="line2d_53">
      <g>
       <use xlink:href="#m85a3a03f62" x="38.44" y="36.916982" style="stroke: #000000; stroke-width: 0.8"/>
      </g>
     </g>
     <g id="text_4">
      <!-- 60 -->
      <g transform="translate(18.715 40.716201)scale(0.1 -0.1)">
       <defs>
        <path id="DejaVuSans-36" d="M 2113 2584 
Q 1688 2584 1439 2293 
Q 1191 2003 1191 1497 
Q 1191 994 1439 701 
Q 1688 409 2113 409 
Q 2538 409 2786 701 
Q 3034 994 3034 1497 
Q 3034 2003 2786 2293 
Q 2538 2584 2113 2584 
z
M 3366 4563 
L 3366 3988 
Q 3128 4100 2886 4159 
Q 2644 4219 2406 4219 
Q 1781 4219 1451 3797 
Q 1122 3375 1075 2522 
Q 1259 2794 1537 2939 
Q 1816 3084 2150 3084 
Q 2853 3084 3261 2657 
Q 3669 2231 3669 1497 
Q 3669 778 3244 343 
Q 2819 -91 2113 -91 
Q 1303 -91 875 529 
Q 447 1150 447 2328 
Q 447 3434 972 4092 
Q 1497 4750 2381 4750 
Q 2619 4750 2861 4703 
Q 3103 4656 3366 4563 
z
" transform="scale(0.015625)"/>
       </defs>
       <use xlink:href="#DejaVuSans-36"/>
       <use xlink:href="#DejaVuSans-30" x="63.623047"/>
      </g>
     </g>
    </g>
    <g id="ytick_5">
     <g id="line2d_54">
      <g>
       <use xlink:href="#m85a3a03f62" x="38.44" y="8.980512" style="stroke: #000000; stroke-width: 0.8"/>
      </g>
     </g>
     <g id="text_5">
      <!-- 80 -->
      <g transform="translate(18.715 12.779731)scale(0.1 -0.1)">
       <defs>
        <path id="DejaVuSans-38" d="M 2034 2216 
Q 1584 2216 1326 1975 
Q 1069 1734 1069 1313 
Q 1069 891 1326 650 
Q 1584 409 2034 409 
Q 2484 409 2743 651 
Q 3003 894 3003 1313 
Q 3003 1734 2745 1975 
Q 2488 2216 2034 2216 
z
M 1403 2484 
Q 997 2584 770 2862 
Q 544 3141 544 3541 
Q 544 4100 942 4425 
Q 1341 4750 2034 4750 
Q 2731 4750 3128 4425 
Q 3525 4100 3525 3541 
Q 3525 3141 3298 2862 
Q 3072 2584 2669 2484 
Q 3125 2378 3379 2068 
Q 3634 1759 3634 1313 
Q 3634 634 3220 271 
Q 2806 -91 2034 -91 
Q 1263 -91 848 271 
Q 434 634 434 1313 
Q 434 1759 690 2068 
Q 947 2378 1403 2484 
z
M 1172 3481 
Q 1172 3119 1398 2916 
Q 1625 2713 2034 2713 
Q 2441 2713 2670 2916 
Q 2900 3119 2900 3481 
Q 2900 3844 2670 4047 
Q 2441 4250 2034 4250 
Q 1625 4250 1398 4047 
Q 1172 3844 1172 3481 
z
" transform="scale(0.015625)"/>
       </defs>
       <use xlink:href="#DejaVuSans-38"/>
       <use xlink:href="#DejaVuSans-30" x="63.623047"/>
      </g>
     </g>
    </g>
    <g id="text_6">
     <!-- Accuracy -->
     <g transform="translate(12.635313 89.846655)rotate(-90)scale(0.1 -0.1)">
      <defs>
       <path id="DejaVuSans-41" d="M 2188 4044 
L 1331 1722 
L 3047 1722 
L 2188 4044 
z
M 1831 4666 
L 2547 4666 
L 4325 0 
L 3669 0 
L 3244 1197 
L 1141 1197 
L 716 0 
L 50 0 
L 1831 4666 
z
" transform="scale(0.015625)"/>
       <path id="DejaVuSans-63" d="M 3122 3366 
L 3122 2828 
Q 2878 2963 2633 3030 
Q 2388 3097 2138 3097 
Q 1578 3097 1268 2742 
Q 959 2388 959 1747 
Q 959 1106 1268 751 
Q 1578 397 2138 397 
Q 2388 397 2633 464 
Q 2878 531 3122 666 
L 3122 134 
Q 2881 22 2623 -34 
Q 2366 -91 2075 -91 
Q 1284 -91 818 406 
Q 353 903 353 1747 
Q 353 2603 823 3093 
Q 1294 3584 2113 3584 
Q 2378 3584 2631 3529 
Q 2884 3475 3122 3366 
z
" transform="scale(0.015625)"/>
       <path id="DejaVuSans-75" d="M 544 1381 
L 544 3500 
L 1119 3500 
L 1119 1403 
Q 1119 906 1312 657 
Q 1506 409 1894 409 
Q 2359 409 2629 706 
Q 2900 1003 2900 1516 
L 2900 3500 
L 3475 3500 
L 3475 0 
L 2900 0 
L 2900 538 
Q 2691 219 2414 64 
Q 2138 -91 1772 -91 
Q 1169 -91 856 284 
Q 544 659 544 1381 
z
M 1991 3584 
L 1991 3584 
z
" transform="scale(0.015625)"/>
       <path id="DejaVuSans-72" d="M 2631 2963 
Q 2534 3019 2420 3045 
Q 2306 3072 2169 3072 
Q 1681 3072 1420 2755 
Q 1159 2438 1159 1844 
L 1159 0 
L 581 0 
L 581 3500 
L 1159 3500 
L 1159 2956 
Q 1341 3275 1631 3429 
Q 1922 3584 2338 3584 
Q 2397 3584 2469 3576 
Q 2541 3569 2628 3553 
L 2631 2963 
z
" transform="scale(0.015625)"/>
       <path id="DejaVuSans-61" d="M 2194 1759 
Q 1497 1759 1228 1600 
Q 959 1441 959 1056 
Q 959 750 1161 570 
Q 1363 391 1709 391 
Q 2188 391 2477 730 
Q 2766 1069 2766 1631 
L 2766 1759 
L 2194 1759 
z
M 3341 1997 
L 3341 0 
L 2766 0 
L 2766 531 
Q 2569 213 2275 61 
Q 1981 -91 1556 -91 
Q 1019 -91 701 211 
Q 384 513 384 1019 
Q 384 1609 779 1909 
Q 1175 2209 1959 2209 
L 2766 2209 
L 2766 2266 
Q 2766 2663 2505 2880 
Q 2244 3097 1772 3097 
Q 1472 3097 1187 3025 
Q 903 2953 641 2809 
L 641 3341 
Q 956 3463 1253 3523 
Q 1550 3584 1831 3584 
Q 2591 3584 2966 3190 
Q 3341 2797 3341 1997 
z
" transform="scale(0.015625)"/>
       <path id="DejaVuSans-79" d="M 2059 -325 
Q 1816 -950 1584 -1140 
Q 1353 -1331 966 -1331 
L 506 -1331 
L 506 -850 
L 844 -850 
Q 1081 -850 1212 -737 
Q 1344 -625 1503 -206 
L 1606 56 
L 191 3500 
L 800 3500 
L 1894 763 
L 2988 3500 
L 3597 3500 
L 2059 -325 
z
" transform="scale(0.015625)"/>
      </defs>
      <use xlink:href="#DejaVuSans-41"/>
      <use xlink:href="#DejaVuSans-63" x="66.658203"/>
      <use xlink:href="#DejaVuSans-63" x="121.638672"/>
      <use xlink:href="#DejaVuSans-75" x="176.619141"/>
      <use xlink:href="#DejaVuSans-72" x="239.998047"/>
      <use xlink:href="#DejaVuSans-61" x="281.111328"/>
      <use xlink:href="#DejaVuSans-63" x="342.390625"/>
      <use xlink:href="#DejaVuSans-79" x="397.371094"/>
     </g>
    </g>
   </g>
   <g id="line2d_55">
    <path d="M 38.44 106.758159 
L 51.484922 106.758159 
L 59.115713 98.530868 
L 64.529845 96.826744 
L 68.729372 97.078173 
L 72.160635 98.363248 
L 75.061727 95.248335 
L 77.574767 97.986105 
L 79.791426 98.19563 
L 81.774294 97.455313 
L 86.711949 101.296578 
L 88.10665 101.897211 
L 89.405085 101.855308 
L 90.61969 101.450229 
L 91.760636 99.285152 
L 92.836348 99.257217 
L 93.853885 97.776582 
L 94.819217 96.114361 
L 95.73744 93.949286 
L 96.61294 90.261673 
L 97.449515 91.965796 
L 98.25048 94.172777 
L 99.018744 94.885158 
L 99.756871 91.840082 
L 100.467139 92.664211 
L 101.151572 93.22294 
L 102.450007 93.027385 
L 103.067107 85.945488 
L 108.32885 85.708028 
L 112.436349 80.735334 
L 115.806008 78.584227 
L 118.662974 78.262958 
L 121.142851 79.408353 
L 123.333676 76.251532 
L 125.295852 73.108679 
L 127.072628 70.873764 
L 128.696034 72.088998 
L 130.190457 66.04075 
L 131.574894 65.007104 
L 138.247376 58.469969 
L 145.84693 45.675066 
L 151.245424 39.026189 
L 155.435563 31.371591 
L 158.860564 28.117001 
L 161.757182 24.652874 
L 164.266866 20.001449 
L 166.480914 18.437013 
L 168.461693 16.830664 
L 181.497213 14.204629 
L 189.124868 15.028761 
L 194.537432 15.070664 
L 198.736018 14.539875 
L 202.166655 13.492257 
L 205.067298 13.617966 
L 207.580002 14.092892 
L 209.7964 13.380509 
L 211.779059 15.070664 
L 219.409222 16.006533 
L 224.823041 14.064949 
L 229.022379 16.048447 
L 232.453517 14.693526 
L 235.35452 14.944955 
L 237.867492 15.294161 
L 240.084099 13.953201 
L 242.066925 13.492257 
L 243.860614 15.294161 
L 247.004493 16.034475 
L 248.399173 14.972887 
L 249.69759 15.950669 
L 250.91218 15.699241 
L 252.053112 15.783047 
L 253.128812 15.55955 
L 254.146338 16.341778 
L 255.11166 15.922727 
L 256.905365 16.49543 
L 257.741933 15.545589 
L 258.542892 17.054161 
L 260.759533 15.741144 
L 261.443961 16.299875 
L 262.10437 16.034475 
L 262.742387 17.165899 
L 263.359483 15.098606 
L 263.956984 16.998287 
L 264.536099 16.062407 
L 265.097923 16.439555 
L 265.643461 17.123996 
L 266.17363 15.852892 
L 266.689271 16.49543 
L 267.191161 15.713201 
L 268.156488 16.467487 
L 268.621197 15.308121 
L 269.517545 15.866853 
L 269.950202 16.593207 
L 270.373136 15.852892 
L 270.786774 16.77479 
L 271.191515 15.433841 
L 271.587736 16.216059 
L 271.975786 16.439555 
L 272.355996 15.01479 
L 272.728677 16.411613 
L 273.094121 15.587492 
L 273.804385 16.523361 
L 274.149712 15.852892 
L 274.488816 16.90051 
L 274.821918 16.690984 
L 275.149227 16.062407 
L 275.470941 15.922727 
L 275.787247 15.377967 
L 276.098325 17.026219 
L 276.404344 15.517647 
L 276.705467 17.151938 
L 277.001848 15.028761 
L 277.293634 15.797018 
L 277.580964 15.755104 
L 277.863974 17.082093 
L 278.142791 15.461773 
L 278.417537 14.819235 
L 278.955282 15.629395 
L 279.2185 15.238286 
L 279.478087 15.475744 
L 279.734143 15.866853 
L 279.986761 15.461773 
L 280.482048 16.551304 
L 280.964633 15.461773 
L 281.201363 15.894795 
L 281.435153 15.629395 
L 281.666073 14.777332 
L 281.894195 16.244001 
L 282.119584 16.830664 
L 282.342307 16.327807 
L 282.562424 15.266218 
L 282.779996 16.690984 
L 282.995082 15.028761 
L 283 15.587492 
" clip-path="url(#pcb8621ed5a)" style="fill: none; stroke: #9e3303; stroke-opacity: 0.8; stroke-linecap: square"/>
   </g>
   <g id="line2d_56">
    <path d="M 38.44 106.800063 
L 51.484922 106.758159 
L 59.115713 100.067373 
L 64.529845 99.815944 
L 68.729372 98.265471 
L 72.160635 99.578484 
L 75.061727 96.882616 
L 77.574767 100.02547 
L 79.791426 101.03118 
L 81.774294 100.849595 
L 85.205558 102.888956 
L 86.711949 103.615306 
L 89.405085 103.908637 
L 90.61969 103.838796 
L 91.760636 102.246419 
L 92.836348 102.358165 
L 94.819217 100.877532 
L 95.73744 99.341025 
L 96.61294 97.329601 
L 97.449515 96.60325 
L 98.25048 98.488962 
L 99.018744 98.656582 
L 99.756871 98.502931 
L 100.467139 98.768328 
L 101.151572 98.740391 
L 101.811985 98.041979 
L 102.450007 98.083882 
L 103.067107 93.181034 
L 108.32885 96.798807 
L 112.436349 92.943574 
L 115.806008 95.443889 
L 118.662974 94.759443 
L 121.142851 95.779124 
L 123.333676 96.407695 
L 125.295852 92.915639 
L 127.072628 92.999448 
L 128.696034 95.276269 
L 130.190457 92.608336 
L 131.574894 91.043893 
L 138.247376 94.494049 
L 145.84693 98.908011 
L 151.245424 102.525782 
L 155.435563 106.772126 
L 158.860564 110.725136 
L 161.757182 110.850851 
L 164.266866 112.708626 
L 166.480914 113.951798 
L 168.461693 116.619731 
L 181.497213 112.27561 
L 189.124868 108.434345 
L 194.537432 108.015299 
L 198.736018 108.350537 
L 202.166655 105.501017 
L 205.067298 106.464824 
L 207.580002 104.593082 
L 209.7964 105.836254 
L 211.779059 103.405781 
L 219.409222 106.981649 
L 224.823041 103.41975 
L 229.022379 104.565145 
L 232.453517 104.006415 
L 235.35452 107.065459 
L 237.867492 107.107363 
L 240.084099 103.25213 
L 242.066925 102.078799 
L 243.860614 101.240706 
L 245.498126 102.064831 
L 247.004493 95.360078 
L 248.399173 90.722624 
L 249.69759 111.40958 
L 250.91218 109.370217 
L 252.053112 107.079426 
L 253.128812 106.688317 
L 255.11166 95.513729 
L 256.029874 89.214055 
L 256.905365 85.638187 
L 257.741933 84.66041 
L 259.311149 75.134074 
L 260.049271 72.116936 
L 260.759533 67.060436 
L 261.443961 66.878847 
L 262.10437 60.621079 
L 262.742387 59.056638 
L 263.359483 52.086492 
L 263.956984 50.005222 
L 264.536099 45.45158 
L 265.097923 43.649671 
L 265.643461 41.372853 
L 266.17363 41.73603 
L 267.191161 33.494769 
L 267.680013 32.754454 
L 268.156488 30.659208 
L 268.621197 27.488434 
L 269.074707 29.150647 
L 269.517545 29.402065 
L 269.950202 27.767795 
L 270.373136 25.281451 
L 270.786774 25.309383 
L 271.191515 23.102399 
L 271.587736 22.878902 
L 271.975786 22.403987 
L 272.355996 20.490335 
L 272.728677 21.551924 
L 273.094121 19.805895 
L 273.804385 20.224946 
L 274.149712 19.275105 
L 274.488816 20.588112 
L 274.821918 19.987488 
L 275.470941 18.381139 
L 275.787247 17.836379 
L 276.098325 18.953842 
L 276.404344 17.780505 
L 276.705467 19.275105 
L 277.001848 16.970345 
L 277.293634 17.501144 
L 277.580964 17.096064 
L 277.863974 18.39511 
L 278.142791 16.677013 
L 278.417537 16.174156 
L 278.68833 16.216059 
L 278.955282 16.537333 
L 279.2185 16.146224 
L 279.478087 16.49543 
L 279.734143 16.63511 
L 279.986761 16.285904 
L 280.236034 16.663042 
L 280.482048 17.389396 
L 280.724887 16.90051 
L 280.964633 16.034475 
L 281.201363 16.467487 
L 281.435153 16.244001 
L 281.666073 15.266218 
L 281.894195 16.802733 
L 282.119584 17.151938 
L 282.342307 16.746858 
L 282.562424 15.503686 
L 282.779996 17.04019 
L 282.995082 15.405898 
L 283 15.880824 
" clip-path="url(#pcb8621ed5a)" style="fill: none; stroke: #e25508; stroke-opacity: 0.8; stroke-linecap: square"/>
   </g>
   <g id="line2d_57">
    <path d="M 38.44 106.869904 
L 51.484922 106.758159 
L 59.115713 101.045149 
L 64.529845 101.268641 
L 68.729372 98.935945 
L 72.160635 100.444516 
L 75.061727 97.916265 
L 77.574767 101.464198 
L 79.791426 102.288322 
L 81.774294 102.330228 
L 86.711949 104.467368 
L 88.10665 104.704828 
L 89.405085 104.60705 
L 90.61969 104.942286 
L 91.760636 103.545464 
L 92.836348 103.643242 
L 94.819217 102.972767 
L 95.73744 101.981022 
L 96.61294 100.598166 
L 97.449515 99.955627 
L 98.25048 101.017215 
L 99.018744 101.450229 
L 99.756871 101.575942 
L 101.151572 101.520069 
L 101.811985 100.765786 
L 102.450007 100.584197 
L 103.067107 96.547378 
L 108.32885 101.380388 
L 112.436349 98.516899 
L 115.806008 101.631816 
L 118.662974 101.422292 
L 121.142851 101.883242 
L 123.333676 104.662923 
L 125.295852 100.654037 
L 127.072628 101.268641 
L 128.696034 103.894669 
L 130.190457 102.358165 
L 131.574894 100.640072 
L 138.247376 105.766414 
L 145.84693 110.278152 
L 151.245424 114.231164 
L 158.860564 118.575284 
L 164.266866 119.343537 
L 168.461693 120.125758 
L 181.497213 113.504815 
L 189.124868 110.627359 
L 194.537432 110.45974 
L 198.736018 110.13847 
L 202.166655 106.911809 
L 205.067298 108.322599 
L 207.580002 106.492761 
L 209.7964 107.680062 
L 211.779059 104.718796 
L 219.409222 108.462282 
L 224.823041 106.171491 
L 232.453517 105.6407 
L 235.35452 108.601965 
L 237.867492 108.462282 
L 240.084099 104.676891 
L 242.066925 103.447686 
L 243.860614 102.050862 
L 245.498126 102.693401 
L 247.004493 96.337855 
L 248.399173 91.574685 
L 249.69759 112.75053 
L 250.91218 110.557518 
L 252.053112 108.127045 
L 253.128812 107.512442 
L 255.11166 96.254044 
L 256.029874 89.577229 
L 256.905365 85.973425 
L 257.741933 84.939776 
L 258.542892 79.645816 
L 259.311149 75.371532 
L 260.049271 72.340427 
L 260.759533 67.25599 
L 261.443961 66.948688 
L 262.10437 60.70489 
L 262.742387 59.140444 
L 263.359483 52.156332 
L 263.956984 49.991251 
L 264.536099 45.465541 
L 265.097923 43.69158 
L 265.643461 41.400785 
L 266.17363 41.73603 
L 267.191161 33.494769 
L 267.680013 32.740483 
L 268.156488 30.659208 
L 268.621197 27.488434 
L 269.074707 29.164608 
L 269.517545 29.402065 
L 269.950202 27.767795 
L 270.373136 25.281451 
L 270.786774 25.309383 
L 271.191515 23.102399 
L 271.587736 22.878902 
L 271.975786 22.403987 
L 272.355996 20.490335 
L 272.728677 21.551924 
L 273.094121 19.805895 
L 273.804385 20.224946 
L 274.149712 19.275105 
L 274.488816 20.588112 
L 274.821918 19.987488 
L 275.470941 18.381139 
L 275.787247 17.836379 
L 276.098325 18.953842 
L 276.404344 17.780505 
L 276.705467 19.275105 
L 277.001848 16.970345 
L 277.293634 17.501144 
L 277.580964 17.096064 
L 277.863974 18.39511 
L 278.142791 16.677013 
L 278.417537 16.174156 
L 278.68833 16.216059 
L 278.955282 16.537333 
L 279.2185 16.146224 
L 279.478087 16.49543 
L 279.734143 16.63511 
L 279.986761 16.285904 
L 280.236034 16.663042 
L 280.482048 17.389396 
L 280.724887 16.90051 
L 280.964633 16.034475 
L 281.201363 16.467487 
L 281.435153 16.244001 
L 281.666073 15.266218 
L 281.894195 16.802733 
L 282.119584 17.151938 
L 282.342307 16.746858 
L 282.562424 15.503686 
L 282.779996 17.04019 
L 282.995082 15.405898 
L 283 15.880824 
" clip-path="url(#pcb8621ed5a)" style="fill: none; stroke: #f3701b; stroke-opacity: 0.8; stroke-linecap: square"/>
   </g>
   <g id="line2d_58">
    <path d="M 38.44 107.386728 
L 51.484922 106.758159 
L 59.115713 101.953085 
L 64.529845 102.358165 
L 68.729372 99.746104 
L 72.160635 101.073086 
L 75.061727 98.991819 
L 77.574767 102.511814 
L 79.791426 103.475623 
L 81.774294 103.65721 
L 83.568017 104.174035 
L 85.205558 104.830541 
L 86.711949 105.109905 
L 89.405085 105.137842 
L 90.61969 105.696572 
L 91.760636 104.634986 
L 92.836348 104.690859 
L 93.853885 104.299749 
L 94.819217 104.52324 
L 95.73744 104.104193 
L 96.61294 103.210227 
L 97.449515 103.000701 
L 98.25048 103.615306 
L 99.018744 104.034352 
L 99.756871 103.978479 
L 100.467139 104.355622 
L 101.151572 103.838796 
L 101.811985 102.679433 
L 102.450007 102.581655 
L 103.067107 99.955627 
L 108.32885 105.165778 
L 112.436349 102.567687 
L 115.806008 105.79435 
L 118.662974 105.682604 
L 121.142851 106.213396 
L 123.333676 110.082597 
L 125.295852 105.892127 
L 127.072628 107.093395 
L 128.696034 109.258471 
L 130.190457 109.062917 
L 131.574894 107.386728 
L 138.247376 112.135928 
L 151.245424 118.114332 
L 155.435563 119.469251 
L 158.860564 120.181631 
L 161.757182 120.307345 
L 164.266866 120.558773 
L 168.461693 120.474964 
L 181.497213 114.021639 
L 189.124868 111.56323 
L 194.537432 111.297834 
L 198.736018 110.808946 
L 202.166655 107.652125 
L 205.067298 109.174663 
L 207.580002 107.149267 
L 209.7964 108.350537 
L 211.779059 105.235619 
L 219.409222 108.951171 
L 224.823041 106.925777 
L 229.022379 106.297206 
L 232.453517 106.031808 
L 235.35452 108.895298 
L 237.867492 108.853393 
L 240.084099 104.928318 
L 242.066925 103.741019 
L 243.860614 102.302291 
L 245.498126 102.861021 
L 247.004493 96.46357 
L 248.399173 91.714368 
L 249.69759 113.085768 
L 250.91218 110.934661 
L 252.053112 108.350537 
L 253.128812 107.694029 
L 254.146338 102.358165 
L 255.11166 96.449601 
L 256.029874 89.661038 
L 256.905365 86.099139 
L 257.741933 85.037553 
L 258.542892 79.77153 
L 259.311149 75.525183 
L 260.049271 72.368364 
L 260.759533 67.311865 
L 261.443961 66.976625 
L 262.10437 60.70489 
L 262.742387 59.140444 
L 263.359483 52.170298 
L 263.956984 49.991251 
L 264.536099 45.465541 
L 265.097923 43.663642 
L 265.643461 41.414756 
L 266.17363 41.74999 
L 267.191161 33.494769 
L 267.680013 32.740483 
L 268.156488 30.659208 
L 268.621197 27.488434 
L 269.074707 29.164608 
L 269.517545 29.402065 
L 269.950202 27.767795 
L 270.373136 25.281451 
L 270.786774 25.309383 
L 271.191515 23.102399 
L 271.587736 22.878902 
L 271.975786 22.403987 
L 272.355996 20.490335 
L 272.728677 21.551924 
L 273.094121 19.805895 
L 273.804385 20.224946 
L 274.149712 19.275105 
L 274.488816 20.588112 
L 274.821918 19.987488 
L 275.470941 18.381139 
L 275.787247 17.836379 
L 276.098325 18.953842 
L 276.404344 17.780505 
L 276.705467 19.275105 
L 277.001848 16.970345 
L 277.293634 17.501144 
L 277.580964 17.096064 
L 277.863974 18.39511 
L 278.142791 16.677013 
L 278.417537 16.174156 
L 278.68833 16.216059 
L 278.955282 16.537333 
L 279.2185 16.146224 
L 279.478087 16.49543 
L 279.734143 16.63511 
L 279.986761 16.285904 
L 280.236034 16.663042 
L 280.482048 17.389396 
L 280.724887 16.90051 
L 280.964633 16.034475 
L 281.201363 16.467487 
L 281.435153 16.244001 
L 281.666073 15.266218 
L 281.894195 16.802733 
L 282.119584 17.151938 
L 282.342307 16.746858 
L 282.562424 15.503686 
L 282.779996 17.04019 
L 282.995082 15.405898 
L 283 15.880824 
" clip-path="url(#pcb8621ed5a)" style="fill: none; stroke: #fd8c3b; stroke-opacity: 0.8; stroke-linecap: square"/>
   </g>
   <g id="line2d_59">
    <path d="M 38.44 109.18863 
L 51.484922 106.758159 
L 59.115713 102.847053 
L 64.529845 103.349909 
L 68.729372 100.416579 
L 72.160635 101.981022 
L 75.061727 99.85785 
L 77.574767 103.377846 
L 79.791426 104.481336 
L 83.568017 104.872445 
L 86.711949 105.528954 
L 88.10665 105.47308 
L 89.405085 105.584827 
L 90.61969 106.325143 
L 91.760636 105.249588 
L 92.836348 105.55689 
L 93.853885 105.47308 
L 94.819217 105.752445 
L 95.73744 105.724508 
L 96.61294 104.760701 
L 98.25048 105.235619 
L 99.018744 105.738477 
L 99.756871 105.696572 
L 100.467139 106.073714 
L 101.151572 105.682604 
L 101.811985 104.718796 
L 102.450007 104.397526 
L 103.067107 102.120705 
L 108.32885 107.819743 
L 112.436349 105.305461 
L 115.806008 108.434345 
L 118.662974 108.071172 
L 121.142851 109.27244 
L 123.333676 112.946085 
L 125.295852 109.18863 
L 127.072628 110.529581 
L 128.696034 112.024183 
L 130.190457 111.996245 
L 131.574894 110.669263 
L 138.247376 115.111162 
L 145.84693 117.779095 
L 151.245424 119.539092 
L 158.860564 120.530837 
L 168.461693 120.544805 
L 181.497213 114.133386 
L 189.124868 111.912437 
L 194.537432 111.661008 
L 198.736018 110.976565 
L 202.166655 107.945458 
L 205.067298 109.481963 
L 207.580002 107.316886 
L 209.7964 108.56006 
L 211.779059 105.389271 
L 219.409222 109.048948 
L 224.823041 107.093395 
L 229.022379 106.353079 
L 232.453517 106.087681 
L 235.35452 109.021013 
L 237.867492 108.895298 
L 240.084099 104.998159 
L 242.066925 103.754987 
L 243.860614 102.302291 
L 245.498126 102.94483 
L 247.004493 96.505473 
L 248.399173 91.728336 
L 249.69759 113.113704 
L 250.91218 110.934661 
L 252.053112 108.378472 
L 253.128812 107.721966 
L 254.146338 102.46991 
L 255.11166 96.477538 
L 256.029874 89.675007 
L 256.905365 86.113108 
L 257.741933 85.051519 
L 258.542892 79.785496 
L 259.311149 75.525183 
L 260.049271 72.38233 
L 260.759533 67.311865 
L 261.443961 66.976625 
L 262.10437 60.732827 
L 262.742387 59.126478 
L 263.359483 52.170298 
L 263.956984 49.991251 
L 264.536099 45.465541 
L 265.097923 43.663642 
L 265.643461 41.414756 
L 266.17363 41.74999 
L 267.191161 33.494769 
L 267.680013 32.740483 
L 268.156488 30.67318 
L 268.621197 27.488434 
L 269.074707 29.164608 
L 269.517545 29.402065 
L 269.950202 27.767795 
L 270.373136 25.281451 
L 270.786774 25.309383 
L 271.191515 23.102399 
L 271.587736 22.878902 
L 271.975786 22.403987 
L 272.355996 20.490335 
L 272.728677 21.551924 
L 273.094121 19.805895 
L 273.804385 20.224946 
L 274.149712 19.275105 
L 274.488816 20.588112 
L 274.821918 19.987488 
L 275.470941 18.381139 
L 275.787247 17.836379 
L 276.098325 18.953842 
L 276.404344 17.780505 
L 276.705467 19.275105 
L 277.001848 16.970345 
L 277.293634 17.501144 
L 277.580964 17.096064 
L 277.863974 18.39511 
L 278.142791 16.677013 
L 278.417537 16.174156 
L 278.68833 16.216059 
L 278.955282 16.537333 
L 279.2185 16.146224 
L 279.478087 16.49543 
L 279.734143 16.63511 
L 279.986761 16.285904 
L 280.236034 16.663042 
L 280.482048 17.389396 
L 280.724887 16.90051 
L 280.964633 16.034475 
L 281.201363 16.467487 
L 281.435153 16.244001 
L 281.666073 15.266218 
L 281.894195 16.802733 
L 282.119584 17.151938 
L 282.342307 16.746858 
L 282.562424 15.503686 
L 282.779996 17.04019 
L 282.995082 15.405898 
L 283 15.880824 
" clip-path="url(#pcb8621ed5a)" style="fill: none; stroke: #fda762; stroke-opacity: 0.8; stroke-linecap: square"/>
   </g>
   <g id="line2d_60">
    <path d="M 38.44 109.18863 
L 51.484922 106.758159 
L 59.115713 102.847053 
L 64.529845 103.349909 
L 68.729372 100.416579 
L 72.160635 101.981022 
L 75.061727 99.85785 
L 77.574767 103.377846 
L 79.791426 104.481336 
L 83.568017 104.872445 
L 86.711949 105.528954 
L 88.10665 105.47308 
L 89.405085 105.584827 
L 90.61969 106.325143 
L 91.760636 105.249588 
L 92.836348 105.55689 
L 93.853885 105.47308 
L 94.819217 105.752445 
L 95.73744 105.724508 
L 96.61294 104.760701 
L 98.25048 105.235619 
L 99.018744 105.738477 
L 99.756871 105.696572 
L 100.467139 106.073714 
L 101.151572 105.682604 
L 101.811985 104.718796 
L 102.450007 104.397526 
L 103.067107 102.120705 
L 108.32885 107.819743 
L 112.436349 105.305461 
L 115.806008 108.434345 
L 118.662974 108.071172 
L 121.142851 109.27244 
L 123.333676 112.946085 
L 125.295852 109.18863 
L 127.072628 110.529581 
L 128.696034 112.024183 
L 130.190457 111.996245 
L 131.574894 110.669263 
L 138.247376 115.111162 
L 145.84693 117.779095 
L 151.245424 119.539092 
L 158.860564 120.530837 
L 168.461693 120.544805 
L 181.497213 114.133386 
L 189.124868 111.912437 
L 194.537432 111.661008 
L 198.736018 110.976565 
L 202.166655 107.945458 
L 205.067298 109.481963 
L 207.580002 107.316886 
L 209.7964 108.56006 
L 211.779059 105.389271 
L 219.409222 109.048948 
L 224.823041 107.093395 
L 229.022379 106.353079 
L 232.453517 106.087681 
L 235.35452 109.021013 
L 237.867492 108.895298 
L 240.084099 104.998159 
L 242.066925 103.754987 
L 243.860614 102.302291 
L 245.498126 102.94483 
L 247.004493 96.505473 
L 248.399173 91.728336 
L 249.69759 113.113704 
L 250.91218 110.934661 
L 252.053112 108.378472 
L 253.128812 107.721966 
L 254.146338 102.46991 
L 255.11166 96.477538 
L 256.029874 89.675007 
L 256.905365 86.113108 
L 257.741933 85.051519 
L 258.542892 79.785496 
L 259.311149 75.525183 
L 260.049271 72.38233 
L 260.759533 67.311865 
L 261.443961 66.976625 
L 262.10437 60.732827 
L 262.742387 59.126478 
L 263.359483 52.170298 
L 263.956984 49.991251 
L 264.536099 45.465541 
L 265.097923 43.663642 
L 265.643461 41.414756 
L 266.17363 41.74999 
L 267.191161 33.494769 
L 267.680013 32.740483 
L 268.156488 30.67318 
L 268.621197 27.488434 
L 269.074707 29.164608 
L 269.517545 29.402065 
L 269.950202 27.767795 
L 270.373136 25.281451 
L 270.786774 25.309383 
L 271.191515 23.102399 
L 271.587736 22.878902 
L 271.975786 22.403987 
L 272.355996 20.490335 
L 272.728677 21.551924 
L 273.094121 19.805895 
L 273.804385 20.224946 
L 274.149712 19.275105 
L 274.488816 20.588112 
L 274.821918 19.987488 
L 275.470941 18.381139 
L 275.787247 17.836379 
L 276.098325 18.953842 
L 276.404344 17.780505 
L 276.705467 19.275105 
L 277.001848 16.970345 
L 277.293634 17.501144 
L 277.580964 17.096064 
L 277.863974 18.39511 
L 278.142791 16.677013 
L 278.417537 16.174156 
L 278.68833 16.216059 
L 278.955282 16.537333 
L 279.2185 16.146224 
L 279.478087 16.49543 
L 279.734143 16.63511 
L 279.986761 16.285904 
L 280.236034 16.663042 
L 280.482048 17.389396 
L 280.724887 16.90051 
L 280.964633 16.034475 
L 281.201363 16.467487 
L 281.435153 16.244001 
L 281.666073 15.266218 
L 281.894195 16.802733 
L 282.119584 17.151938 
L 282.342307 16.746858 
L 282.562424 15.503686 
L 282.779996 17.04019 
L 282.995082 15.405898 
L 283 15.880824 
" clip-path="url(#pcb8621ed5a)" style="fill: none; stroke: #fdc38d; stroke-opacity: 0.8; stroke-linecap: square"/>
   </g>
   <g id="patch_3">
    <path d="M 38.44 126.020353 
L 38.44 8.016706 
" style="fill: none; stroke: #000000; stroke-width: 0.8; stroke-linejoin: miter; stroke-linecap: square"/>
   </g>
   <g id="patch_4">
    <path d="M 283 126.020353 
L 283 8.016706 
" style="fill: none; stroke: #000000; stroke-width: 0.8; stroke-linejoin: miter; stroke-linecap: square"/>
   </g>
   <g id="patch_5">
    <path d="M 38.44 126.020353 
L 283 126.020353 
" style="fill: none; stroke: #000000; stroke-width: 0.8; stroke-linejoin: miter; stroke-linecap: square"/>
   </g>
   <g id="patch_6">
    <path d="M 38.44 8.016706 
L 283 8.016706 
" style="fill: none; stroke: #000000; stroke-width: 0.8; stroke-linejoin: miter; stroke-linecap: square"/>
   </g>
  </g>
  <g id="axes_2">
   <g id="patch_7">
    <path d="M 38.44 252.524 
L 283 252.524 
L 283 134.520353 
L 38.44 134.520353 
z
" style="fill: #ffffff"/>
   </g>
   <g id="PolyCollection_1">
    <defs>
     <path id="m73011e2a39" d="M 38.44 -122.877502 
L 38.44 -117.285619 
L 51.484922 -113.643131 
L 59.115713 -117.901776 
L 64.529845 -113.430441 
L 68.729372 -105.66313 
L 72.160635 -101.609493 
L 75.061727 -105.339649 
L 77.574767 -108.345258 
L 79.791426 -107.931787 
L 81.774294 -110.902477 
L 83.568017 -109.131115 
L 85.205558 -108.801221 
L 86.711949 -107.186633 
L 88.10665 -108.549645 
L 89.405085 -107.528947 
L 90.61969 -107.353159 
L 91.760636 -105.179354 
L 92.836348 -104.630892 
L 93.853885 -102.863236 
L 94.819217 -103.759387 
L 95.73744 -103.799701 
L 96.61294 -103.054482 
L 97.449515 -102.276768 
L 98.25048 -101.376008 
L 99.018744 -100.543361 
L 99.756871 -98.228548 
L 100.467139 -98.655796 
L 101.151572 -98.291027 
L 101.811985 -94.536824 
L 102.450007 -95.372335 
L 103.067107 -95.008136 
L 108.32885 -96.695316 
L 112.436349 -99.957131 
L 115.806008 -100.876032 
L 118.662974 -101.229 
L 121.142851 -101.170719 
L 123.333676 -101.954253 
L 125.295852 -102.917817 
L 127.072628 -103.957853 
L 128.696034 -107.07869 
L 130.190457 -105.478146 
L 131.574894 -105.680492 
L 138.247376 -111.700366 
L 145.84693 -118.926917 
L 151.245424 -127.379925 
L 155.435563 -131.620458 
L 158.860564 -135.829514 
L 161.757182 -137.739712 
L 164.266866 -141.956746 
L 166.480914 -138.180954 
L 168.461693 -138.477603 
L 181.497213 -141.531929 
L 189.124868 -135.655132 
L 194.537432 -132.290965 
L 198.736018 -130.868156 
L 202.166655 -136.625411 
L 205.067298 -124.876644 
L 207.580002 -129.697983 
L 209.7964 -130.999844 
L 211.779059 -127.111976 
L 219.409222 -124.829421 
L 224.823041 -121.665623 
L 229.022379 -117.957864 
L 232.453517 -125.600311 
L 235.35452 -120.885775 
L 237.867492 -115.194519 
L 240.084099 -113.854508 
L 242.066925 -108.04229 
L 243.860614 -114.90985 
L 245.498126 -106.718054 
L 247.004493 -100.01943 
L 248.399173 -106.842594 
L 249.69759 -97.213664 
L 250.91218 -97.925508 
L 252.053112 -98.428428 
L 253.128812 -96.582822 
L 254.146338 -98.779427 
L 255.11166 -94.460359 
L 256.029874 -95.251207 
L 256.905365 -92.430208 
L 257.741933 -94.881274 
L 258.542892 -89.678591 
L 259.311149 -99.393341 
L 260.049271 -97.976288 
L 260.759533 -92.846233 
L 261.443961 -93.106348 
L 262.10437 -90.514275 
L 262.742387 -89.756289 
L 263.359483 -91.87384 
L 263.956984 -88.418825 
L 264.536099 -89.650453 
L 265.097923 -89.478228 
L 265.643461 -86.19222 
L 266.17363 -93.503056 
L 266.689271 -89.927252 
L 267.191161 -87.873608 
L 267.680013 -88.687769 
L 268.156488 -86.2827 
L 268.621197 -93.417921 
L 269.074707 -86.655101 
L 269.517545 -88.743908 
L 269.950202 -84.010669 
L 270.373136 -83.567739 
L 270.786774 -86.088454 
L 271.191515 -86.038064 
L 271.587736 -83.076555 
L 271.975786 -92.90116 
L 272.355996 -85.206022 
L 272.728677 -81.359427 
L 273.094121 -86.572743 
L 273.452604 -84.001558 
L 273.804385 -87.106289 
L 274.149712 -85.487755 
L 274.488816 -80.113727 
L 274.821918 -82.915323 
L 275.149227 -82.958284 
L 275.470941 -85.330685 
L 275.787247 -85.703489 
L 276.098325 -85.533435 
L 276.404344 -84.809451 
L 276.705467 -83.479524 
L 277.001848 -83.934088 
L 277.293634 -87.042735 
L 277.580964 -83.146312 
L 277.863974 -83.927654 
L 278.142791 -81.07975 
L 278.417537 -82.653029 
L 278.68833 -90.689753 
L 278.955282 -82.753874 
L 279.2185 -87.183042 
L 279.478087 -92.945815 
L 279.734143 -86.772795 
L 279.986761 -95.394306 
L 280.236034 -83.654151 
L 280.482048 -84.567065 
L 280.724887 -93.996274 
L 280.964633 -88.636845 
L 281.201363 -82.835814 
L 281.435153 -94.137353 
L 281.666073 -87.879876 
L 281.894195 -87.459416 
L 282.119584 -101.882585 
L 282.342307 -106.071538 
L 282.562424 -96.393524 
L 282.779996 -97.912438 
L 282.995082 -89.286953 
L 283 -95.882569 
L 283 -100.817678 
L 283 -100.817678 
L 282.995082 -93.497848 
L 282.779996 -102.77927 
L 282.562424 -101.063065 
L 282.342307 -110.931676 
L 282.119584 -106.662038 
L 281.894195 -91.661871 
L 281.666073 -91.666848 
L 281.435153 -98.497572 
L 281.201363 -86.458979 
L 280.964633 -92.771181 
L 280.724887 -98.547075 
L 280.482048 -88.211032 
L 280.236034 -87.401495 
L 279.986761 -99.82576 
L 279.734143 -90.629012 
L 279.478087 -97.491004 
L 279.2185 -91.412359 
L 278.955282 -86.484787 
L 278.68833 -94.644745 
L 278.417537 -86.231099 
L 278.142791 -84.581073 
L 277.863974 -87.494341 
L 277.580964 -86.895965 
L 277.293634 -90.728379 
L 277.001848 -87.490864 
L 276.705467 -87.189087 
L 276.404344 -88.509305 
L 276.098325 -89.38958 
L 275.787247 -89.39385 
L 275.470941 -89.06053 
L 275.149227 -86.575822 
L 274.821918 -86.556737 
L 274.488816 -83.66808 
L 274.149712 -89.246178 
L 273.804385 -90.744586 
L 273.452604 -87.961109 
L 273.094121 -90.397713 
L 272.728677 -85.158186 
L 272.355996 -89.096559 
L 271.975786 -97.210671 
L 271.587736 -86.829814 
L 271.191515 -89.907192 
L 270.786774 -89.909991 
L 270.373136 -87.272238 
L 269.950202 -87.863366 
L 269.517545 -92.658218 
L 269.074707 -91.080554 
L 268.621197 -97.742738 
L 268.156488 -89.940271 
L 267.680013 -92.989115 
L 267.191161 -91.593355 
L 266.689271 -93.909336 
L 266.17363 -97.805325 
L 265.643461 -90.080983 
L 265.097923 -93.409979 
L 264.536099 -93.979324 
L 263.956984 -92.353995 
L 263.359483 -96.045799 
L 262.742387 -93.589857 
L 262.10437 -94.781806 
L 261.443961 -97.046842 
L 260.759533 -97.956935 
L 260.049271 -103.909014 
L 259.311149 -106.365244 
L 258.542892 -93.478474 
L 257.741933 -99.121569 
L 256.905365 -96.455527 
L 256.029874 -99.215475 
L 255.11166 -98.691595 
L 254.146338 -103.229967 
L 253.128812 -100.681728 
L 252.053112 -102.874856 
L 250.91218 -102.526887 
L 249.69759 -101.522194 
L 248.399173 -111.620114 
L 247.004493 -104.256017 
L 245.498126 -112.35623 
L 243.860614 -119.941181 
L 242.066925 -113.197598 
L 240.084099 -118.736371 
L 237.867492 -119.872182 
L 235.35452 -125.998714 
L 232.453517 -130.871359 
L 229.022379 -123.038417 
L 224.823041 -127.148113 
L 219.409222 -129.701171 
L 211.779059 -132.907987 
L 209.7964 -136.474183 
L 207.580002 -135.424302 
L 205.067298 -130.410289 
L 202.166655 -142.728451 
L 198.736018 -136.446334 
L 194.537432 -137.664798 
L 189.124868 -141.639474 
L 181.497213 -147.55978 
L 168.461693 -143.880945 
L 166.480914 -143.917601 
L 164.266866 -148.115845 
L 161.757182 -143.723644 
L 158.860564 -141.095787 
L 155.435563 -137.197843 
L 151.245424 -133.133422 
L 145.84693 -123.865662 
L 138.247376 -116.458843 
L 131.574894 -110.043437 
L 130.190457 -110.621004 
L 128.696034 -111.593786 
L 127.072628 -108.516184 
L 125.295852 -107.446748 
L 123.333676 -106.419017 
L 121.142851 -105.920324 
L 118.662974 -105.628645 
L 115.806008 -105.36708 
L 112.436349 -104.531042 
L 108.32885 -101.198525 
L 103.067107 -99.319696 
L 102.450007 -99.895005 
L 101.811985 -99.073069 
L 101.151572 -103.094976 
L 100.467139 -103.211776 
L 99.756871 -102.823608 
L 99.018744 -105.182723 
L 98.25048 -106.418188 
L 97.449515 -107.124644 
L 96.61294 -107.898015 
L 95.73744 -108.609347 
L 94.819217 -108.614202 
L 93.853885 -107.870635 
L 92.836348 -109.698547 
L 91.760636 -110.337764 
L 90.61969 -112.870402 
L 89.405085 -113.052104 
L 88.10665 -113.812932 
L 86.711949 -112.381035 
L 85.205558 -114.161104 
L 83.568017 -114.324608 
L 81.774294 -116.231532 
L 79.791426 -113.042201 
L 77.574767 -113.674601 
L 75.061727 -110.399053 
L 72.160635 -106.29698 
L 68.729372 -110.672375 
L 64.529845 -118.994986 
L 59.115713 -123.493356 
L 51.484922 -119.458862 
L 38.44 -122.877502 
z
" style="stroke: #006428; stroke-opacity: 0.1"/>
    </defs>
    <g clip-path="url(#pb0cd2617a9)">
     <use xlink:href="#m73011e2a39" x="0" y="288" style="fill: #006428; fill-opacity: 0.1; stroke: #006428; stroke-opacity: 0.1"/>
    </g>
   </g>
   <g id="PolyCollection_2">
    <defs>
     <path id="m2c2a1386f0" d="M 38.44 -120.390248 
L 38.44 -115.122576 
L 51.484922 -111.32319 
L 59.115713 -116.562775 
L 64.529845 -111.124912 
L 68.729372 -104.288483 
L 72.160635 -100.476777 
L 75.061727 -103.608859 
L 77.574767 -107.020243 
L 79.791426 -108.166166 
L 81.774294 -109.227783 
L 83.568017 -109.683919 
L 85.205558 -108.209091 
L 86.711949 -108.007328 
L 88.10665 -107.503038 
L 89.405085 -106.485521 
L 90.61969 -105.5307 
L 91.760636 -105.106835 
L 92.836348 -103.560972 
L 93.853885 -103.982132 
L 94.819217 -102.963584 
L 95.73744 -102.072749 
L 96.61294 -102.674977 
L 97.449515 -101.683116 
L 98.25048 -100.375334 
L 99.018744 -99.293462 
L 99.756871 -98.085204 
L 100.467139 -97.119448 
L 101.151572 -96.185558 
L 101.811985 -94.899927 
L 102.450007 -94.370737 
L 103.067107 -95.357541 
L 108.32885 -95.674798 
L 112.436349 -99.33058 
L 115.806008 -100.633249 
L 118.662974 -100.785133 
L 121.142851 -102.801507 
L 123.333676 -100.656691 
L 125.295852 -102.222729 
L 127.072628 -104.27617 
L 128.696034 -106.866043 
L 130.190457 -103.493682 
L 131.574894 -105.092235 
L 138.247376 -110.439164 
L 145.84693 -119.835547 
L 151.245424 -128.062268 
L 155.435563 -132.221092 
L 158.860564 -136.655179 
L 161.757182 -137.125092 
L 164.266866 -139.906434 
L 166.480914 -138.203819 
L 168.461693 -140.37114 
L 181.497213 -141.721357 
L 189.124868 -134.520007 
L 194.537432 -131.843513 
L 198.736018 -130.029471 
L 202.166655 -136.424226 
L 205.067298 -125.338789 
L 207.580002 -129.234511 
L 209.7964 -130.48309 
L 211.779059 -127.495153 
L 219.409222 -127.795618 
L 224.823041 -119.947334 
L 229.022379 -118.160319 
L 232.453517 -126.442638 
L 235.35452 -120.971256 
L 237.867492 -115.824055 
L 240.084099 -115.141409 
L 242.066925 -106.977109 
L 243.860614 -115.313923 
L 245.498126 -106.551152 
L 247.004493 -100.724926 
L 248.399173 -106.008287 
L 249.69759 -98.013608 
L 250.91218 -97.942178 
L 252.053112 -97.557306 
L 253.128812 -98.309067 
L 254.146338 -98.783229 
L 255.11166 -92.588382 
L 256.029874 -97.499552 
L 256.905365 -92.786624 
L 257.741933 -94.090779 
L 258.542892 -88.717198 
L 259.311149 -100.030155 
L 260.049271 -98.5188 
L 260.759533 -93.172816 
L 261.443961 -93.132812 
L 262.10437 -90.343586 
L 262.742387 -89.980051 
L 263.359483 -90.527172 
L 263.956984 -87.905158 
L 264.536099 -88.831524 
L 265.097923 -90.975489 
L 265.643461 -85.882573 
L 266.17363 -93.813785 
L 266.689271 -89.07008 
L 267.191161 -87.87746 
L 267.680013 -86.866665 
L 268.156488 -87.412409 
L 268.621197 -93.537852 
L 269.074707 -86.061802 
L 269.517545 -89.079774 
L 269.950202 -84.281813 
L 270.373136 -82.916434 
L 270.786774 -86.65663 
L 271.191515 -86.481823 
L 271.587736 -83.586587 
L 271.975786 -93.518211 
L 272.355996 -86.464591 
L 272.728677 -81.83519 
L 273.094121 -87.009245 
L 273.452604 -83.068946 
L 273.804385 -86.327399 
L 274.149712 -84.816873 
L 274.488816 -79.669153 
L 274.821918 -83.17704 
L 275.149227 -82.063287 
L 275.470941 -86.178927 
L 275.787247 -84.051141 
L 276.098325 -82.911818 
L 276.404344 -83.702745 
L 276.705467 -83.522189 
L 277.001848 -83.744869 
L 277.293634 -86.556903 
L 277.580964 -82.464229 
L 277.863974 -82.535198 
L 278.142791 -80.939602 
L 278.417537 -81.393018 
L 278.68833 -89.583776 
L 278.955282 -83.399749 
L 279.2185 -87.982157 
L 279.478087 -92.568734 
L 279.734143 -85.982993 
L 279.986761 -95.04814 
L 280.236034 -83.767489 
L 280.482048 -83.852278 
L 280.724887 -94.202234 
L 280.964633 -87.285546 
L 281.201363 -83.208344 
L 281.435153 -93.201473 
L 281.666073 -87.786273 
L 281.894195 -87.56958 
L 282.119584 -101.752693 
L 282.342307 -105.184951 
L 282.562424 -97.631838 
L 282.779996 -97.576327 
L 282.995082 -90.572931 
L 283 -95.473332 
L 283 -100.048094 
L 283 -100.048094 
L 282.995082 -94.87383 
L 282.779996 -102.048823 
L 282.562424 -102.531027 
L 282.342307 -110.057409 
L 282.119584 -106.889435 
L 281.894195 -91.587166 
L 281.666073 -91.689548 
L 281.435153 -97.625339 
L 281.201363 -86.84279 
L 280.964633 -91.425076 
L 280.724887 -99.094499 
L 280.482048 -87.489956 
L 280.236034 -87.5452 
L 279.986761 -99.341739 
L 279.734143 -89.926819 
L 279.478087 -96.857673 
L 279.2185 -91.913201 
L 278.955282 -87.079781 
L 278.68833 -93.493513 
L 278.417537 -85.177783 
L 278.142791 -84.653275 
L 277.863974 -86.0594 
L 277.580964 -86.295821 
L 277.293634 -90.381051 
L 277.001848 -87.428955 
L 276.705467 -87.294144 
L 276.404344 -87.512438 
L 276.098325 -86.560242 
L 275.787247 -87.707673 
L 275.470941 -90.0086 
L 275.149227 -85.689294 
L 274.821918 -86.83865 
L 274.488816 -83.072682 
L 274.149712 -88.478253 
L 273.804385 -90.128985 
L 273.452604 -86.654242 
L 273.094121 -90.620047 
L 272.728677 -85.39149 
L 272.355996 -90.189733 
L 271.975786 -97.471096 
L 271.587736 -87.274063 
L 271.191515 -90.252277 
L 270.786774 -90.405416 
L 270.373136 -86.673804 
L 269.950202 -88.070833 
L 269.517545 -92.948686 
L 269.074707 -89.907099 
L 268.621197 -97.634622 
L 268.156488 -91.138676 
L 267.680013 -90.673993 
L 267.191161 -91.592461 
L 266.689271 -92.881576 
L 266.17363 -97.787084 
L 265.643461 -89.746566 
L 265.097923 -95.588047 
L 264.536099 -92.795143 
L 263.956984 -91.762702 
L 263.359483 -94.5946 
L 262.742387 -93.856537 
L 262.10437 -94.281844 
L 261.443961 -97.174014 
L 260.759533 -97.329007 
L 260.049271 -105.130313 
L 259.311149 -106.659081 
L 258.542892 -92.557878 
L 257.741933 -98.236887 
L 256.905365 -96.719544 
L 256.029874 -101.771065 
L 255.11166 -96.743477 
L 254.146338 -103.069572 
L 253.128812 -102.57468 
L 252.053112 -101.654221 
L 250.91218 -102.129097 
L 249.69759 -102.113798 
L 248.399173 -110.525172 
L 247.004493 -105.202068 
L 245.498126 -113.371049 
L 243.860614 -120.399798 
L 242.066925 -111.689452 
L 240.084099 -120.161647 
L 237.867492 -120.956224 
L 235.35452 -125.895503 
L 232.453517 -131.76624 
L 229.022379 -123.264357 
L 224.823041 -125.188116 
L 219.409222 -133.26726 
L 211.779059 -132.835027 
L 209.7964 -135.986426 
L 207.580002 -134.5376 
L 205.067298 -130.639482 
L 202.166655 -142.226483 
L 198.736018 -135.482806 
L 194.537432 -137.447499 
L 189.124868 -140.142199 
L 181.497213 -147.52696 
L 168.461693 -146.173858 
L 166.480914 -143.809046 
L 164.266866 -145.636994 
L 161.757182 -142.621698 
L 158.860564 -142.149145 
L 155.435563 -137.533774 
L 151.245424 -133.38173 
L 145.84693 -124.901053 
L 138.247376 -115.096487 
L 131.574894 -109.58878 
L 130.190457 -107.872438 
L 128.696034 -111.445984 
L 127.072628 -108.617404 
L 125.295852 -106.738474 
L 123.333676 -105.107808 
L 121.142851 -109.474591 
L 118.662974 -105.144804 
L 115.806008 -104.980571 
L 112.436349 -103.739458 
L 108.32885 -100.162759 
L 103.067107 -99.679358 
L 102.450007 -98.80486 
L 101.811985 -99.315628 
L 101.151572 -100.570821 
L 100.467139 -101.527777 
L 99.756871 -102.603546 
L 99.018744 -103.879982 
L 98.25048 -104.975543 
L 97.449515 -106.379937 
L 96.61294 -107.512321 
L 95.73744 -106.917999 
L 94.819217 -107.947554 
L 93.853885 -109.032578 
L 92.836348 -108.7624 
L 91.760636 -110.283248 
L 90.61969 -110.668899 
L 89.405085 -111.675827 
L 88.10665 -112.682106 
L 86.711949 -113.129154 
L 85.205558 -113.3351 
L 83.568017 -114.791088 
L 81.774294 -114.449523 
L 79.791426 -113.183042 
L 77.574767 -112.003809 
L 75.061727 -108.297933 
L 72.160635 -105.057267 
L 68.729372 -109.213711 
L 64.529845 -116.221824 
L 59.115713 -121.854265 
L 51.484922 -116.327848 
L 38.44 -120.390248 
z
" style="stroke: #9e3303; stroke-opacity: 0.1"/>
    </defs>
    <g clip-path="url(#pb0cd2617a9)">
     <use xlink:href="#m2c2a1386f0" x="0" y="288" style="fill: #9e3303; fill-opacity: 0.1; stroke: #9e3303; stroke-opacity: 0.1"/>
    </g>
   </g>
   <g id="PolyCollection_3">
    <defs>
     <path id="mc4b3b92cc9" d="M 38.44 -71.794506 
L 38.44 -70.17018 
L 51.484922 -67.594571 
L 59.115713 -70.167115 
L 64.529845 -70.369829 
L 68.729372 -68.658857 
L 72.160635 -64.061709 
L 75.061727 -65.891609 
L 77.574767 -67.921684 
L 79.791426 -67.681405 
L 81.774294 -66.539142 
L 83.568017 -65.043133 
L 85.205558 -64.249569 
L 86.711949 -62.978154 
L 88.10665 -62.169331 
L 89.405085 -61.375427 
L 90.61969 -60.993113 
L 91.760636 -60.593725 
L 92.836348 -60.323847 
L 93.853885 -60.351678 
L 94.819217 -59.937767 
L 95.73744 -60.59823 
L 96.61294 -61.244118 
L 97.449515 -61.80384 
L 98.25048 -61.468064 
L 99.018744 -61.047885 
L 99.756871 -60.703201 
L 100.467139 -60.583594 
L 101.151572 -60.349828 
L 101.811985 -59.99171 
L 102.450007 -60.019018 
L 103.067107 -60.493115 
L 108.32885 -60.034061 
L 112.436349 -61.251367 
L 115.806008 -61.477199 
L 118.662974 -61.66063 
L 121.142851 -61.746984 
L 123.333676 -61.076124 
L 125.295852 -60.081645 
L 127.072628 -59.95241 
L 128.696034 -60.307885 
L 130.190457 -59.562301 
L 131.574894 -58.743625 
L 138.247376 -59.493976 
L 145.84693 -57.183651 
L 151.245424 -56.279947 
L 155.435563 -55.512444 
L 158.860564 -55.150712 
L 161.757182 -54.809436 
L 164.266866 -55.649906 
L 166.480914 -55.037702 
L 168.461693 -55.819242 
L 181.497213 -54.943919 
L 189.124868 -53.987092 
L 194.537432 -54.073251 
L 198.736018 -52.541274 
L 202.166655 -52.835434 
L 205.067298 -52.452954 
L 207.580002 -52.507156 
L 209.7964 -52.461905 
L 211.779059 -51.846322 
L 219.409222 -51.406711 
L 224.823041 -50.689039 
L 229.022379 -49.909006 
L 232.453517 -50.098878 
L 235.35452 -49.375173 
L 237.867492 -48.63661 
L 240.084099 -47.390264 
L 242.066925 -48.100323 
L 243.860614 -48.393918 
L 245.498126 -47.085958 
L 247.004493 -46.506613 
L 248.399173 -46.02578 
L 249.69759 -44.944612 
L 250.91218 -44.792313 
L 252.053112 -44.982707 
L 253.128812 -45.61382 
L 254.146338 -44.619294 
L 255.11166 -44.371997 
L 256.029874 -44.179361 
L 256.905365 -44.276641 
L 257.741933 -44.066836 
L 258.542892 -43.304373 
L 259.311149 -44.198471 
L 260.049271 -43.607106 
L 260.759533 -43.318651 
L 261.443961 -42.957546 
L 262.10437 -42.758817 
L 262.742387 -42.622657 
L 263.359483 -43.363031 
L 263.956984 -42.454897 
L 264.536099 -42.620848 
L 265.097923 -41.852505 
L 265.643461 -42.520324 
L 266.17363 -43.359682 
L 266.689271 -42.511405 
L 267.191161 -42.266412 
L 267.680013 -42.314007 
L 268.156488 -42.319328 
L 268.621197 -43.295583 
L 269.074707 -41.800767 
L 269.517545 -42.818061 
L 269.950202 -41.494162 
L 270.373136 -41.826698 
L 270.786774 -42.547175 
L 271.191515 -41.8912 
L 271.587736 -42.004677 
L 271.975786 -42.537403 
L 272.355996 -42.096939 
L 272.728677 -41.23332 
L 273.094121 -41.855806 
L 273.452604 -42.164269 
L 273.804385 -42.016225 
L 274.149712 -41.962948 
L 274.488816 -41.886948 
L 274.821918 -41.832115 
L 275.149227 -41.639203 
L 275.470941 -41.373983 
L 275.787247 -41.59143 
L 276.098325 -40.93239 
L 276.404344 -41.726185 
L 276.705467 -41.361467 
L 277.001848 -42.48724 
L 277.293634 -42.042189 
L 277.580964 -41.467876 
L 277.863974 -40.839802 
L 278.142791 -41.96167 
L 278.417537 -41.641643 
L 278.68833 -42.699535 
L 278.955282 -41.682977 
L 279.2185 -42.018761 
L 279.478087 -41.66981 
L 279.734143 -42.118055 
L 279.986761 -41.630203 
L 280.236034 -41.378188 
L 280.482048 -41.582291 
L 280.724887 -42.657792 
L 280.964633 -41.951837 
L 281.201363 -41.534137 
L 281.435153 -42.624067 
L 281.666073 -41.753266 
L 281.894195 -41.430919 
L 282.119584 -42.201533 
L 282.342307 -44.512928 
L 282.562424 -43.778393 
L 282.779996 -44.991956 
L 282.995082 -42.351298 
L 283 -42.118127 
L 283 -43.490481 
L 283 -43.490481 
L 282.995082 -43.69309 
L 282.779996 -46.440605 
L 282.562424 -45.294304 
L 282.342307 -46.000062 
L 282.119584 -43.562183 
L 281.894195 -42.818643 
L 281.666073 -43.076106 
L 281.435153 -43.981667 
L 281.201363 -42.91485 
L 280.964633 -43.291158 
L 280.724887 -43.992259 
L 280.482048 -42.929478 
L 280.236034 -42.705186 
L 279.986761 -42.996051 
L 279.734143 -43.527483 
L 279.478087 -43.000761 
L 279.2185 -43.342412 
L 278.955282 -43.028217 
L 278.68833 -44.065 
L 278.417537 -42.966146 
L 278.142791 -43.336721 
L 277.863974 -42.117189 
L 277.580964 -42.837082 
L 277.293634 -43.415004 
L 277.001848 -43.85998 
L 276.705467 -42.681284 
L 276.404344 -43.06995 
L 276.098325 -42.272036 
L 275.787247 -42.953577 
L 275.470941 -42.727857 
L 275.149227 -42.990744 
L 274.821918 -43.174524 
L 274.488816 -43.248948 
L 274.149712 -43.342829 
L 273.804385 -43.333868 
L 273.452604 -43.547745 
L 273.094121 -43.172991 
L 272.728677 -42.54353 
L 272.355996 -43.471045 
L 271.975786 -43.894757 
L 271.587736 -43.415584 
L 271.191515 -43.23731 
L 270.786774 -43.973619 
L 270.373136 -43.220565 
L 269.950202 -42.855112 
L 269.517545 -44.171751 
L 269.074707 -43.198486 
L 268.621197 -44.772601 
L 268.156488 -43.706595 
L 267.680013 -43.70453 
L 267.191161 -43.674571 
L 266.689271 -43.909675 
L 266.17363 -44.756513 
L 265.643461 -43.89337 
L 265.097923 -43.187372 
L 264.536099 -43.962727 
L 263.956984 -43.788917 
L 263.359483 -44.753164 
L 262.742387 -43.98677 
L 262.10437 -44.101738 
L 261.443961 -44.316631 
L 260.759533 -44.664594 
L 260.049271 -44.919018 
L 259.311149 -45.546362 
L 258.542892 -44.608704 
L 257.741933 -45.42687 
L 256.905365 -45.667618 
L 256.029874 -45.51377 
L 255.11166 -45.804925 
L 254.146338 -45.938012 
L 253.128812 -47.022679 
L 252.053112 -46.294746 
L 250.91218 -46.141686 
L 249.69759 -46.244208 
L 248.399173 -47.460122 
L 247.004493 -47.884088 
L 245.498126 -48.497601 
L 243.860614 -49.77109 
L 242.066925 -49.444251 
L 240.084099 -48.773106 
L 237.867492 -50.004802 
L 235.35452 -50.70653 
L 232.453517 -51.38619 
L 229.022379 -51.158746 
L 224.823041 -51.996273 
L 219.409222 -52.700429 
L 211.779059 -53.1213 
L 209.7964 -53.731813 
L 207.580002 -53.819512 
L 205.067298 -53.737071 
L 202.166655 -54.104281 
L 198.736018 -53.851869 
L 194.537432 -55.407289 
L 189.124868 -55.29033 
L 181.497213 -56.246508 
L 168.461693 -57.17709 
L 166.480914 -56.359536 
L 164.266866 -56.991893 
L 161.757182 -56.111398 
L 158.860564 -56.512426 
L 155.435563 -56.889306 
L 151.245424 -57.643343 
L 145.84693 -58.564011 
L 138.247376 -60.936484 
L 131.574894 -60.194839 
L 130.190457 -60.975257 
L 128.696034 -61.732749 
L 127.072628 -61.316375 
L 125.295852 -61.519514 
L 123.333676 -62.493436 
L 121.142851 -63.211166 
L 118.662974 -63.153491 
L 115.806008 -62.941764 
L 112.436349 -62.739201 
L 108.32885 -61.548633 
L 103.067107 -61.924211 
L 102.450007 -61.393795 
L 101.811985 -61.424797 
L 101.151572 -61.75728 
L 100.467139 -61.981453 
L 99.756871 -62.153599 
L 99.018744 -62.495824 
L 98.25048 -62.969365 
L 97.449515 -63.220785 
L 96.61294 -62.624579 
L 95.73744 -62.099768 
L 94.819217 -61.356868 
L 93.853885 -61.840371 
L 92.836348 -61.764796 
L 91.760636 -62.048877 
L 90.61969 -62.469348 
L 89.405085 -62.851497 
L 88.10665 -63.667767 
L 86.711949 -64.443267 
L 85.205558 -65.768072 
L 83.568017 -66.580989 
L 81.774294 -68.094822 
L 79.791426 -69.209018 
L 77.574767 -69.459916 
L 75.061727 -67.435012 
L 72.160635 -65.560774 
L 68.729372 -70.266441 
L 64.529845 -71.975242 
L 59.115713 -71.793878 
L 51.484922 -69.129665 
L 38.44 -71.794506 
z
" style="stroke: #084a91; stroke-opacity: 0.1"/>
    </defs>
    <g clip-path="url(#pb0cd2617a9)">
     <use xlink:href="#mc4b3b92cc9" x="0" y="288" style="fill: #084a91; fill-opacity: 0.1; stroke: #084a91; stroke-opacity: 0.1"/>
    </g>
   </g>
   <g id="matplotlib.axis_3">
    <g id="xtick_50">
     <g id="line2d_61">
      <g>
       <use xlink:href="#m64f73966d6" x="38.44" y="252.524" style="stroke: #000000; stroke-width: 0.8"/>
      </g>
     </g>
     <g id="text_7">
      <!-- $\mathdefault{10^{0}}$ -->
      <g transform="translate(29.64 267.122437)scale(0.1 -0.1)">
       <defs>
        <path id="DejaVuSans-31" d="M 794 531 
L 1825 531 
L 1825 4091 
L 703 3866 
L 703 4441 
L 1819 4666 
L 2450 4666 
L 2450 531 
L 3481 531 
L 3481 0 
L 794 0 
L 794 531 
z
" transform="scale(0.015625)"/>
       </defs>
       <use xlink:href="#DejaVuSans-31" transform="translate(0 0.765625)"/>
       <use xlink:href="#DejaVuSans-30" transform="translate(63.623047 0.765625)"/>
       <use xlink:href="#DejaVuSans-30" transform="translate(128.203125 39.046875)scale(0.7)"/>
      </g>
     </g>
    </g>
    <g id="xtick_51">
     <g id="line2d_62">
      <g>
       <use xlink:href="#m64f73966d6" x="81.774294" y="252.524" style="stroke: #000000; stroke-width: 0.8"/>
      </g>
     </g>
     <g id="text_8">
      <!-- $\mathdefault{10^{1}}$ -->
      <g transform="translate(72.974294 267.122437)scale(0.1 -0.1)">
       <use xlink:href="#DejaVuSans-31" transform="translate(0 0.684375)"/>
       <use xlink:href="#DejaVuSans-30" transform="translate(63.623047 0.684375)"/>
       <use xlink:href="#DejaVuSans-31" transform="translate(128.203125 38.965625)scale(0.7)"/>
      </g>
     </g>
    </g>
    <g id="xtick_52">
     <g id="line2d_63">
      <g>
       <use xlink:href="#m64f73966d6" x="125.108589" y="252.524" style="stroke: #000000; stroke-width: 0.8"/>
      </g>
     </g>
     <g id="text_9">
      <!-- $\mathdefault{10^{2}}$ -->
      <g transform="translate(116.308589 267.122437)scale(0.1 -0.1)">
       <use xlink:href="#DejaVuSans-31" transform="translate(0 0.765625)"/>
       <use xlink:href="#DejaVuSans-30" transform="translate(63.623047 0.765625)"/>
       <use xlink:href="#DejaVuSans-32" transform="translate(128.203125 39.046875)scale(0.7)"/>
      </g>
     </g>
    </g>
    <g id="xtick_53">
     <g id="line2d_64">
      <g>
       <use xlink:href="#m64f73966d6" x="168.442883" y="252.524" style="stroke: #000000; stroke-width: 0.8"/>
      </g>
     </g>
     <g id="text_10">
      <!-- $\mathdefault{10^{3}}$ -->
      <g transform="translate(159.642883 267.122437)scale(0.1 -0.1)">
       <defs>
        <path id="DejaVuSans-33" d="M 2597 2516 
Q 3050 2419 3304 2112 
Q 3559 1806 3559 1356 
Q 3559 666 3084 287 
Q 2609 -91 1734 -91 
Q 1441 -91 1130 -33 
Q 819 25 488 141 
L 488 750 
Q 750 597 1062 519 
Q 1375 441 1716 441 
Q 2309 441 2620 675 
Q 2931 909 2931 1356 
Q 2931 1769 2642 2001 
Q 2353 2234 1838 2234 
L 1294 2234 
L 1294 2753 
L 1863 2753 
Q 2328 2753 2575 2939 
Q 2822 3125 2822 3475 
Q 2822 3834 2567 4026 
Q 2313 4219 1838 4219 
Q 1578 4219 1281 4162 
Q 984 4106 628 3988 
L 628 4550 
Q 988 4650 1302 4700 
Q 1616 4750 1894 4750 
Q 2613 4750 3031 4423 
Q 3450 4097 3450 3541 
Q 3450 3153 3228 2886 
Q 3006 2619 2597 2516 
z
" transform="scale(0.015625)"/>
       </defs>
       <use xlink:href="#DejaVuSans-31" transform="translate(0 0.765625)"/>
       <use xlink:href="#DejaVuSans-30" transform="translate(63.623047 0.765625)"/>
       <use xlink:href="#DejaVuSans-33" transform="translate(128.203125 39.046875)scale(0.7)"/>
      </g>
     </g>
    </g>
    <g id="xtick_54">
     <g id="line2d_65">
      <g>
       <use xlink:href="#m64f73966d6" x="211.777177" y="252.524" style="stroke: #000000; stroke-width: 0.8"/>
      </g>
     </g>
     <g id="text_11">
      <!-- $\mathdefault{10^{4}}$ -->
      <g transform="translate(202.977177 267.122437)scale(0.1 -0.1)">
       <use xlink:href="#DejaVuSans-31" transform="translate(0 0.684375)"/>
       <use xlink:href="#DejaVuSans-30" transform="translate(63.623047 0.684375)"/>
       <use xlink:href="#DejaVuSans-34" transform="translate(128.203125 38.965625)scale(0.7)"/>
      </g>
     </g>
    </g>
    <g id="xtick_55">
     <g id="line2d_66">
      <g>
       <use xlink:href="#m64f73966d6" x="255.111471" y="252.524" style="stroke: #000000; stroke-width: 0.8"/>
      </g>
     </g>
     <g id="text_12">
      <!-- $\mathdefault{10^{5}}$ -->
      <g transform="translate(246.311471 267.122437)scale(0.1 -0.1)">
       <defs>
        <path id="DejaVuSans-35" d="M 691 4666 
L 3169 4666 
L 3169 4134 
L 1269 4134 
L 1269 2991 
Q 1406 3038 1543 3061 
Q 1681 3084 1819 3084 
Q 2600 3084 3056 2656 
Q 3513 2228 3513 1497 
Q 3513 744 3044 326 
Q 2575 -91 1722 -91 
Q 1428 -91 1123 -41 
Q 819 9 494 109 
L 494 744 
Q 775 591 1075 516 
Q 1375 441 1709 441 
Q 2250 441 2565 725 
Q 2881 1009 2881 1497 
Q 2881 1984 2565 2268 
Q 2250 2553 1709 2553 
Q 1456 2553 1204 2497 
Q 953 2441 691 2322 
L 691 4666 
z
" transform="scale(0.015625)"/>
       </defs>
       <use xlink:href="#DejaVuSans-31" transform="translate(0 0.684375)"/>
       <use xlink:href="#DejaVuSans-30" transform="translate(63.623047 0.684375)"/>
       <use xlink:href="#DejaVuSans-35" transform="translate(128.203125 38.965625)scale(0.7)"/>
      </g>
     </g>
    </g>
    <g id="xtick_56">
     <g id="line2d_67">
      <g>
       <use xlink:href="#mfeca7a18dc" x="51.484922" y="252.524" style="stroke: #000000; stroke-width: 0.6"/>
      </g>
     </g>
    </g>
    <g id="xtick_57">
     <g id="line2d_68">
      <g>
       <use xlink:href="#mfeca7a18dc" x="59.115713" y="252.524" style="stroke: #000000; stroke-width: 0.6"/>
      </g>
     </g>
    </g>
    <g id="xtick_58">
     <g id="line2d_69">
      <g>
       <use xlink:href="#mfeca7a18dc" x="64.529845" y="252.524" style="stroke: #000000; stroke-width: 0.6"/>
      </g>
     </g>
    </g>
    <g id="xtick_59">
     <g id="line2d_70">
      <g>
       <use xlink:href="#mfeca7a18dc" x="68.729372" y="252.524" style="stroke: #000000; stroke-width: 0.6"/>
      </g>
     </g>
    </g>
    <g id="xtick_60">
     <g id="line2d_71">
      <g>
       <use xlink:href="#mfeca7a18dc" x="72.160635" y="252.524" style="stroke: #000000; stroke-width: 0.6"/>
      </g>
     </g>
    </g>
    <g id="xtick_61">
     <g id="line2d_72">
      <g>
       <use xlink:href="#mfeca7a18dc" x="75.061727" y="252.524" style="stroke: #000000; stroke-width: 0.6"/>
      </g>
     </g>
    </g>
    <g id="xtick_62">
     <g id="line2d_73">
      <g>
       <use xlink:href="#mfeca7a18dc" x="77.574767" y="252.524" style="stroke: #000000; stroke-width: 0.6"/>
      </g>
     </g>
    </g>
    <g id="xtick_63">
     <g id="line2d_74">
      <g>
       <use xlink:href="#mfeca7a18dc" x="79.791426" y="252.524" style="stroke: #000000; stroke-width: 0.6"/>
      </g>
     </g>
    </g>
    <g id="xtick_64">
     <g id="line2d_75">
      <g>
       <use xlink:href="#mfeca7a18dc" x="94.819217" y="252.524" style="stroke: #000000; stroke-width: 0.6"/>
      </g>
     </g>
    </g>
    <g id="xtick_65">
     <g id="line2d_76">
      <g>
       <use xlink:href="#mfeca7a18dc" x="102.450007" y="252.524" style="stroke: #000000; stroke-width: 0.6"/>
      </g>
     </g>
    </g>
    <g id="xtick_66">
     <g id="line2d_77">
      <g>
       <use xlink:href="#mfeca7a18dc" x="107.864139" y="252.524" style="stroke: #000000; stroke-width: 0.6"/>
      </g>
     </g>
    </g>
    <g id="xtick_67">
     <g id="line2d_78">
      <g>
       <use xlink:href="#mfeca7a18dc" x="112.063666" y="252.524" style="stroke: #000000; stroke-width: 0.6"/>
      </g>
     </g>
    </g>
    <g id="xtick_68">
     <g id="line2d_79">
      <g>
       <use xlink:href="#mfeca7a18dc" x="115.49493" y="252.524" style="stroke: #000000; stroke-width: 0.6"/>
      </g>
     </g>
    </g>
    <g id="xtick_69">
     <g id="line2d_80">
      <g>
       <use xlink:href="#mfeca7a18dc" x="118.396021" y="252.524" style="stroke: #000000; stroke-width: 0.6"/>
      </g>
     </g>
    </g>
    <g id="xtick_70">
     <g id="line2d_81">
      <g>
       <use xlink:href="#mfeca7a18dc" x="120.909062" y="252.524" style="stroke: #000000; stroke-width: 0.6"/>
      </g>
     </g>
    </g>
    <g id="xtick_71">
     <g id="line2d_82">
      <g>
       <use xlink:href="#mfeca7a18dc" x="123.12572" y="252.524" style="stroke: #000000; stroke-width: 0.6"/>
      </g>
     </g>
    </g>
    <g id="xtick_72">
     <g id="line2d_83">
      <g>
       <use xlink:href="#mfeca7a18dc" x="138.153511" y="252.524" style="stroke: #000000; stroke-width: 0.6"/>
      </g>
     </g>
    </g>
    <g id="xtick_73">
     <g id="line2d_84">
      <g>
       <use xlink:href="#mfeca7a18dc" x="145.784301" y="252.524" style="stroke: #000000; stroke-width: 0.6"/>
      </g>
     </g>
    </g>
    <g id="xtick_74">
     <g id="line2d_85">
      <g>
       <use xlink:href="#mfeca7a18dc" x="151.198433" y="252.524" style="stroke: #000000; stroke-width: 0.6"/>
      </g>
     </g>
    </g>
    <g id="xtick_75">
     <g id="line2d_86">
      <g>
       <use xlink:href="#mfeca7a18dc" x="155.39796" y="252.524" style="stroke: #000000; stroke-width: 0.6"/>
      </g>
     </g>
    </g>
    <g id="xtick_76">
     <g id="line2d_87">
      <g>
       <use xlink:href="#mfeca7a18dc" x="158.829224" y="252.524" style="stroke: #000000; stroke-width: 0.6"/>
      </g>
     </g>
    </g>
    <g id="xtick_77">
     <g id="line2d_88">
      <g>
       <use xlink:href="#mfeca7a18dc" x="161.730316" y="252.524" style="stroke: #000000; stroke-width: 0.6"/>
      </g>
     </g>
    </g>
    <g id="xtick_78">
     <g id="line2d_89">
      <g>
       <use xlink:href="#mfeca7a18dc" x="164.243356" y="252.524" style="stroke: #000000; stroke-width: 0.6"/>
      </g>
     </g>
    </g>
    <g id="xtick_79">
     <g id="line2d_90">
      <g>
       <use xlink:href="#mfeca7a18dc" x="166.460014" y="252.524" style="stroke: #000000; stroke-width: 0.6"/>
      </g>
     </g>
    </g>
    <g id="xtick_80">
     <g id="line2d_91">
      <g>
       <use xlink:href="#mfeca7a18dc" x="181.487805" y="252.524" style="stroke: #000000; stroke-width: 0.6"/>
      </g>
     </g>
    </g>
    <g id="xtick_81">
     <g id="line2d_92">
      <g>
       <use xlink:href="#mfeca7a18dc" x="189.118596" y="252.524" style="stroke: #000000; stroke-width: 0.6"/>
      </g>
     </g>
    </g>
    <g id="xtick_82">
     <g id="line2d_93">
      <g>
       <use xlink:href="#mfeca7a18dc" x="194.532728" y="252.524" style="stroke: #000000; stroke-width: 0.6"/>
      </g>
     </g>
    </g>
    <g id="xtick_83">
     <g id="line2d_94">
      <g>
       <use xlink:href="#mfeca7a18dc" x="198.732255" y="252.524" style="stroke: #000000; stroke-width: 0.6"/>
      </g>
     </g>
    </g>
    <g id="xtick_84">
     <g id="line2d_95">
      <g>
       <use xlink:href="#mfeca7a18dc" x="202.163518" y="252.524" style="stroke: #000000; stroke-width: 0.6"/>
      </g>
     </g>
    </g>
    <g id="xtick_85">
     <g id="line2d_96">
      <g>
       <use xlink:href="#mfeca7a18dc" x="205.06461" y="252.524" style="stroke: #000000; stroke-width: 0.6"/>
      </g>
     </g>
    </g>
    <g id="xtick_86">
     <g id="line2d_97">
      <g>
       <use xlink:href="#mfeca7a18dc" x="207.57765" y="252.524" style="stroke: #000000; stroke-width: 0.6"/>
      </g>
     </g>
    </g>
    <g id="xtick_87">
     <g id="line2d_98">
      <g>
       <use xlink:href="#mfeca7a18dc" x="209.794309" y="252.524" style="stroke: #000000; stroke-width: 0.6"/>
      </g>
     </g>
    </g>
    <g id="xtick_88">
     <g id="line2d_99">
      <g>
       <use xlink:href="#mfeca7a18dc" x="224.8221" y="252.524" style="stroke: #000000; stroke-width: 0.6"/>
      </g>
     </g>
    </g>
    <g id="xtick_89">
     <g id="line2d_100">
      <g>
       <use xlink:href="#mfeca7a18dc" x="232.45289" y="252.524" style="stroke: #000000; stroke-width: 0.6"/>
      </g>
     </g>
    </g>
    <g id="xtick_90">
     <g id="line2d_101">
      <g>
       <use xlink:href="#mfeca7a18dc" x="237.867022" y="252.524" style="stroke: #000000; stroke-width: 0.6"/>
      </g>
     </g>
    </g>
    <g id="xtick_91">
     <g id="line2d_102">
      <g>
       <use xlink:href="#mfeca7a18dc" x="242.066549" y="252.524" style="stroke: #000000; stroke-width: 0.6"/>
      </g>
     </g>
    </g>
    <g id="xtick_92">
     <g id="line2d_103">
      <g>
       <use xlink:href="#mfeca7a18dc" x="245.497812" y="252.524" style="stroke: #000000; stroke-width: 0.6"/>
      </g>
     </g>
    </g>
    <g id="xtick_93">
     <g id="line2d_104">
      <g>
       <use xlink:href="#mfeca7a18dc" x="248.398904" y="252.524" style="stroke: #000000; stroke-width: 0.6"/>
      </g>
     </g>
    </g>
    <g id="xtick_94">
     <g id="line2d_105">
      <g>
       <use xlink:href="#mfeca7a18dc" x="250.911944" y="252.524" style="stroke: #000000; stroke-width: 0.6"/>
      </g>
     </g>
    </g>
    <g id="xtick_95">
     <g id="line2d_106">
      <g>
       <use xlink:href="#mfeca7a18dc" x="253.128603" y="252.524" style="stroke: #000000; stroke-width: 0.6"/>
      </g>
     </g>
    </g>
    <g id="xtick_96">
     <g id="line2d_107">
      <g>
       <use xlink:href="#mfeca7a18dc" x="268.156394" y="252.524" style="stroke: #000000; stroke-width: 0.6"/>
      </g>
     </g>
    </g>
    <g id="xtick_97">
     <g id="line2d_108">
      <g>
       <use xlink:href="#mfeca7a18dc" x="275.787184" y="252.524" style="stroke: #000000; stroke-width: 0.6"/>
      </g>
     </g>
    </g>
    <g id="xtick_98">
     <g id="line2d_109">
      <g>
       <use xlink:href="#mfeca7a18dc" x="281.201316" y="252.524" style="stroke: #000000; stroke-width: 0.6"/>
      </g>
     </g>
    </g>
    <g id="text_13">
     <!-- Optimization Steps -->
     <g transform="translate(113.156719 280.800562)scale(0.1 -0.1)">
      <defs>
       <path id="DejaVuSans-4f" d="M 2522 4238 
Q 1834 4238 1429 3725 
Q 1025 3213 1025 2328 
Q 1025 1447 1429 934 
Q 1834 422 2522 422 
Q 3209 422 3611 934 
Q 4013 1447 4013 2328 
Q 4013 3213 3611 3725 
Q 3209 4238 2522 4238 
z
M 2522 4750 
Q 3503 4750 4090 4092 
Q 4678 3434 4678 2328 
Q 4678 1225 4090 567 
Q 3503 -91 2522 -91 
Q 1538 -91 948 565 
Q 359 1222 359 2328 
Q 359 3434 948 4092 
Q 1538 4750 2522 4750 
z
" transform="scale(0.015625)"/>
       <path id="DejaVuSans-70" d="M 1159 525 
L 1159 -1331 
L 581 -1331 
L 581 3500 
L 1159 3500 
L 1159 2969 
Q 1341 3281 1617 3432 
Q 1894 3584 2278 3584 
Q 2916 3584 3314 3078 
Q 3713 2572 3713 1747 
Q 3713 922 3314 415 
Q 2916 -91 2278 -91 
Q 1894 -91 1617 61 
Q 1341 213 1159 525 
z
M 3116 1747 
Q 3116 2381 2855 2742 
Q 2594 3103 2138 3103 
Q 1681 3103 1420 2742 
Q 1159 2381 1159 1747 
Q 1159 1113 1420 752 
Q 1681 391 2138 391 
Q 2594 391 2855 752 
Q 3116 1113 3116 1747 
z
" transform="scale(0.015625)"/>
       <path id="DejaVuSans-74" d="M 1172 4494 
L 1172 3500 
L 2356 3500 
L 2356 3053 
L 1172 3053 
L 1172 1153 
Q 1172 725 1289 603 
Q 1406 481 1766 481 
L 2356 481 
L 2356 0 
L 1766 0 
Q 1100 0 847 248 
Q 594 497 594 1153 
L 594 3053 
L 172 3053 
L 172 3500 
L 594 3500 
L 594 4494 
L 1172 4494 
z
" transform="scale(0.015625)"/>
       <path id="DejaVuSans-69" d="M 603 3500 
L 1178 3500 
L 1178 0 
L 603 0 
L 603 3500 
z
M 603 4863 
L 1178 4863 
L 1178 4134 
L 603 4134 
L 603 4863 
z
" transform="scale(0.015625)"/>
       <path id="DejaVuSans-6d" d="M 3328 2828 
Q 3544 3216 3844 3400 
Q 4144 3584 4550 3584 
Q 5097 3584 5394 3201 
Q 5691 2819 5691 2113 
L 5691 0 
L 5113 0 
L 5113 2094 
Q 5113 2597 4934 2840 
Q 4756 3084 4391 3084 
Q 3944 3084 3684 2787 
Q 3425 2491 3425 1978 
L 3425 0 
L 2847 0 
L 2847 2094 
Q 2847 2600 2669 2842 
Q 2491 3084 2119 3084 
Q 1678 3084 1418 2786 
Q 1159 2488 1159 1978 
L 1159 0 
L 581 0 
L 581 3500 
L 1159 3500 
L 1159 2956 
Q 1356 3278 1631 3431 
Q 1906 3584 2284 3584 
Q 2666 3584 2933 3390 
Q 3200 3197 3328 2828 
z
" transform="scale(0.015625)"/>
       <path id="DejaVuSans-7a" d="M 353 3500 
L 3084 3500 
L 3084 2975 
L 922 459 
L 3084 459 
L 3084 0 
L 275 0 
L 275 525 
L 2438 3041 
L 353 3041 
L 353 3500 
z
" transform="scale(0.015625)"/>
       <path id="DejaVuSans-6f" d="M 1959 3097 
Q 1497 3097 1228 2736 
Q 959 2375 959 1747 
Q 959 1119 1226 758 
Q 1494 397 1959 397 
Q 2419 397 2687 759 
Q 2956 1122 2956 1747 
Q 2956 2369 2687 2733 
Q 2419 3097 1959 3097 
z
M 1959 3584 
Q 2709 3584 3137 3096 
Q 3566 2609 3566 1747 
Q 3566 888 3137 398 
Q 2709 -91 1959 -91 
Q 1206 -91 779 398 
Q 353 888 353 1747 
Q 353 2609 779 3096 
Q 1206 3584 1959 3584 
z
" transform="scale(0.015625)"/>
       <path id="DejaVuSans-6e" d="M 3513 2113 
L 3513 0 
L 2938 0 
L 2938 2094 
Q 2938 2591 2744 2837 
Q 2550 3084 2163 3084 
Q 1697 3084 1428 2787 
Q 1159 2491 1159 1978 
L 1159 0 
L 581 0 
L 581 3500 
L 1159 3500 
L 1159 2956 
Q 1366 3272 1645 3428 
Q 1925 3584 2291 3584 
Q 2894 3584 3203 3211 
Q 3513 2838 3513 2113 
z
" transform="scale(0.015625)"/>
       <path id="DejaVuSans-20" transform="scale(0.015625)"/>
       <path id="DejaVuSans-53" d="M 3425 4513 
L 3425 3897 
Q 3066 4069 2747 4153 
Q 2428 4238 2131 4238 
Q 1616 4238 1336 4038 
Q 1056 3838 1056 3469 
Q 1056 3159 1242 3001 
Q 1428 2844 1947 2747 
L 2328 2669 
Q 3034 2534 3370 2195 
Q 3706 1856 3706 1288 
Q 3706 609 3251 259 
Q 2797 -91 1919 -91 
Q 1588 -91 1214 -16 
Q 841 59 441 206 
L 441 856 
Q 825 641 1194 531 
Q 1563 422 1919 422 
Q 2459 422 2753 634 
Q 3047 847 3047 1241 
Q 3047 1584 2836 1778 
Q 2625 1972 2144 2069 
L 1759 2144 
Q 1053 2284 737 2584 
Q 422 2884 422 3419 
Q 422 4038 858 4394 
Q 1294 4750 2059 4750 
Q 2388 4750 2728 4690 
Q 3069 4631 3425 4513 
z
" transform="scale(0.015625)"/>
       <path id="DejaVuSans-65" d="M 3597 1894 
L 3597 1613 
L 953 1613 
Q 991 1019 1311 708 
Q 1631 397 2203 397 
Q 2534 397 2845 478 
Q 3156 559 3463 722 
L 3463 178 
Q 3153 47 2828 -22 
Q 2503 -91 2169 -91 
Q 1331 -91 842 396 
Q 353 884 353 1716 
Q 353 2575 817 3079 
Q 1281 3584 2069 3584 
Q 2775 3584 3186 3129 
Q 3597 2675 3597 1894 
z
M 3022 2063 
Q 3016 2534 2758 2815 
Q 2500 3097 2075 3097 
Q 1594 3097 1305 2825 
Q 1016 2553 972 2059 
L 3022 2063 
z
" transform="scale(0.015625)"/>
       <path id="DejaVuSans-73" d="M 2834 3397 
L 2834 2853 
Q 2591 2978 2328 3040 
Q 2066 3103 1784 3103 
Q 1356 3103 1142 2972 
Q 928 2841 928 2578 
Q 928 2378 1081 2264 
Q 1234 2150 1697 2047 
L 1894 2003 
Q 2506 1872 2764 1633 
Q 3022 1394 3022 966 
Q 3022 478 2636 193 
Q 2250 -91 1575 -91 
Q 1294 -91 989 -36 
Q 684 19 347 128 
L 347 722 
Q 666 556 975 473 
Q 1284 391 1588 391 
Q 1994 391 2212 530 
Q 2431 669 2431 922 
Q 2431 1156 2273 1281 
Q 2116 1406 1581 1522 
L 1381 1569 
Q 847 1681 609 1914 
Q 372 2147 372 2553 
Q 372 3047 722 3315 
Q 1072 3584 1716 3584 
Q 2034 3584 2315 3537 
Q 2597 3491 2834 3397 
z
" transform="scale(0.015625)"/>
      </defs>
      <use xlink:href="#DejaVuSans-4f"/>
      <use xlink:href="#DejaVuSans-70" x="78.710938"/>
      <use xlink:href="#DejaVuSans-74" x="142.1875"/>
      <use xlink:href="#DejaVuSans-69" x="181.396484"/>
      <use xlink:href="#DejaVuSans-6d" x="209.179688"/>
      <use xlink:href="#DejaVuSans-69" x="306.591797"/>
      <use xlink:href="#DejaVuSans-7a" x="334.375"/>
      <use xlink:href="#DejaVuSans-61" x="386.865234"/>
      <use xlink:href="#DejaVuSans-74" x="448.144531"/>
      <use xlink:href="#DejaVuSans-69" x="487.353516"/>
      <use xlink:href="#DejaVuSans-6f" x="515.136719"/>
      <use xlink:href="#DejaVuSans-6e" x="576.318359"/>
      <use xlink:href="#DejaVuSans-20" x="639.697266"/>
      <use xlink:href="#DejaVuSans-53" x="671.484375"/>
      <use xlink:href="#DejaVuSans-74" x="734.960938"/>
      <use xlink:href="#DejaVuSans-65" x="774.169922"/>
      <use xlink:href="#DejaVuSans-70" x="835.693359"/>
      <use xlink:href="#DejaVuSans-73" x="899.169922"/>
     </g>
    </g>
   </g>
   <g id="matplotlib.axis_4">
    <g id="ytick_6">
     <g id="line2d_110">
      <g>
       <use xlink:href="#m85a3a03f62" x="38.44" y="230.774301" style="stroke: #000000; stroke-width: 0.8"/>
      </g>
     </g>
     <g id="text_14">
      <!-- 20 -->
      <g transform="translate(18.715 234.57352)scale(0.1 -0.1)">
       <use xlink:href="#DejaVuSans-32"/>
       <use xlink:href="#DejaVuSans-30" x="63.623047"/>
      </g>
     </g>
    </g>
    <g id="ytick_7">
     <g id="line2d_111">
      <g>
       <use xlink:href="#m85a3a03f62" x="38.44" y="192.957378" style="stroke: #000000; stroke-width: 0.8"/>
      </g>
     </g>
     <g id="text_15">
      <!-- 40 -->
      <g transform="translate(18.715 196.756597)scale(0.1 -0.1)">
       <use xlink:href="#DejaVuSans-34"/>
       <use xlink:href="#DejaVuSans-30" x="63.623047"/>
      </g>
     </g>
    </g>
    <g id="ytick_8">
     <g id="line2d_112">
      <g>
       <use xlink:href="#m85a3a03f62" x="38.44" y="155.140456" style="stroke: #000000; stroke-width: 0.8"/>
      </g>
     </g>
     <g id="text_16">
      <!-- 60 -->
      <g transform="translate(18.715 158.939674)scale(0.1 -0.1)">
       <use xlink:href="#DejaVuSans-36"/>
       <use xlink:href="#DejaVuSans-30" x="63.623047"/>
      </g>
     </g>
    </g>
    <g id="text_17">
     <!-- Local Complexity -->
     <g transform="translate(12.635313 236.312802)rotate(-90)scale(0.1 -0.1)">
      <defs>
       <path id="DejaVuSans-4c" d="M 628 4666 
L 1259 4666 
L 1259 531 
L 3531 531 
L 3531 0 
L 628 0 
L 628 4666 
z
" transform="scale(0.015625)"/>
       <path id="DejaVuSans-6c" d="M 603 4863 
L 1178 4863 
L 1178 0 
L 603 0 
L 603 4863 
z
" transform="scale(0.015625)"/>
       <path id="DejaVuSans-43" d="M 4122 4306 
L 4122 3641 
Q 3803 3938 3442 4084 
Q 3081 4231 2675 4231 
Q 1875 4231 1450 3742 
Q 1025 3253 1025 2328 
Q 1025 1406 1450 917 
Q 1875 428 2675 428 
Q 3081 428 3442 575 
Q 3803 722 4122 1019 
L 4122 359 
Q 3791 134 3420 21 
Q 3050 -91 2638 -91 
Q 1578 -91 968 557 
Q 359 1206 359 2328 
Q 359 3453 968 4101 
Q 1578 4750 2638 4750 
Q 3056 4750 3426 4639 
Q 3797 4528 4122 4306 
z
" transform="scale(0.015625)"/>
       <path id="DejaVuSans-78" d="M 3513 3500 
L 2247 1797 
L 3578 0 
L 2900 0 
L 1881 1375 
L 863 0 
L 184 0 
L 1544 1831 
L 300 3500 
L 978 3500 
L 1906 2253 
L 2834 3500 
L 3513 3500 
z
" transform="scale(0.015625)"/>
      </defs>
      <use xlink:href="#DejaVuSans-4c"/>
      <use xlink:href="#DejaVuSans-6f" x="53.962891"/>
      <use xlink:href="#DejaVuSans-63" x="115.144531"/>
      <use xlink:href="#DejaVuSans-61" x="170.125"/>
      <use xlink:href="#DejaVuSans-6c" x="231.404297"/>
      <use xlink:href="#DejaVuSans-20" x="259.1875"/>
      <use xlink:href="#DejaVuSans-43" x="290.974609"/>
      <use xlink:href="#DejaVuSans-6f" x="360.798828"/>
      <use xlink:href="#DejaVuSans-6d" x="421.980469"/>
      <use xlink:href="#DejaVuSans-70" x="519.392578"/>
      <use xlink:href="#DejaVuSans-6c" x="582.869141"/>
      <use xlink:href="#DejaVuSans-65" x="610.652344"/>
      <use xlink:href="#DejaVuSans-78" x="670.425781"/>
      <use xlink:href="#DejaVuSans-69" x="729.605469"/>
      <use xlink:href="#DejaVuSans-74" x="757.388672"/>
      <use xlink:href="#DejaVuSans-79" x="796.597656"/>
     </g>
    </g>
   </g>
   <g id="line2d_113">
    <path d="M 38.44 167.918439 
L 51.484922 171.449004 
L 59.115713 167.302434 
L 64.529845 171.787286 
L 68.729372 179.832247 
L 72.160635 184.046763 
L 75.061727 180.130649 
L 77.574767 176.990071 
L 79.791426 177.513006 
L 81.774294 174.432995 
L 83.568017 176.272138 
L 85.205558 176.518838 
L 86.711949 178.216166 
L 88.10665 176.818711 
L 89.405085 177.709474 
L 90.61969 177.88822 
L 91.760636 180.241441 
L 92.836348 180.835281 
L 93.853885 182.633065 
L 94.819217 181.813205 
L 95.73744 181.795476 
L 97.449515 183.299294 
L 98.25048 184.102902 
L 99.018744 185.136958 
L 99.756871 187.473922 
L 100.467139 187.066214 
L 101.151572 187.306998 
L 101.811985 191.195054 
L 102.450007 190.36633 
L 103.067107 190.836084 
L 108.32885 189.053079 
L 112.436349 185.755914 
L 115.806008 184.878444 
L 118.662974 184.571177 
L 121.142851 184.454478 
L 123.333676 183.813365 
L 125.295852 182.817717 
L 127.072628 181.762981 
L 128.696034 178.663762 
L 130.190457 179.950425 
L 131.574894 180.138035 
L 138.247376 173.920396 
L 145.84693 166.60371 
L 151.245424 157.743326 
L 155.435563 153.59085 
L 158.860564 149.53735 
L 161.757182 147.268326 
L 164.266866 142.963705 
L 166.480914 146.950723 
L 168.461693 146.82073 
L 181.497213 143.454146 
L 189.124868 149.352697 
L 194.537432 153.022119 
L 198.736018 154.342755 
L 202.166655 148.323069 
L 205.067298 160.356533 
L 207.580002 155.438858 
L 209.7964 154.262986 
L 211.779059 157.990018 
L 219.409222 160.734704 
L 224.823041 163.593132 
L 229.022379 167.501859 
L 232.453517 159.764165 
L 235.35452 164.557756 
L 237.867492 170.46665 
L 240.084099 171.70456 
L 242.066925 177.380056 
L 243.860614 170.574484 
L 247.004493 185.862277 
L 248.399173 178.768646 
L 249.69759 188.632071 
L 250.91218 187.773802 
L 252.053112 187.348358 
L 253.128812 189.367725 
L 254.146338 186.995303 
L 255.11166 191.424023 
L 256.029874 190.766659 
L 256.905365 193.557133 
L 257.741933 190.998579 
L 258.542892 196.421468 
L 259.311149 185.120708 
L 260.049271 187.057349 
L 260.759533 192.598416 
L 261.443961 192.923405 
L 262.10437 195.351959 
L 262.742387 196.326927 
L 263.359483 194.04018 
L 263.956984 197.61359 
L 264.536099 196.185112 
L 265.097923 196.555896 
L 265.643461 199.863399 
L 266.17363 192.345809 
L 266.689271 196.081706 
L 267.191161 198.266518 
L 267.680013 197.161558 
L 268.156488 199.888514 
L 268.621197 192.419671 
L 269.074707 199.132173 
L 269.517545 197.298937 
L 269.950202 202.062983 
L 270.373136 202.580011 
L 270.786774 200.000777 
L 271.191515 200.027372 
L 271.587736 203.046815 
L 271.975786 192.944085 
L 272.355996 200.84871 
L 272.728677 204.741194 
L 273.094121 199.514772 
L 273.452604 202.018666 
L 273.804385 199.074563 
L 274.149712 200.633033 
L 274.488816 206.109097 
L 274.821918 203.26397 
L 275.149227 203.232947 
L 275.470941 200.804393 
L 275.787247 200.451331 
L 276.098325 200.538493 
L 276.404344 201.340622 
L 276.705467 202.665694 
L 277.001848 202.287524 
L 277.293634 199.114443 
L 277.580964 202.978862 
L 277.863974 202.289002 
L 278.142791 205.169588 
L 278.417537 203.557936 
L 278.68833 195.332751 
L 278.955282 203.380669 
L 279.478087 192.78159 
L 279.734143 199.299096 
L 279.986761 190.389967 
L 280.236034 202.472177 
L 280.482048 201.610951 
L 280.724887 191.728326 
L 281.201363 203.352603 
L 281.435153 191.682537 
L 281.666073 198.226638 
L 281.894195 198.439356 
L 282.119584 183.727689 
L 282.342307 179.498393 
L 282.562424 189.271706 
L 282.779996 187.654146 
L 282.995082 196.607599 
L 283 189.649876 
L 283 189.649876 
" clip-path="url(#pb0cd2617a9)" style="fill: none; stroke: #006428; stroke-opacity: 0.8; stroke-linecap: square"/>
   </g>
   <g id="line2d_114">
    <path d="M 38.44 170.243588 
L 51.484922 174.174481 
L 59.115713 168.79148 
L 64.529845 174.326632 
L 68.729372 181.248903 
L 72.160635 185.232978 
L 75.061727 182.046604 
L 77.574767 178.487974 
L 81.774294 176.161347 
L 83.568017 175.762496 
L 85.205558 177.227905 
L 86.711949 177.431759 
L 88.10665 177.907428 
L 90.61969 179.900201 
L 91.760636 180.304959 
L 92.836348 181.838314 
L 93.853885 181.492645 
L 95.73744 183.504626 
L 96.61294 182.906351 
L 97.449515 183.968473 
L 99.018744 186.413278 
L 100.467139 188.676387 
L 101.151572 189.621811 
L 101.811985 190.892223 
L 102.450007 191.412201 
L 103.067107 190.48155 
L 108.32885 190.081221 
L 112.436349 186.464981 
L 115.806008 185.19309 
L 118.662974 185.035031 
L 121.142851 181.861951 
L 123.333676 185.11775 
L 125.295852 183.519399 
L 127.072628 181.553213 
L 128.696034 178.843986 
L 130.190457 182.31694 
L 131.574894 180.659492 
L 138.247376 175.232175 
L 145.84693 165.6317 
L 151.245424 157.278001 
L 155.435563 153.122567 
L 158.860564 148.597834 
L 161.757182 148.126601 
L 164.266866 145.228286 
L 166.480914 146.993568 
L 168.461693 144.727501 
L 181.497213 143.375842 
L 189.124868 150.668897 
L 194.537432 153.354494 
L 198.736018 155.243861 
L 202.166655 148.674645 
L 205.067298 160.010865 
L 207.580002 156.113945 
L 209.7964 154.765242 
L 211.779059 157.83491 
L 219.409222 157.468561 
L 224.823041 165.432275 
L 229.022379 167.287662 
L 232.453517 158.895561 
L 237.867492 169.60986 
L 240.084099 170.348472 
L 242.066925 178.666719 
L 243.860614 170.143139 
L 247.004493 185.036503 
L 248.399173 179.73327 
L 249.69759 187.936297 
L 250.91218 187.964363 
L 252.053112 188.394236 
L 253.128812 187.558126 
L 254.146338 187.0736 
L 255.11166 193.33407 
L 256.029874 188.364692 
L 256.905365 193.246916 
L 257.741933 191.836167 
L 258.542892 197.362462 
L 259.311149 184.655382 
L 260.049271 186.175444 
L 260.759533 192.749088 
L 261.443961 192.846587 
L 262.10437 195.687285 
L 262.742387 196.081706 
L 263.359483 195.439114 
L 263.956984 198.16607 
L 264.536099 197.186667 
L 265.097923 194.718232 
L 265.643461 200.18543 
L 266.17363 192.199566 
L 266.689271 197.024172 
L 267.680013 199.229671 
L 268.156488 198.724458 
L 268.621197 192.413763 
L 269.074707 200.01555 
L 269.517545 196.98577 
L 269.950202 201.823677 
L 270.373136 203.204881 
L 270.786774 199.468977 
L 271.191515 199.63295 
L 271.587736 202.569675 
L 271.975786 192.505347 
L 272.355996 199.672838 
L 272.728677 204.38666 
L 273.094121 199.185354 
L 273.452604 203.138406 
L 273.804385 199.771808 
L 274.149712 201.352437 
L 274.488816 206.629082 
L 274.821918 202.992155 
L 275.149227 204.12371 
L 275.470941 199.906237 
L 275.787247 202.120593 
L 276.098325 203.26397 
L 276.404344 202.392408 
L 276.705467 202.591833 
L 277.001848 202.413088 
L 277.293634 199.531023 
L 277.580964 203.619975 
L 277.863974 203.702701 
L 278.142791 205.203562 
L 278.417537 204.714599 
L 278.68833 196.461356 
L 278.955282 202.760235 
L 279.478087 193.286796 
L 279.734143 200.045094 
L 279.986761 190.805061 
L 280.236034 202.343655 
L 280.482048 202.328883 
L 280.724887 191.351634 
L 281.201363 202.974433 
L 281.435153 192.586594 
L 281.666073 198.26209 
L 281.894195 198.421627 
L 282.119584 183.678936 
L 282.342307 180.37882 
L 282.562424 187.918567 
L 282.779996 188.187425 
L 282.995082 195.276619 
L 283 190.239287 
L 283 190.239287 
" clip-path="url(#pb0cd2617a9)" style="fill: none; stroke: #9e3303; stroke-opacity: 0.8; stroke-linecap: square"/>
   </g>
   <g id="line2d_115">
    <path d="M 38.44 217.017657 
L 51.484922 219.637882 
L 59.115713 217.019503 
L 64.529845 216.827464 
L 68.729372 218.537351 
L 72.160635 223.188758 
L 75.061727 221.336689 
L 77.574767 219.3092 
L 79.791426 219.554788 
L 81.774294 220.683018 
L 83.568017 222.187939 
L 85.205558 222.99118 
L 86.711949 224.28929 
L 89.405085 225.886538 
L 92.836348 226.955678 
L 93.853885 226.903976 
L 94.819217 227.352682 
L 96.61294 226.065651 
L 97.449515 225.487687 
L 98.25048 225.781286 
L 99.756871 226.5716 
L 101.151572 226.946446 
L 101.811985 227.291747 
L 102.450007 227.293593 
L 103.067107 226.791337 
L 108.32885 227.208653 
L 112.436349 226.004716 
L 121.142851 225.520925 
L 123.333676 226.21522 
L 125.295852 227.19942 
L 127.072628 227.365608 
L 128.696034 226.979683 
L 131.574894 228.530768 
L 138.247376 227.78477 
L 145.84693 230.126169 
L 155.435563 231.799125 
L 161.757182 232.539583 
L 164.266866 231.679101 
L 166.480914 232.301381 
L 168.461693 231.501834 
L 181.497213 232.404787 
L 189.124868 233.361289 
L 194.537432 233.25973 
L 198.736018 234.803428 
L 202.166655 234.530142 
L 205.067298 234.904988 
L 207.580002 234.836666 
L 209.7964 234.903141 
L 211.779059 235.516189 
L 219.409222 235.94643 
L 224.823041 236.657344 
L 229.022379 237.466124 
L 232.453517 237.257466 
L 237.867492 238.679294 
L 240.084099 239.918315 
L 242.066925 239.227713 
L 243.860614 238.917496 
L 245.498126 240.20822 
L 248.399173 241.257049 
L 249.69759 242.40559 
L 250.91218 242.533001 
L 252.053112 242.361273 
L 253.128812 241.681751 
L 254.146338 242.721347 
L 256.029874 243.153435 
L 256.905365 243.027871 
L 257.741933 243.253147 
L 258.542892 244.043462 
L 259.311149 243.127583 
L 260.049271 243.736938 
L 262.742387 244.695287 
L 263.359483 243.941903 
L 263.956984 244.878093 
L 264.536099 244.708212 
L 265.097923 245.480062 
L 265.643461 244.793153 
L 266.17363 243.941903 
L 266.689271 244.78946 
L 267.191161 245.029508 
L 268.156488 244.987038 
L 268.621197 243.965908 
L 269.074707 245.500373 
L 269.517545 244.505094 
L 269.950202 245.825363 
L 270.373136 245.476369 
L 270.786774 244.739603 
L 271.191515 245.435745 
L 271.587736 245.289869 
L 271.975786 244.78392 
L 272.355996 245.216008 
L 272.728677 246.111575 
L 273.094121 245.485601 
L 273.452604 245.143993 
L 273.804385 245.324953 
L 274.821918 245.49668 
L 275.470941 245.94908 
L 275.787247 245.727497 
L 276.098325 246.397787 
L 276.404344 245.601933 
L 276.705467 245.978625 
L 277.001848 244.82639 
L 277.580964 245.847521 
L 277.863974 246.521504 
L 278.142791 245.350805 
L 278.417537 245.696106 
L 278.68833 244.617732 
L 278.955282 245.644403 
L 279.2185 245.319414 
L 279.478087 245.664715 
L 279.734143 245.177231 
L 280.236034 245.958313 
L 280.482048 245.744115 
L 280.724887 244.674975 
L 281.201363 245.775506 
L 281.435153 244.697133 
L 281.666073 245.585314 
L 281.894195 245.875219 
L 282.119584 245.118142 
L 282.342307 242.743505 
L 282.562424 243.463652 
L 282.779996 242.283719 
L 283 245.195696 
L 283 245.195696 
" clip-path="url(#pb0cd2617a9)" style="fill: none; stroke: #084a91; stroke-opacity: 0.8; stroke-linecap: square"/>
   </g>
   <g id="patch_8">
    <path d="M 38.44 252.524 
L 38.44 134.520353 
" style="fill: none; stroke: #000000; stroke-width: 0.8; stroke-linejoin: miter; stroke-linecap: square"/>
   </g>
   <g id="patch_9">
    <path d="M 283 252.524 
L 283 134.520353 
" style="fill: none; stroke: #000000; stroke-width: 0.8; stroke-linejoin: miter; stroke-linecap: square"/>
   </g>
   <g id="patch_10">
    <path d="M 38.44 252.524 
L 283 252.524 
" style="fill: none; stroke: #000000; stroke-width: 0.8; stroke-linejoin: miter; stroke-linecap: square"/>
   </g>
   <g id="patch_11">
    <path d="M 38.44 134.520353 
L 283 134.520353 
" style="fill: none; stroke: #000000; stroke-width: 0.8; stroke-linejoin: miter; stroke-linecap: square"/>
   </g>
  </g>
 </g>
 <defs>
  <clipPath id="pcb8621ed5a">
   <rect x="38.44" y="8.016706" width="244.56" height="118.003647"/>
  </clipPath>
  <clipPath id="pb0cd2617a9">
   <rect x="38.44" y="134.520353" width="244.56" height="118.003647"/>
  </clipPath>
 </defs>
</svg>
